u2194_random 1.ufo
<glyph name="exclam" format="1">
  <advance width="416"/>
  <unicode hex="0021"/>
  <outline>
    <contour>
      <point x="208" y="-157" type="curve" smooth="yes"/>
      <point x="293" y="-157"/>
      <point x="366" y="-84"/>
      <point x="366" y="1" type="curve" smooth="yes"/>
      <point x="366" y="18" type="line" smooth="yes"/>
      <point x="366" y="52"/>
      <point x="355" y="83"/>
      <point x="336" y="110" type="curve"/>
      <point x="355" y="136"/>
      <point x="366" y="167"/>
      <point x="366" y="201" type="curve" smooth="yes"/>
      <point x="366" y="801" type="line" smooth="yes"/>
      <point x="366" y="886"/>
      <point x="293" y="959"/>
      <point x="208" y="959" type="curve" smooth="yes"/>
      <point x="123" y="959"/>
      <point x="50" y="886"/>
      <point x="50" y="801" type="curve" smooth="yes"/>
      <point x="50" y="201" type="line" smooth="yes"/>
      <point x="50" y="167"/>
      <point x="61" y="136"/>
      <point x="80" y="109" type="curve"/>
      <point x="61" y="83"/>
      <point x="50" y="52"/>
      <point x="50" y="18" type="curve" smooth="yes"/>
      <point x="50" y="1" type="line" smooth="yes"/>
      <point x="50" y="-84"/>
      <point x="123" y="-157"/>
    </contour>
  </outline>
</glyph>
<glyph name="numbersign" format="1">
  <advance width="1010"/>
  <unicode hex="0023"/>
  <outline>
    <contour>
      <point x="655" y="-39" type="curve" smooth="yes"/>
      <point x="676" y="44" type="line"/>
      <point x="705" y="44" type="line" smooth="yes"/>
      <point x="789" y="44"/>
      <point x="860" y="115"/>
      <point x="860" y="199" type="curve" smooth="yes"/>
      <point x="860" y="267"/>
      <point x="814" y="326"/>
      <point x="752" y="346" type="curve"/>
      <point x="763" y="391" type="line"/>
      <point x="776" y="444" type="line"/>
      <point x="805" y="444" type="line" smooth="yes"/>
      <point x="889" y="444"/>
      <point x="960" y="515"/>
      <point x="960" y="599" type="curve" smooth="yes"/>
      <point x="960" y="667"/>
      <point x="914" y="726"/>
      <point x="852" y="746" type="curve"/>
      <point x="855" y="761" type="line" smooth="yes"/>
      <point x="876" y="843"/>
      <point x="824" y="929"/>
      <point x="743" y="949" type="curve" smooth="yes"/>
      <point x="693" y="962"/>
      <point x="642" y="947"/>
      <point x="605" y="916" type="curve"/>
      <point x="588" y="932"/>
      <point x="566" y="943"/>
      <point x="543" y="949" type="curve" smooth="yes"/>
      <point x="461" y="970"/>
      <point x="375" y="918"/>
      <point x="355" y="837" type="curve" smooth="yes"/>
      <point x="334" y="754" type="line"/>
      <point x="299" y="754" type="line" smooth="yes"/>
      <point x="215" y="754"/>
      <point x="144" y="683"/>
      <point x="144" y="599" type="curve" smooth="yes"/>
      <point x="144" y="529"/>
      <point x="193" y="468"/>
      <point x="258" y="450" type="curve"/>
      <point x="250" y="417" type="line"/>
      <point x="234" y="354" type="line"/>
      <point x="205" y="354" type="line" smooth="yes"/>
      <point x="121" y="354"/>
      <point x="50" y="283"/>
      <point x="50" y="199" type="curve" smooth="yes"/>
      <point x="50" y="131"/>
      <point x="96" y="72"/>
      <point x="158" y="52" type="curve"/>
      <point x="155" y="37" type="line" smooth="yes"/>
      <point x="134" y="-45"/>
      <point x="186" y="-131"/>
      <point x="267" y="-151" type="curve" smooth="yes"/>
      <point x="317" y="-164"/>
      <point x="368" y="-149"/>
      <point x="405" y="-118" type="curve"/>
      <point x="422" y="-134"/>
      <point x="444" y="-145"/>
      <point x="467" y="-151" type="curve" smooth="yes"/>
      <point x="549" y="-172"/>
      <point x="635" y="-120"/>
    </contour>
  </outline>
</glyph>
<glyph name="dollar" format="1">
  <advance width="861"/>
  <unicode hex="0024"/>
  <outline>
    <contour>
      <point x="352" y="555" type="line"/>
      <point x="274" y="630" type="line"/>
      <point x="352" y="662" type="line"/>
    </contour>
    <contour>
      <point x="431" y="-80" type="curve" smooth="yes"/>
      <point x="436" y="-80"/>
      <point x="440" y="-80"/>
      <point x="444" y="-79" type="curve"/>
      <point x="461" y="-78"/>
      <point x="478" y="-72"/>
      <point x="491" y="-62" type="curve" smooth="yes"/>
      <point x="780" y="175" type="line" smooth="yes"/>
      <point x="827" y="214"/>
      <point x="820" y="279"/>
      <point x="765" y="306" type="curve" smooth="yes"/>
      <point x="510" y="433" type="line"/>
      <point x="510" y="673" type="line"/>
      <point x="682" y="537" type="line" smooth="yes"/>
      <point x="715" y="511"/>
      <point x="766" y="516"/>
      <point x="793" y="550" type="curve" smooth="yes"/>
      <point x="819" y="583"/>
      <point x="814" y="634"/>
      <point x="780" y="661" type="curve" smooth="yes"/>
      <point x="528" y="861" type="line" smooth="yes"/>
      <point x="509" y="875"/>
      <point x="478" y="881"/>
      <point x="455" y="874" type="curve"/>
      <point x="447" y="877"/>
      <point x="439" y="878"/>
      <point x="431" y="878" type="curve" smooth="yes"/>
      <point x="402" y="878"/>
      <point x="376" y="861"/>
      <point x="362" y="837" type="curve"/>
      <point x="102" y="731" type="line" smooth="yes"/>
      <point x="45" y="708"/>
      <point x="33" y="644"/>
      <point x="77" y="601" type="curve" smooth="yes"/>
      <point x="345" y="342" type="line" smooth="yes"/>
      <point x="347" y="340"/>
      <point x="350" y="339"/>
      <point x="352" y="337" type="curve"/>
      <point x="352" y="150" type="line"/>
      <point x="173" y="265" type="line" smooth="yes"/>
      <point x="137" y="289"/>
      <point x="87" y="278"/>
      <point x="64" y="242" type="curve" smooth="yes"/>
      <point x="40" y="206"/>
      <point x="51" y="156"/>
      <point x="87" y="133" type="curve" smooth="yes"/>
      <point x="369" y="-49" type="line"/>
      <point x="383" y="-68"/>
      <point x="406" y="-80"/>
    </contour>
    <contour>
      <point x="510" y="158" type="line"/>
      <point x="510" y="256" type="line"/>
      <point x="585" y="219" type="line"/>
    </contour>
  </outline>
</glyph>
<glyph name="percent" format="1">
  <advance width="861"/>
  <unicode hex="0025"/>
  <outline>
    <contour>
      <point x="331" y="880" type="curve" smooth="yes"/>
      <point x="287" y="880"/>
      <point x="250" y="843"/>
      <point x="250" y="799" type="curve" smooth="yes"/>
      <point x="250" y="789" type="line" smooth="yes"/>
      <point x="250" y="745"/>
      <point x="287" y="708"/>
      <point x="331" y="708" type="curve" smooth="yes"/>
      <point x="375" y="708"/>
      <point x="412" y="745"/>
      <point x="412" y="789" type="curve" smooth="yes"/>
      <point x="412" y="799" type="line" smooth="yes"/>
      <point x="412" y="843"/>
      <point x="375" y="880"/>
    </contour>
    <contour>
      <point x="196" y="-50" type="curve" smooth="yes"/>
      <point x="796" y="750" type="line" smooth="yes"/>
      <point x="822" y="785"/>
      <point x="815" y="838"/>
      <point x="780" y="864" type="curve" smooth="yes"/>
      <point x="745" y="890"/>
      <point x="692" y="883"/>
      <point x="666" y="848" type="curve" smooth="yes"/>
      <point x="66" y="48" type="line" smooth="yes"/>
      <point x="40" y="13"/>
      <point x="47" y="-40"/>
      <point x="82" y="-66" type="curve" smooth="yes"/>
      <point x="117" y="-92"/>
      <point x="170" y="-85"/>
    </contour>
    <contour>
      <point x="531" y="-82" type="curve" smooth="yes"/>
      <point x="575" y="-82"/>
      <point x="612" y="-45"/>
      <point x="612" y="-1" type="curve" smooth="yes"/>
      <point x="612" y="9" type="line" smooth="yes"/>
      <point x="612" y="53"/>
      <point x="575" y="90"/>
      <point x="531" y="90" type="curve" smooth="yes"/>
      <point x="487" y="90"/>
      <point x="450" y="53"/>
      <point x="450" y="9" type="curve" smooth="yes"/>
      <point x="450" y="-1" type="line" smooth="yes"/>
      <point x="450" y="-45"/>
      <point x="487" y="-82"/>
    </contour>
  </outline>
</glyph>
<glyph name="ampersand" format="1">
  <advance width="770"/>
  <unicode hex="0026"/>
  <outline>
    <contour>
      <point x="667" y="-107" type="curve" smooth="yes"/>
      <point x="725" y="-63"/>
      <point x="738" y="24"/>
      <point x="694" y="82" type="curve" smooth="yes"/>
      <point x="557" y="265" type="line"/>
      <point x="585" y="265" type="line" smooth="yes"/>
      <point x="658" y="265"/>
      <point x="720" y="327"/>
      <point x="720" y="400" type="curve" smooth="yes"/>
      <point x="720" y="473"/>
      <point x="658" y="535"/>
      <point x="585" y="535" type="curve" smooth="yes"/>
      <point x="185" y="536" type="line" smooth="yes"/>
      <point x="112" y="536"/>
      <point x="50" y="474"/>
      <point x="50" y="401" type="curve" smooth="yes"/>
      <point x="50" y="328"/>
      <point x="112" y="266"/>
      <point x="185" y="266" type="curve" smooth="yes"/>
      <point x="219" y="266" type="line"/>
      <point x="478" y="-80" type="line" smooth="yes"/>
      <point x="522" y="-138"/>
      <point x="609" y="-151"/>
    </contour>
  </outline>
</glyph>
<glyph name="asterisk" format="1">
  <advance width="643"/>
  <unicode hex="002A"/>
  <outline>
    <contour>
      <point x="240" y="261" type="curve" smooth="yes"/>
      <point x="323" y="379" type="line"/>
      <point x="413" y="259" type="line" smooth="yes"/>
      <point x="437" y="228"/>
      <point x="483" y="221"/>
      <point x="514" y="244" type="curve" smooth="yes"/>
      <point x="545" y="268"/>
      <point x="552" y="314"/>
      <point x="529" y="345" type="curve" smooth="yes"/>
      <point x="465" y="430" type="line"/>
      <point x="521" y="430" type="line" smooth="yes"/>
      <point x="560" y="430"/>
      <point x="593" y="463"/>
      <point x="593" y="502" type="curve" smooth="yes"/>
      <point x="593" y="541"/>
      <point x="560" y="574"/>
      <point x="521" y="574" type="curve" smooth="yes"/>
      <point x="341" y="574" type="line" smooth="yes"/>
      <point x="338" y="574"/>
      <point x="334" y="574"/>
      <point x="330" y="573" type="curve"/>
      <point x="315" y="575"/>
      <point x="299" y="572"/>
      <point x="285" y="564" type="curve"/>
      <point x="372" y="651" type="line" smooth="yes"/>
      <point x="399" y="679"/>
      <point x="399" y="725"/>
      <point x="372" y="753" type="curve" smooth="yes"/>
      <point x="344" y="780"/>
      <point x="298" y="780"/>
      <point x="270" y="753" type="curve" smooth="yes"/>
      <point x="70" y="553" type="line" smooth="yes"/>
      <point x="43" y="525"/>
      <point x="43" y="479"/>
      <point x="70" y="451" type="curve" smooth="yes"/>
      <point x="98" y="424"/>
      <point x="144" y="424"/>
      <point x="172" y="451" type="curve" smooth="yes"/>
      <point x="259" y="538" type="line"/>
      <point x="255" y="531"/>
      <point x="252" y="522"/>
      <point x="250" y="513" type="curve"/>
      <point x="223" y="486" type="line" smooth="yes"/>
      <point x="221" y="484"/>
      <point x="217" y="479"/>
      <point x="215" y="477" type="curve" smooth="yes"/>
      <point x="163" y="402" type="line"/>
      <point x="122" y="343" type="line" smooth="yes"/>
      <point x="100" y="311"/>
      <point x="108" y="265"/>
      <point x="140" y="243" type="curve" smooth="yes"/>
      <point x="172" y="221"/>
      <point x="218" y="229"/>
    </contour>
  </outline>
</glyph>
<glyph name="plus" format="1">
  <advance width="754"/>
  <unicode hex="002B"/>
  <outline>
    <contour>
      <point x="377" y="-5" type="curve" smooth="yes"/>
      <point x="446" y="-5"/>
      <point x="504" y="53"/>
      <point x="504" y="122" type="curve" smooth="yes"/>
      <point x="504" y="195" type="line"/>
      <point x="577" y="195" type="line" smooth="yes"/>
      <point x="646" y="195"/>
      <point x="704" y="253"/>
      <point x="704" y="322" type="curve" smooth="yes"/>
      <point x="704" y="391"/>
      <point x="646" y="449"/>
      <point x="577" y="449" type="curve" smooth="yes"/>
      <point x="504" y="449" type="line"/>
      <point x="504" y="522" type="line" smooth="yes"/>
      <point x="504" y="591"/>
      <point x="446" y="649"/>
      <point x="377" y="649" type="curve" smooth="yes"/>
      <point x="308" y="649"/>
      <point x="250" y="591"/>
      <point x="250" y="522" type="curve" smooth="yes"/>
      <point x="250" y="449" type="line"/>
      <point x="177" y="449" type="line" smooth="yes"/>
      <point x="108" y="449"/>
      <point x="50" y="391"/>
      <point x="50" y="322" type="curve" smooth="yes"/>
      <point x="50" y="253"/>
      <point x="108" y="195"/>
      <point x="177" y="195" type="curve" smooth="yes"/>
      <point x="250" y="195" type="line"/>
      <point x="250" y="122" type="line" smooth="yes"/>
      <point x="250" y="53"/>
      <point x="308" y="-5"/>
    </contour>
  </outline>
</glyph>
<glyph name="comma" format="1">
  <advance width="343"/>
  <unicode hex="002C"/>
  <outline>
    <contour>
      <point x="254" y="206" type="curve" smooth="yes"/>
      <point x="219" y="224"/>
      <point x="175" y="209"/>
      <point x="158" y="174" type="curve" smooth="yes"/>
      <point x="58" y="-26" type="line" smooth="yes"/>
      <point x="40" y="-61"/>
      <point x="55" y="-105"/>
      <point x="90" y="-122" type="curve" smooth="yes"/>
      <point x="125" y="-140"/>
      <point x="169" y="-125"/>
      <point x="186" y="-90" type="curve" smooth="yes"/>
      <point x="286" y="110" type="line" smooth="yes"/>
      <point x="304" y="145"/>
      <point x="289" y="189"/>
    </contour>
  </outline>
</glyph>
<glyph name="hyphen" format="1">
  <advance width="462"/>
  <unicode hex="002D"/>
  <outline>
    <contour>
      <point x="50" y="296" type="curve" smooth="yes"/>
      <point x="50" y="252"/>
      <point x="87" y="215"/>
      <point x="131" y="215" type="curve" smooth="yes"/>
      <point x="331" y="215" type="line" smooth="yes"/>
      <point x="375" y="215"/>
      <point x="412" y="252"/>
      <point x="412" y="296" type="curve" smooth="yes"/>
      <point x="412" y="340"/>
      <point x="375" y="377"/>
      <point x="331" y="377" type="curve" smooth="yes"/>
      <point x="131" y="377" type="line" smooth="yes"/>
      <point x="87" y="377"/>
      <point x="50" y="340"/>
    </contour>
  </outline>
</glyph>
<glyph name="period" format="1">
  <advance width="204"/>
  <unicode hex="002E"/>
  <outline>
    <contour>
      <point x="102" y="62" type="curve" smooth="yes"/>
      <point x="74" y="62"/>
      <point x="50" y="38"/>
      <point x="50" y="10" type="curve" smooth="yes"/>
      <point x="50" y="0" type="line" smooth="yes"/>
      <point x="50" y="-28"/>
      <point x="74" y="-52"/>
      <point x="102" y="-52" type="curve" smooth="yes"/>
      <point x="130" y="-52"/>
      <point x="154" y="-28"/>
      <point x="154" y="0" type="curve" smooth="yes"/>
      <point x="154" y="10" type="line" smooth="yes"/>
      <point x="154" y="38"/>
      <point x="130" y="62"/>
    </contour>
  </outline>
</glyph>
<glyph name="slash" format="1">
  <advance width="999"/>
  <unicode hex="002F"/>
  <outline>
    <contour>
      <point x="319" y="-88" type="curve" smooth="yes"/>
      <point x="919" y="712" type="line" smooth="yes"/>
      <point x="968" y="777"/>
      <point x="954" y="873"/>
      <point x="889" y="922" type="curve" smooth="yes"/>
      <point x="824" y="971"/>
      <point x="728" y="957"/>
      <point x="679" y="892" type="curve" smooth="yes"/>
      <point x="79" y="92" type="line" smooth="yes"/>
      <point x="30" y="27"/>
      <point x="44" y="-69"/>
      <point x="109" y="-118" type="curve" smooth="yes"/>
      <point x="174" y="-167"/>
      <point x="270" y="-153"/>
    </contour>
  </outline>
</glyph>
<glyph name="zero" format="1">
  <advance width="801"/>
  <unicode hex="0030"/>
  <outline>
    <contour>
      <point x="721" y="135" type="line" smooth="yes"/>
      <point x="738" y="142"/>
      <point x="751" y="163"/>
      <point x="751" y="181" type="curve" smooth="yes"/>
      <point x="750" y="615" type="line" smooth="yes"/>
      <point x="750" y="633"/>
      <point x="737" y="654"/>
      <point x="721" y="661" type="curve" smooth="yes"/>
      <point x="678" y="682" type="line"/>
      <point x="695" y="703" type="line" smooth="yes"/>
      <point x="711" y="725"/>
      <point x="707" y="758"/>
      <point x="685" y="775" type="curve" smooth="yes"/>
      <point x="663" y="791"/>
      <point x="630" y="787"/>
      <point x="613" y="765" type="curve" smooth="yes"/>
      <point x="584" y="727" type="line"/>
      <point x="330" y="848" type="line" smooth="yes"/>
      <point x="306" y="860"/>
      <point x="276" y="850"/>
      <point x="263" y="826" type="curve" smooth="yes"/>
      <point x="55" y="446" type="line" smooth="yes"/>
      <point x="49" y="436"/>
      <point x="48" y="418"/>
      <point x="52" y="406" type="curve" smooth="yes"/>
      <point x="140" y="140" type="line"/>
      <point x="99" y="87" type="line" smooth="yes"/>
      <point x="83" y="65"/>
      <point x="87" y="32"/>
      <point x="109" y="15" type="curve" smooth="yes"/>
      <point x="130" y="-1"/>
      <point x="161" y="3"/>
      <point x="178" y="23" type="curve"/>
      <point x="189" y="-9" type="line" smooth="yes"/>
      <point x="195" y="-26"/>
      <point x="214" y="-42"/>
      <point x="233" y="-43" type="curve" smooth="yes"/>
      <point x="298" y="-49" type="line" smooth="yes"/>
      <point x="309" y="-50"/>
      <point x="320" y="-47"/>
      <point x="329" y="-41" type="curve"/>
    </contour>
    <contour>
      <point x="214" y="239" type="line"/>
      <point x="155" y="417" type="line"/>
      <point x="330" y="735" type="line"/>
      <point x="521" y="644" type="line"/>
    </contour>
    <contour>
      <point x="483" y="424" type="line"/>
      <point x="615" y="599" type="line"/>
      <point x="648" y="583" type="line"/>
      <point x="649" y="214" type="line"/>
      <point x="291" y="54" type="line"/>
      <point x="275" y="55" type="line"/>
      <point x="253" y="121" type="line"/>
    </contour>
  </outline>
</glyph>
<glyph name="one" format="1">
  <advance width="948"/>
  <unicode hex="0031"/>
  <outline>
    <contour>
      <point x="174" y="-123" type="curve" smooth="yes"/>
      <point x="774" y="-123" type="line" smooth="yes"/>
      <point x="841" y="-123"/>
      <point x="898" y="-66"/>
      <point x="898" y="1" type="curve" smooth="yes"/>
      <point x="898" y="68"/>
      <point x="841" y="125"/>
      <point x="774" y="125" type="curve" smooth="yes"/>
      <point x="563" y="125" type="line"/>
      <point x="564" y="125" type="line" smooth="yes"/>
      <point x="583" y="145"/>
      <point x="598" y="184"/>
      <point x="598" y="211" type="curve" smooth="yes"/>
      <point x="598" y="791" type="line" smooth="yes"/>
      <point x="598" y="907"/>
      <point x="481" y="961"/>
      <point x="393" y="885" type="curve" smooth="yes"/>
      <point x="208" y="725" type="line"/>
      <point x="174" y="725" type="line" smooth="yes"/>
      <point x="107" y="725"/>
      <point x="50" y="668"/>
      <point x="50" y="601" type="curve" smooth="yes"/>
      <point x="50" y="534"/>
      <point x="107" y="477"/>
      <point x="174" y="477" type="curve" smooth="yes"/>
      <point x="254" y="477" type="line" smooth="yes"/>
      <point x="279" y="477"/>
      <point x="316" y="491"/>
      <point x="335" y="507" type="curve" smooth="yes"/>
      <point x="350" y="520" type="line"/>
      <point x="350" y="261" type="line"/>
      <point x="221" y="125" type="line"/>
      <point x="174" y="125" type="line" smooth="yes"/>
      <point x="107" y="125"/>
      <point x="50" y="68"/>
      <point x="50" y="1" type="curve" smooth="yes"/>
      <point x="50" y="-66"/>
      <point x="107" y="-123"/>
    </contour>
  </outline>
</glyph>
<glyph name="two" format="1">
  <advance width="895"/>
  <unicode hex="0032"/>
  <outline>
    <contour>
      <point x="397" y="-97" type="curve" smooth="yes"/>
      <point x="747" y="-97" type="line" smooth="yes"/>
      <point x="799" y="-97"/>
      <point x="844" y="-52"/>
      <point x="844" y="0" type="curve" smooth="yes"/>
      <point x="844" y="52"/>
      <point x="799" y="97"/>
      <point x="747" y="97" type="curve" smooth="yes"/>
      <point x="438" y="97" type="line"/>
      <point x="315" y="221" type="line"/>
      <point x="508" y="312" type="line" smooth="yes"/>
      <point x="514" y="315"/>
      <point x="523" y="321"/>
      <point x="528" y="325" type="curve" smooth="yes"/>
      <point x="806" y="549" type="line" smooth="yes"/>
      <point x="863" y="595"/>
      <point x="857" y="673"/>
      <point x="793" y="709" type="curve" smooth="yes"/>
      <point x="485" y="884" type="line" smooth="yes"/>
      <point x="456" y="901"/>
      <point x="410" y="899"/>
      <point x="382" y="880" type="curve" smooth="yes"/>
      <point x="92" y="680" type="line" smooth="yes"/>
      <point x="49" y="650"/>
      <point x="37" y="588"/>
      <point x="67" y="545" type="curve" smooth="yes"/>
      <point x="97" y="502"/>
      <point x="159" y="490"/>
      <point x="202" y="520" type="curve" smooth="yes"/>
      <point x="442" y="686" type="line"/>
      <point x="574" y="611" type="line"/>
      <point x="415" y="483" type="line"/>
      <point x="109" y="338" type="line" smooth="yes"/>
      <point x="44" y="307"/>
      <point x="31" y="233"/>
      <point x="81" y="182" type="curve" smooth="yes"/>
      <point x="328" y="-68" type="line" smooth="yes"/>
      <point x="344" y="-84"/>
      <point x="375" y="-97"/>
    </contour>
  </outline>
</glyph>
<glyph name="three" format="1">
  <advance width="899"/>
  <unicode hex="0033"/>
  <outline>
    <contour>
      <point x="555" y="-100" type="line" smooth="yes"/>
      <point x="577" y="-100"/>
      <point x="607" y="-89"/>
      <point x="623" y="-76" type="curve" smooth="yes"/>
      <point x="815" y="90" type="line" smooth="yes"/>
      <point x="848" y="119"/>
      <point x="859" y="174"/>
      <point x="838" y="214" type="curve" smooth="yes"/>
      <point x="738" y="401" type="line"/>
      <point x="838" y="588" type="line" smooth="yes"/>
      <point x="859" y="628"/>
      <point x="848" y="683"/>
      <point x="815" y="712" type="curve" smooth="yes"/>
      <point x="623" y="878" type="line" smooth="yes"/>
      <point x="607" y="891"/>
      <point x="577" y="902"/>
      <point x="555" y="902" type="curve" smooth="yes"/>
      <point x="299" y="899" type="line" smooth="yes"/>
      <point x="271" y="899"/>
      <point x="236" y="881"/>
      <point x="219" y="859" type="curve" smooth="yes"/>
      <point x="70" y="662" type="line" smooth="yes"/>
      <point x="37" y="619"/>
      <point x="45" y="554"/>
      <point x="89" y="521" type="curve" smooth="yes"/>
      <point x="132" y="488"/>
      <point x="197" y="496"/>
      <point x="230" y="540" type="curve" smooth="yes"/>
      <point x="350" y="698" type="line"/>
      <point x="520" y="700" type="line"/>
      <point x="622" y="612" type="line"/>
      <point x="567" y="508" type="line"/>
      <point x="377" y="502" type="line" smooth="yes"/>
      <point x="245" y="498"/>
      <point x="245" y="304"/>
      <point x="377" y="300" type="curve" smooth="yes"/>
      <point x="567" y="294" type="line"/>
      <point x="622" y="190" type="line"/>
      <point x="520" y="102" type="line"/>
      <point x="350" y="104" type="line"/>
      <point x="230" y="262" type="line" smooth="yes"/>
      <point x="197" y="306"/>
      <point x="132" y="314"/>
      <point x="89" y="281" type="curve" smooth="yes"/>
      <point x="45" y="248"/>
      <point x="37" y="183"/>
      <point x="70" y="140" type="curve" smooth="yes"/>
      <point x="219" y="-57" type="line" smooth="yes"/>
      <point x="236" y="-79"/>
      <point x="271" y="-97"/>
      <point x="299" y="-97" type="curve" smooth="yes"/>
    </contour>
  </outline>
</glyph>
<glyph name="four" format="1">
  <advance width="810"/>
  <unicode hex="0034"/>
  <outline>
    <contour>
      <point x="684" y="-75" type="curve" smooth="yes"/>
      <point x="725" y="-75"/>
      <point x="760" y="-40"/>
      <point x="760" y="1" type="curve" smooth="yes"/>
      <point x="760" y="600" type="line" smooth="yes"/>
      <point x="760" y="641"/>
      <point x="725" y="676"/>
      <point x="684" y="676" type="curve" smooth="yes"/>
      <point x="643" y="676"/>
      <point x="608" y="641"/>
      <point x="608" y="600" type="curve" smooth="yes"/>
      <point x="608" y="355" type="line"/>
      <point x="573" y="367" type="line" smooth="yes"/>
      <point x="568" y="368"/>
      <point x="560" y="370"/>
      <point x="555" y="370" type="curve" smooth="yes"/>
      <point x="490" y="376" type="line" smooth="yes"/>
      <point x="489" y="376"/>
      <point x="486" y="376"/>
      <point x="484" y="376" type="curve" smooth="yes"/>
      <point x="218" y="376" type="line"/>
      <point x="444" y="752" type="line"/>
      <point x="449" y="761" type="line" smooth="yes"/>
      <point x="470" y="796"/>
      <point x="458" y="844"/>
      <point x="423" y="865" type="curve" smooth="yes"/>
      <point x="388" y="886"/>
      <point x="340" y="874"/>
      <point x="319" y="839" type="curve" smooth="yes"/>
      <point x="96" y="468" type="line"/>
      <point x="60" y="408" type="line" smooth="yes"/>
      <point x="53" y="396"/>
      <point x="48" y="374"/>
      <point x="50" y="360" type="curve" smooth="yes"/>
      <point x="59" y="291" type="line" smooth="yes"/>
      <point x="63" y="254"/>
      <point x="97" y="224"/>
      <point x="134" y="224" type="curve" smooth="yes"/>
      <point x="481" y="224" type="line"/>
      <point x="534" y="220" type="line"/>
      <point x="569" y="208" type="line"/>
      <point x="592" y="187" type="line"/>
      <point x="605" y="152" type="line"/>
      <point x="608" y="98" type="line"/>
      <point x="608" y="1" type="line" smooth="yes"/>
      <point x="608" y="-40"/>
      <point x="643" y="-75"/>
    </contour>
  </outline>
</glyph>
<glyph name="five" format="1">
  <advance width="883"/>
  <unicode hex="0035"/>
  <outline>
    <contour>
      <point x="343" y="-91" type="curve" smooth="yes"/>
      <point x="627" y="-84" type="line" smooth="yes"/>
      <point x="659" y="-83"/>
      <point x="696" y="-58"/>
      <point x="709" y="-29" type="curve" smooth="yes"/>
      <point x="822" y="232" type="line" smooth="yes"/>
      <point x="840" y="274"/>
      <point x="822" y="327"/>
      <point x="781" y="349" type="curve" smooth="yes"/>
      <point x="535" y="482" type="line" smooth="yes"/>
      <point x="523" y="488"/>
      <point x="504" y="493"/>
      <point x="491" y="493" type="curve" smooth="yes"/>
      <point x="284" y="493" type="line"/>
      <point x="253" y="626" type="line"/>
      <point x="422" y="709" type="line"/>
      <point x="741" y="709" type="line" smooth="yes"/>
      <point x="791" y="709"/>
      <point x="833" y="751"/>
      <point x="833" y="801" type="curve" smooth="yes"/>
      <point x="833" y="851"/>
      <point x="791" y="893"/>
      <point x="741" y="893" type="curve" smooth="yes"/>
      <point x="401" y="893" type="line" smooth="yes"/>
      <point x="389" y="893"/>
      <point x="371" y="889"/>
      <point x="361" y="884" type="curve" smooth="yes"/>
      <point x="106" y="759" type="line" smooth="yes"/>
      <point x="69" y="741"/>
      <point x="47" y="695"/>
      <point x="57" y="655" type="curve" smooth="yes"/>
      <point x="121" y="380" type="line" smooth="yes"/>
      <point x="131" y="341"/>
      <point x="171" y="309"/>
      <point x="211" y="309" type="curve" smooth="yes"/>
      <point x="468" y="309" type="line"/>
      <point x="619" y="227" type="line"/>
      <point x="563" y="98" type="line"/>
      <point x="378" y="94" type="line"/>
      <point x="206" y="266" type="line" smooth="yes"/>
      <point x="171" y="301"/>
      <point x="111" y="301"/>
      <point x="76" y="266" type="curve" smooth="yes"/>
      <point x="41" y="231"/>
      <point x="41" y="171"/>
      <point x="76" y="136" type="curve" smooth="yes"/>
      <point x="276" y="-64" type="line" smooth="yes"/>
      <point x="291" y="-79"/>
      <point x="321" y="-92"/>
    </contour>
  </outline>
</glyph>
<glyph name="six" format="1">
  <advance width="955"/>
  <unicode hex="0036"/>
  <outline>
    <contour>
      <point x="678" y="520" type="line"/>
      <point x="518" y="590" type="line"/>
      <point x="574" y="631" type="line"/>
    </contour>
    <contour>
      <point x="410" y="-76" type="curve" smooth="yes"/>
      <point x="740" y="313" type="line" smooth="yes"/>
      <point x="784" y="366"/>
      <point x="782" y="434"/>
      <point x="741" y="479" type="curve"/>
      <point x="783" y="467"/>
      <point x="831" y="476"/>
      <point x="864" y="507" type="curve" smooth="yes"/>
      <point x="915" y="555"/>
      <point x="918" y="638"/>
      <point x="871" y="688" type="curve" smooth="yes"/>
      <point x="684" y="888" type="line" smooth="yes"/>
      <point x="641" y="934"/>
      <point x="566" y="941"/>
      <point x="515" y="905" type="curve" smooth="yes"/>
      <point x="247" y="710" type="line"/>
      <point x="229" y="718" type="line" smooth="yes"/>
      <point x="166" y="746"/>
      <point x="88" y="716"/>
      <point x="60" y="653" type="curve" smooth="yes"/>
      <point x="45" y="619"/>
      <point x="47" y="582"/>
      <point x="61" y="550" type="curve"/>
      <point x="50" y="523"/>
      <point x="46" y="493"/>
      <point x="54" y="467" type="curve" smooth="yes"/>
      <point x="189" y="-27" type="line" smooth="yes"/>
      <point x="218" y="-136"/>
      <point x="337" y="-162"/>
    </contour>
    <contour>
      <point x="372" y="275" type="line"/>
      <point x="340" y="389" type="line"/>
      <point x="434" y="348" type="line"/>
    </contour>
  </outline>
</glyph>
<glyph name="seven" format="1">
  <advance width="908"/>
  <unicode hex="0037"/>
  <outline>
    <contour>
      <point x="444" y="-62" type="curve" smooth="yes"/>
      <point x="655" y="255" type="line"/>
      <point x="760" y="413" type="line" smooth="yes"/>
      <point x="763" y="417"/>
      <point x="766" y="423"/>
      <point x="768" y="427" type="curve" smooth="yes"/>
      <point x="850" y="604" type="line" smooth="yes"/>
      <point x="865" y="638"/>
      <point x="858" y="688"/>
      <point x="834" y="717" type="curve" smooth="yes"/>
      <point x="715" y="857" type="line" smooth="yes"/>
      <point x="698" y="877"/>
      <point x="664" y="894"/>
      <point x="638" y="895" type="curve" smooth="yes"/>
      <point x="450" y="903" type="line"/>
      <point x="256" y="903" type="line"/>
      <point x="156" y="903" type="line" smooth="yes"/>
      <point x="99" y="903"/>
      <point x="50" y="854"/>
      <point x="50" y="797" type="curve" smooth="yes"/>
      <point x="50" y="740"/>
      <point x="99" y="691"/>
      <point x="156" y="691" type="curve" smooth="yes"/>
      <point x="441" y="691" type="line"/>
      <point x="583" y="685" type="line"/>
      <point x="629" y="631" type="line"/>
      <point x="579" y="524" type="line"/>
      <point x="373" y="214" type="line"/>
      <point x="268" y="56" type="line" smooth="yes"/>
      <point x="236" y="8"/>
      <point x="250" y="-60"/>
      <point x="297" y="-91" type="curve" smooth="yes"/>
      <point x="345" y="-123"/>
      <point x="413" y="-109"/>
    </contour>
  </outline>
</glyph>
<glyph name="eight" format="1">
  <advance width="862"/>
  <unicode hex="0038"/>
  <outline>
    <contour>
      <point x="332" y="-84" type="curve" smooth="yes"/>
      <point x="560" y="-84" type="line" smooth="yes"/>
      <point x="578" y="-84"/>
      <point x="603" y="-74"/>
      <point x="616" y="-63" type="curve" smooth="yes"/>
      <point x="785" y="87" type="line" smooth="yes"/>
      <point x="806" y="106"/>
      <point x="817" y="143"/>
      <point x="810" y="171" type="curve" smooth="yes"/>
      <point x="755" y="385" type="line" smooth="yes"/>
      <point x="751" y="400"/>
      <point x="741" y="414"/>
      <point x="729" y="425" type="curve"/>
      <point x="769" y="451" type="line" smooth="yes"/>
      <point x="794" y="466"/>
      <point x="811" y="503"/>
      <point x="807" y="532" type="curve" smooth="yes"/>
      <point x="778" y="755" type="line" smooth="yes"/>
      <point x="774" y="787"/>
      <point x="746" y="818"/>
      <point x="716" y="826" type="curve" smooth="yes"/>
      <point x="503" y="881" type="line" smooth="yes"/>
      <point x="497" y="883"/>
      <point x="487" y="884"/>
      <point x="480" y="884" type="curve" smooth="yes"/>
      <point x="255" y="879" type="line" smooth="yes"/>
      <point x="231" y="878"/>
      <point x="201" y="862"/>
      <point x="188" y="843" type="curve" smooth="yes"/>
      <point x="64" y="666" type="line" smooth="yes"/>
      <point x="48" y="644"/>
      <point x="45" y="606"/>
      <point x="57" y="582" type="curve" smooth="yes"/>
      <point x="135" y="418" type="line"/>
      <point x="109" y="406"/>
      <point x="88" y="379"/>
      <point x="85" y="352" type="curve" smooth="yes"/>
      <point x="56" y="127" type="line" smooth="yes"/>
      <point x="52" y="97"/>
      <point x="70" y="60"/>
      <point x="96" y="45" type="curve" smooth="yes"/>
      <point x="289" y="-72" type="line" smooth="yes"/>
      <point x="300" y="-79"/>
      <point x="319" y="-84"/>
    </contour>
    <contour>
      <point x="508" y="484" type="line"/>
      <point x="455" y="484" type="line"/>
      <point x="284" y="496" type="line"/>
      <point x="229" y="610" type="line"/>
      <point x="301" y="712" type="line"/>
      <point x="472" y="716" type="line"/>
      <point x="619" y="678" type="line"/>
      <point x="634" y="564" type="line"/>
    </contour>
    <contour>
      <point x="528" y="84" type="line"/>
      <point x="355" y="84" type="line"/>
      <point x="229" y="160" type="line"/>
      <point x="244" y="275" type="line"/>
      <point x="393" y="316" type="line"/>
      <point x="445" y="316" type="line"/>
      <point x="606" y="290" type="line"/>
      <point x="635" y="179" type="line"/>
    </contour>
  </outline>
</glyph>
<glyph name="nine" format="1">
  <advance width="882"/>
  <unicode hex="0039"/>
  <outline>
    <contour>
      <point x="592" y="488" type="curve" smooth="yes"/>
      <point x="373" y="491" type="line"/>
      <point x="253" y="585" type="line"/>
      <point x="303" y="700" type="line"/>
      <point x="476" y="708" type="line"/>
      <point x="639" y="644" type="line"/>
      <point x="649" y="466" type="line"/>
      <point x="633" y="479"/>
      <point x="611" y="488"/>
    </contour>
    <contour>
      <point x="363" y="-91" type="curve" smooth="yes"/>
      <point x="608" y="-86" type="line" smooth="yes"/>
      <point x="634" y="-85"/>
      <point x="667" y="-67"/>
      <point x="682" y="-45" type="curve" smooth="yes"/>
      <point x="795" y="127" type="line"/>
      <point x="796" y="128" type="line" smooth="yes"/>
      <point x="820" y="146"/>
      <point x="832" y="175"/>
      <point x="831" y="202" type="curve"/>
      <point x="832" y="205"/>
      <point x="832" y="207"/>
      <point x="832" y="210" type="curve" smooth="yes"/>
      <point x="832" y="465" type="line"/>
      <point x="817" y="713" type="line" smooth="yes"/>
      <point x="815" y="745"/>
      <point x="790" y="780"/>
      <point x="760" y="792" type="curve" smooth="yes"/>
      <point x="524" y="885" type="line" smooth="yes"/>
      <point x="514" y="889"/>
      <point x="497" y="891"/>
      <point x="487" y="891" type="curve" smooth="yes"/>
      <point x="237" y="879" type="line" smooth="yes"/>
      <point x="206" y="878"/>
      <point x="170" y="853"/>
      <point x="158" y="824" type="curve" smooth="yes"/>
      <point x="58" y="593" type="line" smooth="yes"/>
      <point x="43" y="557"/>
      <point x="55" y="509"/>
      <point x="86" y="485" type="curve" smooth="yes"/>
      <point x="285" y="329" type="line" smooth="yes"/>
      <point x="298" y="318"/>
      <point x="323" y="309"/>
      <point x="340" y="309" type="curve" smooth="yes"/>
      <point x="546" y="306" type="line"/>
      <point x="626" y="201" type="line"/>
      <point x="556" y="95" type="line"/>
      <point x="386" y="92" type="line"/>
      <point x="233" y="188" type="line"/>
      <point x="232" y="207" type="line" smooth="yes"/>
      <point x="228" y="256"/>
      <point x="182" y="295"/>
      <point x="134" y="291" type="curve" smooth="yes"/>
      <point x="85" y="287"/>
      <point x="46" y="241"/>
      <point x="50" y="193" type="curve" smooth="yes"/>
      <point x="56" y="128" type="line" smooth="yes"/>
      <point x="58" y="103"/>
      <point x="77" y="72"/>
      <point x="98" y="58" type="curve" smooth="yes"/>
      <point x="313" y="-77" type="line" smooth="yes"/>
      <point x="325" y="-85"/>
      <point x="348" y="-91"/>
    </contour>
  </outline>
</glyph>
<glyph name="colon" format="1">
  <advance width="370"/>
  <unicode hex="003A"/>
  <outline>
    <contour>
      <point x="184" y="449" type="curve" smooth="yes"/>
      <point x="256" y="449"/>
      <point x="318" y="511"/>
      <point x="318" y="583" type="curve" smooth="yes"/>
      <point x="318" y="592" type="line" smooth="yes"/>
      <point x="318" y="664"/>
      <point x="256" y="726"/>
      <point x="184" y="726" type="curve" smooth="yes"/>
      <point x="112" y="726"/>
      <point x="50" y="664"/>
      <point x="50" y="592" type="curve" smooth="yes"/>
      <point x="50" y="583" type="line" smooth="yes"/>
      <point x="50" y="511"/>
      <point x="112" y="449"/>
    </contour>
    <contour>
      <point x="186" y="-133" type="curve" smooth="yes"/>
      <point x="258" y="-133"/>
      <point x="320" y="-71"/>
      <point x="320" y="1" type="curve" smooth="yes"/>
      <point x="320" y="5" type="line" smooth="yes"/>
      <point x="320" y="77"/>
      <point x="258" y="139"/>
      <point x="186" y="139" type="curve" smooth="yes"/>
      <point x="114" y="139"/>
      <point x="52" y="77"/>
      <point x="52" y="5" type="curve" smooth="yes"/>
      <point x="52" y="1" type="line" smooth="yes"/>
      <point x="52" y="-71"/>
      <point x="114" y="-133"/>
    </contour>
  </outline>
</glyph>
<glyph name="semicolon" format="1">
  <advance width="408"/>
  <unicode hex="003B"/>
  <outline>
    <contour>
      <point x="254" y="479" type="curve" smooth="yes"/>
      <point x="310" y="479"/>
      <point x="358" y="527"/>
      <point x="358" y="583" type="curve" smooth="yes"/>
      <point x="358" y="592" type="line" smooth="yes"/>
      <point x="358" y="648"/>
      <point x="310" y="696"/>
      <point x="254" y="696" type="curve" smooth="yes"/>
      <point x="198" y="696"/>
      <point x="150" y="648"/>
      <point x="150" y="592" type="curve" smooth="yes"/>
      <point x="150" y="583" type="line" smooth="yes"/>
      <point x="150" y="527"/>
      <point x="198" y="479"/>
    </contour>
    <contour>
      <point x="301" y="285" type="curve" smooth="yes"/>
      <point x="250" y="310"/>
      <point x="186" y="289"/>
      <point x="161" y="239" type="curve" smooth="yes"/>
      <point x="61" y="39" type="line" smooth="yes"/>
      <point x="36" y="-12"/>
      <point x="57" y="-76"/>
      <point x="107" y="-101" type="curve" smooth="yes"/>
      <point x="158" y="-126"/>
      <point x="222" y="-105"/>
      <point x="247" y="-55" type="curve" smooth="yes"/>
      <point x="347" y="145" type="line" smooth="yes"/>
      <point x="372" y="196"/>
      <point x="351" y="260"/>
    </contour>
  </outline>
</glyph>
<glyph name="less" format="1">
  <advance width="404"/>
  <unicode hex="003C"/>
  <outline>
    <contour>
      <point x="202" y="655" type="curve" smooth="yes"/>
      <point x="120" y="655"/>
      <point x="50" y="585"/>
      <point x="50" y="503" type="curve" smooth="yes"/>
      <point x="50" y="103" type="line" smooth="yes"/>
      <point x="50" y="21"/>
      <point x="120" y="-49"/>
      <point x="202" y="-49" type="curve" smooth="yes"/>
      <point x="284" y="-49"/>
      <point x="354" y="21"/>
      <point x="354" y="103" type="curve" smooth="yes"/>
      <point x="354" y="503" type="line" smooth="yes"/>
      <point x="354" y="585"/>
      <point x="284" y="655"/>
    </contour>
  </outline>
</glyph>
<glyph name="equal" format="1">
  <advance width="866"/>
  <unicode hex="003D"/>
  <outline>
    <contour>
      <point x="133" y="355" type="curve" smooth="yes"/>
      <point x="733" y="355" type="line" smooth="yes"/>
      <point x="778" y="355"/>
      <point x="816" y="393"/>
      <point x="816" y="438" type="curve" smooth="yes"/>
      <point x="816" y="483"/>
      <point x="778" y="521"/>
      <point x="733" y="521" type="curve" smooth="yes"/>
      <point x="133" y="521" type="line" smooth="yes"/>
      <point x="88" y="521"/>
      <point x="50" y="483"/>
      <point x="50" y="438" type="curve" smooth="yes"/>
      <point x="50" y="393"/>
      <point x="88" y="355"/>
    </contour>
    <contour>
      <point x="133" y="55" type="curve" smooth="yes"/>
      <point x="733" y="55" type="line" smooth="yes"/>
      <point x="778" y="55"/>
      <point x="816" y="93"/>
      <point x="816" y="138" type="curve" smooth="yes"/>
      <point x="816" y="183"/>
      <point x="778" y="221"/>
      <point x="733" y="221" type="curve" smooth="yes"/>
      <point x="133" y="221" type="line" smooth="yes"/>
      <point x="88" y="221"/>
      <point x="50" y="183"/>
      <point x="50" y="138" type="curve" smooth="yes"/>
      <point x="50" y="93"/>
      <point x="88" y="55"/>
    </contour>
  </outline>
</glyph>
<glyph name="greater" format="1">
  <advance width="721"/>
  <unicode hex="003E"/>
  <outline>
    <contour>
      <point x="268" y="-15" type="curve" smooth="yes"/>
      <point x="428" y="65" type="line"/>
      <point x="534" y="118" type="line" smooth="yes"/>
      <point x="559" y="131"/>
      <point x="589" y="161"/>
      <point x="602" y="186" type="curve" smooth="yes"/>
      <point x="655" y="292" type="line" smooth="yes"/>
      <point x="692" y="367"/>
      <point x="662" y="458"/>
      <point x="588" y="495" type="curve" smooth="yes"/>
      <point x="374" y="602" type="line"/>
      <point x="268" y="655" type="line" smooth="yes"/>
      <point x="195" y="692"/>
      <point x="101" y="660"/>
      <point x="65" y="588" type="curve" smooth="yes"/>
      <point x="28" y="515"/>
      <point x="60" y="421"/>
      <point x="132" y="385" type="curve" smooth="yes"/>
      <point x="262" y="320" type="line"/>
      <point x="186" y="282" type="line"/>
      <point x="132" y="255" type="line" smooth="yes"/>
      <point x="60" y="219"/>
      <point x="28" y="125"/>
      <point x="65" y="52" type="curve" smooth="yes"/>
      <point x="101" y="-20"/>
      <point x="195" y="-52"/>
    </contour>
  </outline>
</glyph>
<glyph name="question" format="1">
  <advance width="820"/>
  <unicode hex="003F"/>
  <outline>
    <contour>
      <point x="358" y="-109" type="curve" smooth="yes"/>
      <point x="417" y="-109"/>
      <point x="467" y="-59"/>
      <point x="467" y="0" type="curve" smooth="yes"/>
      <point x="467" y="11" type="line" smooth="yes"/>
      <point x="467" y="51"/>
      <point x="444" y="86"/>
      <point x="411" y="105" type="curve"/>
      <point x="424" y="112"/>
      <point x="435" y="121"/>
      <point x="444" y="133" type="curve" smooth="yes"/>
      <point x="743" y="515" type="line" smooth="yes"/>
      <point x="797" y="583"/>
      <point x="766" y="669"/>
      <point x="682" y="688" type="curve" smooth="yes"/>
      <point x="202" y="799" type="line" smooth="yes"/>
      <point x="141" y="813"/>
      <point x="82" y="775"/>
      <point x="70" y="714" type="curve" smooth="yes"/>
      <point x="52" y="620" type="line" smooth="yes"/>
      <point x="41" y="562"/>
      <point x="80" y="503"/>
      <point x="138" y="492" type="curve" smooth="yes"/>
      <point x="190" y="482"/>
      <point x="243" y="513"/>
      <point x="261" y="562" type="curve"/>
      <point x="466" y="514" type="line"/>
      <point x="272" y="267" type="line" smooth="yes"/>
      <point x="236" y="221"/>
      <point x="244" y="151"/>
      <point x="291" y="114" type="curve" smooth="yes"/>
      <point x="295" y="111"/>
      <point x="300" y="108"/>
      <point x="304" y="105" type="curve"/>
      <point x="272" y="86"/>
      <point x="249" y="51"/>
      <point x="249" y="11" type="curve" smooth="yes"/>
      <point x="249" y="0" type="line" smooth="yes"/>
      <point x="249" y="-59"/>
      <point x="299" y="-109"/>
    </contour>
  </outline>
</glyph>
<glyph name="at" format="1">
  <advance width="934"/>
  <unicode hex="0040"/>
  <outline>
    <contour>
      <point x="449" y="558" type="curve" smooth="yes"/>
      <point x="449" y="221" type="line"/>
      <point x="328" y="309" type="line"/>
      <point x="371" y="590" type="line"/>
      <point x="452" y="584" type="line"/>
      <point x="450" y="576"/>
      <point x="449" y="567"/>
    </contour>
    <contour>
      <point x="691" y="-121" type="curve" smooth="yes"/>
      <point x="731" y="-66"/>
      <point x="722" y="14"/>
      <point x="671" y="59" type="curve"/>
      <point x="676" y="63"/>
      <point x="681" y="67"/>
      <point x="685" y="72" type="curve"/>
      <point x="763" y="38"/>
      <point x="865" y="88"/>
      <point x="868" y="198" type="curve" smooth="yes"/>
      <point x="884" y="691" type="line" smooth="yes"/>
      <point x="886" y="762"/>
      <point x="831" y="824"/>
      <point x="760" y="829" type="curve" smooth="yes"/>
      <point x="267" y="867" type="line" smooth="yes"/>
      <point x="199" y="872"/>
      <point x="135" y="821"/>
      <point x="124" y="754" type="curve" smooth="yes"/>
      <point x="51" y="269" type="line" smooth="yes"/>
      <point x="44" y="225"/>
      <point x="68" y="167"/>
      <point x="104" y="141" type="curve" smooth="yes"/>
      <point x="504" y="-150" type="line" smooth="yes"/>
      <point x="563" y="-193"/>
      <point x="649" y="-179"/>
    </contour>
  </outline>
</glyph>
<glyph name="A" format="1">
  <advance width="1020"/>
  <unicode hex="0041"/>
  <outline>
    <contour>
      <point x="810" y="-164" type="curve" smooth="yes"/>
      <point x="896" y="-164"/>
      <point x="970" y="-90"/>
      <point x="970" y="-4" type="curve" smooth="yes"/>
      <point x="970" y="543" type="line"/>
      <point x="970" y="601" type="line"/>
      <point x="968" y="660" type="line" smooth="yes"/>
      <point x="968" y="671"/>
      <point x="965" y="687"/>
      <point x="962" y="697" type="curve" smooth="yes"/>
      <point x="947" y="753" type="line" smooth="yes"/>
      <point x="943" y="769"/>
      <point x="931" y="794"/>
      <point x="920" y="807" type="curve" smooth="yes"/>
      <point x="888" y="850" type="line" smooth="yes"/>
      <point x="877" y="864"/>
      <point x="856" y="883"/>
      <point x="840" y="892" type="curve" smooth="yes"/>
      <point x="794" y="919" type="line" smooth="yes"/>
      <point x="783" y="925"/>
      <point x="764" y="933"/>
      <point x="751" y="936" type="curve" smooth="yes"/>
      <point x="698" y="949" type="line" smooth="yes"/>
      <point x="691" y="950"/>
      <point x="678" y="952"/>
      <point x="669" y="953" type="curve" smooth="yes"/>
      <point x="609" y="956" type="line" smooth="yes"/>
      <point x="607" y="956"/>
      <point x="603" y="956"/>
      <point x="601" y="956" type="curve" smooth="yes"/>
      <point x="479" y="956" type="line"/>
      <point x="410" y="956" type="line"/>
      <point x="350" y="953" type="line" smooth="yes"/>
      <point x="342" y="952"/>
      <point x="329" y="951"/>
      <point x="321" y="949" type="curve" smooth="yes"/>
      <point x="268" y="936" type="line" smooth="yes"/>
      <point x="256" y="934"/>
      <point x="237" y="926"/>
      <point x="226" y="920" type="curve" smooth="yes"/>
      <point x="180" y="894" type="line" smooth="yes"/>
      <point x="164" y="885"/>
      <point x="143" y="866"/>
      <point x="132" y="852" type="curve" smooth="yes"/>
      <point x="99" y="810" type="line" smooth="yes"/>
      <point x="89" y="796"/>
      <point x="77" y="771"/>
      <point x="72" y="754" type="curve" smooth="yes"/>
      <point x="57" y="699" type="line" smooth="yes"/>
      <point x="55" y="689"/>
      <point x="52" y="673"/>
      <point x="52" y="663" type="curve" smooth="yes"/>
      <point x="50" y="600" type="line"/>
      <point x="50" y="177" type="line"/>
      <point x="50" y="109" type="line"/>
      <point x="53" y="50" type="line" smooth="yes"/>
      <point x="63" y="-156"/>
      <point x="363" y="-156"/>
      <point x="373" y="50" type="curve" smooth="yes"/>
      <point x="375" y="113" type="line"/>
      <point x="377" y="161" type="line"/>
      <point x="379" y="183" type="line"/>
      <point x="401" y="186" type="line"/>
      <point x="450" y="186" type="line"/>
      <point x="650" y="186" type="line"/>
      <point x="650" y="-4" type="line" smooth="yes"/>
      <point x="650" y="-90"/>
      <point x="724" y="-164"/>
    </contour>
    <contour>
      <point x="374" y="505" type="curve" smooth="yes"/>
      <point x="370" y="504" type="line"/>
      <point x="370" y="600" type="line"/>
      <point x="371" y="632" type="line"/>
      <point x="380" y="634" type="line"/>
      <point x="426" y="636" type="line"/>
      <point x="479" y="636" type="line"/>
      <point x="597" y="636" type="line"/>
      <point x="638" y="634" type="line"/>
      <point x="649" y="631" type="line"/>
      <point x="649" y="631" type="line"/>
      <point x="650" y="591" type="line"/>
      <point x="650" y="543" type="line"/>
      <point x="650" y="506" type="line"/>
      <point x="450" y="506" type="line"/>
      <point x="391" y="506" type="line" smooth="yes"/>
      <point x="386" y="506"/>
      <point x="379" y="505"/>
    </contour>
  </outline>
</glyph>
<glyph name="B" format="1">
  <advance width="870"/>
  <unicode hex="0042"/>
  <outline>
    <contour>
      <point x="361" y="-81" type="curve" smooth="yes"/>
      <point x="538" y="-81" type="line" smooth="yes"/>
      <point x="546" y="-81"/>
      <point x="559" y="-79"/>
      <point x="567" y="-76" type="curve" smooth="yes"/>
      <point x="727" y="-17" type="line" smooth="yes"/>
      <point x="751" y="-9"/>
      <point x="775" y="19"/>
      <point x="781" y="44" type="curve" smooth="yes"/>
      <point x="818" y="214" type="line" smooth="yes"/>
      <point x="822" y="231"/>
      <point x="818" y="258"/>
      <point x="809" y="274" type="curve" smooth="yes"/>
      <point x="742" y="391" type="line"/>
      <point x="761" y="404"/>
      <point x="778" y="426"/>
      <point x="782" y="446" type="curve" smooth="yes"/>
      <point x="818" y="616" type="line" smooth="yes"/>
      <point x="822" y="634"/>
      <point x="817" y="661"/>
      <point x="808" y="677" type="curve" smooth="yes"/>
      <point x="721" y="827" type="line" smooth="yes"/>
      <point x="709" y="847"/>
      <point x="680" y="866"/>
      <point x="657" y="869" type="curve" smooth="yes"/>
      <point x="483" y="888" type="line" smooth="yes"/>
      <point x="480" y="889"/>
      <point x="475" y="889"/>
      <point x="472" y="889" type="curve" smooth="yes"/>
      <point x="298" y="888" type="line" smooth="yes"/>
      <point x="285" y="888"/>
      <point x="266" y="882"/>
      <point x="255" y="876" type="curve" smooth="yes"/>
      <point x="105" y="786" type="line" smooth="yes"/>
      <point x="84" y="774"/>
      <point x="66" y="744"/>
      <point x="64" y="720" type="curve" smooth="yes"/>
      <point x="50" y="545" type="line" smooth="yes"/>
      <point x="50" y="543"/>
      <point x="50" y="541"/>
      <point x="50" y="539" type="curve" smooth="yes"/>
      <point x="50" y="202" type="line" smooth="yes"/>
      <point x="50" y="194"/>
      <point x="52" y="182"/>
      <point x="54" y="175" type="curve" smooth="yes"/>
      <point x="109" y="13" type="line" smooth="yes"/>
      <point x="117" y="-13"/>
      <point x="145" y="-38"/>
      <point x="172" y="-44" type="curve" smooth="yes"/>
      <point x="344" y="-79" type="line" smooth="yes"/>
      <point x="348" y="-80"/>
      <point x="356" y="-81"/>
    </contour>
    <contour>
      <point x="485" y="488" type="line" smooth="yes"/>
      <point x="482" y="489"/>
      <point x="478" y="489"/>
      <point x="475" y="489" type="curve" smooth="yes"/>
      <point x="220" y="489" type="line"/>
      <point x="220" y="535" type="line"/>
      <point x="230" y="663" type="line"/>
      <point x="322" y="718" type="line"/>
      <point x="469" y="719" type="line"/>
      <point x="595" y="705" type="line"/>
      <point x="645" y="619" type="line"/>
      <point x="625" y="528" type="line"/>
      <point x="510" y="485" type="line"/>
    </contour>
    <contour>
      <point x="523" y="89" type="line"/>
      <point x="370" y="89" type="line"/>
      <point x="254" y="113" type="line"/>
      <point x="220" y="216" type="line"/>
      <point x="220" y="319" type="line"/>
      <point x="470" y="319" type="line"/>
      <point x="596" y="304" type="line"/>
      <point x="645" y="218" type="line"/>
      <point x="625" y="126" type="line"/>
    </contour>
  </outline>
</glyph>
<glyph name="C" format="1">
  <advance width="800"/>
  <unicode hex="0043"/>
  <outline>
    <contour>
      <point x="609" y="-26" type="curve" smooth="yes"/>
      <point x="741" y="170" type="line" smooth="yes"/>
      <point x="757" y="192"/>
      <point x="750" y="224"/>
      <point x="728" y="239" type="curve" smooth="yes"/>
      <point x="706" y="255"/>
      <point x="674" y="248"/>
      <point x="659" y="226" type="curve" smooth="yes"/>
      <point x="551" y="67" type="line"/>
      <point x="156" y="282" type="line"/>
      <point x="234" y="715" type="line"/>
      <point x="683" y="551" type="line" smooth="yes"/>
      <point x="708" y="542"/>
      <point x="738" y="555"/>
      <point x="747" y="581" type="curve" smooth="yes"/>
      <point x="756" y="606"/>
      <point x="743" y="636"/>
      <point x="717" y="645" type="curve" smooth="yes"/>
      <point x="212" y="830" type="line" smooth="yes"/>
      <point x="182" y="841"/>
      <point x="151" y="823"/>
      <point x="146" y="792" type="curve" smooth="yes"/>
      <point x="51" y="264" type="line" smooth="yes"/>
      <point x="47" y="245"/>
      <point x="59" y="221"/>
      <point x="76" y="211" type="curve" smooth="yes"/>
      <point x="543" y="-42" type="line" smooth="yes"/>
      <point x="565" y="-54"/>
      <point x="595" y="-47"/>
    </contour>
  </outline>
</glyph>
<glyph name="D" format="1">
  <advance width="891"/>
  <unicode hex="0044"/>
  <outline>
    <contour>
      <point x="344" y="-92" type="curve" smooth="yes"/>
      <point x="769" y="43" type="line" smooth="yes"/>
      <point x="805" y="54"/>
      <point x="835" y="95"/>
      <point x="836" y="133" type="curve" smooth="yes"/>
      <point x="841" y="578" type="line"/>
      <point x="841" y="589" type="line" smooth="yes"/>
      <point x="841" y="592"/>
      <point x="841" y="595"/>
      <point x="841" y="598" type="curve"/>
      <point x="841" y="632"/>
      <point x="822" y="668"/>
      <point x="788" y="685" type="curve" smooth="yes"/>
      <point x="390" y="885" type="line" smooth="yes"/>
      <point x="343" y="908"/>
      <point x="286" y="890"/>
      <point x="262" y="843" type="curve" smooth="yes"/>
      <point x="60" y="453" type="line" smooth="yes"/>
      <point x="48" y="431"/>
      <point x="47" y="395"/>
      <point x="56" y="372" type="curve" smooth="yes"/>
      <point x="226" y="-38" type="line" smooth="yes"/>
      <point x="245" y="-83"/>
      <point x="298" y="-107"/>
    </contour>
    <contour>
      <point x="370" y="117" type="line"/>
      <point x="251" y="405" type="line"/>
      <point x="388" y="671" type="line"/>
      <point x="649" y="540" type="line"/>
      <point x="644" y="205" type="line"/>
    </contour>
  </outline>
</glyph>
<glyph name="E" format="1">
  <advance width="1002"/>
  <unicode hex="0045"/>
  <outline>
    <contour>
      <point x="710" y="-108" type="curve" smooth="yes"/>
      <point x="908" y="88" type="line" smooth="yes"/>
      <point x="966" y="146"/>
      <point x="967" y="245"/>
      <point x="909" y="303" type="curve" smooth="yes"/>
      <point x="851" y="361"/>
      <point x="752" y="362"/>
      <point x="694" y="304" type="curve" smooth="yes"/>
      <point x="575" y="187" type="line"/>
      <point x="365" y="300" type="line"/>
      <point x="396" y="569" type="line"/>
      <point x="755" y="457" type="line" smooth="yes"/>
      <point x="833" y="432"/>
      <point x="921" y="478"/>
      <point x="945" y="557" type="curve" smooth="yes"/>
      <point x="970" y="635"/>
      <point x="924" y="723"/>
      <point x="845" y="747" type="curve" smooth="yes"/>
      <point x="311" y="914" type="line" smooth="yes"/>
      <point x="216" y="944"/>
      <point x="126" y="885"/>
      <point x="115" y="786" type="curve" smooth="yes"/>
      <point x="51" y="232" type="line" smooth="yes"/>
      <point x="45" y="176"/>
      <point x="80" y="108"/>
      <point x="130" y="81" type="curve" smooth="yes"/>
      <point x="529" y="-134" type="line" smooth="yes"/>
      <point x="555" y="-148"/>
      <point x="584" y="-153"/>
      <point x="613" y="-151" type="curve"/>
      <point x="648" y="-149"/>
      <point x="683" y="-134"/>
    </contour>
  </outline>
</glyph>
<glyph name="F" format="1">
  <advance width="927"/>
  <unicode hex="0046"/>
  <outline>
    <contour>
      <point x="278" y="-1" type="curve" smooth="yes"/>
      <point x="278" y="89" type="line"/>
      <point x="279" y="156" type="line"/>
      <point x="280" y="219" type="line"/>
      <point x="287" y="255" type="line"/>
      <point x="296" y="270" type="line"/>
      <point x="313" y="280" type="line"/>
      <point x="353" y="284" type="line"/>
      <point x="418" y="285" type="line"/>
      <point x="488" y="285" type="line"/>
      <point x="558" y="286" type="line" smooth="yes"/>
      <point x="708" y="288"/>
      <point x="708" y="513"/>
      <point x="558" y="514" type="curve" smooth="yes"/>
      <point x="488" y="515" type="line"/>
      <point x="419" y="515" type="line"/>
      <point x="353" y="516" type="line"/>
      <point x="311" y="520" type="line"/>
      <point x="294" y="528" type="line"/>
      <point x="286" y="542" type="line"/>
      <point x="279" y="577" type="line"/>
      <point x="279" y="624" type="line"/>
      <point x="285" y="659" type="line"/>
      <point x="294" y="671" type="line"/>
      <point x="315" y="681" type="line"/>
      <point x="352" y="686" type="line"/>
      <point x="402" y="686" type="line"/>
      <point x="539" y="686" type="line"/>
      <point x="597" y="685" type="line"/>
      <point x="623" y="679" type="line"/>
      <point x="635" y="668" type="line"/>
      <point x="645" y="642" type="line"/>
      <point x="649" y="592" type="line" smooth="yes"/>
      <point x="655" y="531"/>
      <point x="711" y="483"/>
      <point x="773" y="488" type="curve" smooth="yes"/>
      <point x="834" y="494"/>
      <point x="882" y="550"/>
      <point x="877" y="612" type="curve" smooth="yes"/>
      <point x="871" y="677" type="line" smooth="yes"/>
      <point x="870" y="685"/>
      <point x="867" y="699"/>
      <point x="864" y="707" type="curve" smooth="yes"/>
      <point x="839" y="775" type="line" smooth="yes"/>
      <point x="833" y="790"/>
      <point x="819" y="811"/>
      <point x="807" y="821" type="curve" smooth="yes"/>
      <point x="751" y="869" type="line" smooth="yes"/>
      <point x="740" y="879"/>
      <point x="718" y="890"/>
      <point x="703" y="894" type="curve" smooth="yes"/>
      <point x="639" y="909" type="line" smooth="yes"/>
      <point x="632" y="911"/>
      <point x="621" y="912"/>
      <point x="614" y="913" type="curve" smooth="yes"/>
      <point x="543" y="914" type="line"/>
      <point x="402" y="914" type="line"/>
      <point x="343" y="914" type="line" smooth="yes"/>
      <point x="339" y="914"/>
      <point x="333" y="913"/>
      <point x="329" y="913" type="curve" smooth="yes"/>
      <point x="268" y="905" type="line" smooth="yes"/>
      <point x="259" y="903"/>
      <point x="245" y="899"/>
      <point x="236" y="895" type="curve" smooth="yes"/>
      <point x="174" y="867" type="line" smooth="yes"/>
      <point x="159" y="860"/>
      <point x="139" y="844"/>
      <point x="129" y="831" type="curve" smooth="yes"/>
      <point x="86" y="774" type="line" smooth="yes"/>
      <point x="77" y="762"/>
      <point x="68" y="741"/>
      <point x="65" y="726" type="curve" smooth="yes"/>
      <point x="52" y="654" type="line" smooth="yes"/>
      <point x="51" y="648"/>
      <point x="50" y="638"/>
      <point x="50" y="632" type="curve" smooth="yes"/>
      <point x="51" y="563" type="line" smooth="yes"/>
      <point x="51" y="558"/>
      <point x="52" y="549"/>
      <point x="53" y="543" type="curve" smooth="yes"/>
      <point x="66" y="477" type="line" smooth="yes"/>
      <point x="69" y="466"/>
      <point x="75" y="448"/>
      <point x="82" y="438" type="curve" smooth="yes"/>
      <point x="107" y="398" type="line"/>
      <point x="82" y="356" type="line" smooth="yes"/>
      <point x="76" y="347"/>
      <point x="69" y="330"/>
      <point x="67" y="319" type="curve" smooth="yes"/>
      <point x="54" y="253" type="line" smooth="yes"/>
      <point x="53" y="247"/>
      <point x="52" y="239"/>
      <point x="52" y="233" type="curve" smooth="yes"/>
      <point x="51" y="161" type="line"/>
      <point x="50" y="90" type="line"/>
      <point x="50" y="1" type="line" smooth="yes"/>
      <point x="50" y="-61"/>
      <point x="102" y="-114"/>
      <point x="163" y="-114" type="curve" smooth="yes"/>
      <point x="225" y="-114"/>
      <point x="278" y="-62"/>
    </contour>
  </outline>
</glyph>
<glyph name="G" format="1">
  <advance width="896"/>
  <unicode hex="0047"/>
  <outline>
    <contour>
      <point x="630" y="-86" type="line" smooth="yes"/>
      <point x="667" y="-85"/>
      <point x="708" y="-57"/>
      <point x="721" y="-22" type="curve" smooth="yes"/>
      <point x="840" y="300" type="line" smooth="yes"/>
      <point x="860" y="354"/>
      <point x="831" y="411"/>
      <point x="776" y="428" type="curve" smooth="yes"/>
      <point x="489" y="514" type="line"/>
      <point x="439" y="640" type="line" smooth="yes"/>
      <point x="434" y="653"/>
      <point x="426" y="665"/>
      <point x="416" y="674" type="curve"/>
      <point x="455" y="692" type="line"/>
      <point x="691" y="524" type="line" smooth="yes"/>
      <point x="734" y="493"/>
      <point x="797" y="504"/>
      <point x="828" y="547" type="curve" smooth="yes"/>
      <point x="859" y="590"/>
      <point x="848" y="653"/>
      <point x="805" y="684" type="curve" smooth="yes"/>
      <point x="523" y="884" type="line" smooth="yes"/>
      <point x="497" y="902"/>
      <point x="454" y="906"/>
      <point x="426" y="893" type="curve" smooth="yes"/>
      <point x="110" y="752" type="line" smooth="yes"/>
      <point x="78" y="738"/>
      <point x="52" y="698"/>
      <point x="52" y="663" type="curve" smooth="yes"/>
      <point x="50" y="325" type="line" smooth="yes"/>
      <point x="50" y="313"/>
      <point x="54" y="295"/>
      <point x="58" y="285" type="curve" smooth="yes"/>
      <point x="195" y="-30" type="line" smooth="yes"/>
      <point x="210" y="-63"/>
      <point x="250" y="-89"/>
      <point x="286" y="-89" type="curve" smooth="yes"/>
    </contour>
    <contour>
      <point x="257" y="568" type="curve" smooth="yes"/>
      <point x="324" y="398" type="line" smooth="yes"/>
      <point x="333" y="374"/>
      <point x="361" y="348"/>
      <point x="387" y="340" type="curve" smooth="yes"/>
      <point x="620" y="270" type="line"/>
      <point x="560" y="110" type="line"/>
      <point x="349" y="108" type="line"/>
      <point x="246" y="344" type="line"/>
      <point x="248" y="599" type="line"/>
      <point x="250" y="600" type="line"/>
      <point x="251" y="589"/>
      <point x="253" y="578"/>
    </contour>
  </outline>
</glyph>
<glyph name="H" format="1">
  <advance width="898"/>
  <unicode hex="0048"/>
  <outline>
    <contour>
      <point x="749" y="-103" type="curve" smooth="yes"/>
      <point x="802" y="-103"/>
      <point x="848" y="-57"/>
      <point x="848" y="-4" type="curve" smooth="yes"/>
      <point x="848" y="566" type="line" smooth="yes"/>
      <point x="848" y="640"/>
      <point x="783" y="685"/>
      <point x="714" y="659" type="curve" smooth="yes"/>
      <point x="296" y="501" type="line"/>
      <point x="247" y="812" type="line" smooth="yes"/>
      <point x="238" y="864"/>
      <point x="186" y="902"/>
      <point x="133" y="894" type="curve" smooth="yes"/>
      <point x="81" y="885"/>
      <point x="43" y="833"/>
      <point x="51" y="780" type="curve" smooth="yes"/>
      <point x="120" y="350" type="line" smooth="yes"/>
      <point x="130" y="285"/>
      <point x="191" y="250"/>
      <point x="253" y="273" type="curve" smooth="yes"/>
      <point x="650" y="423" type="line"/>
      <point x="650" y="-4" type="line" smooth="yes"/>
      <point x="650" y="-57"/>
      <point x="696" y="-103"/>
    </contour>
  </outline>
</glyph>
<glyph name="I" format="1">
  <advance width="881"/>
  <unicode hex="0049"/>
  <outline>
    <contour>
      <point x="141" y="-92" type="curve" smooth="yes"/>
      <point x="661" y="-92" type="line" smooth="yes"/>
      <point x="733" y="-92"/>
      <point x="774" y="-28"/>
      <point x="743" y="38" type="curve" smooth="yes"/>
      <point x="549" y="453" type="line"/>
      <point x="808" y="738" type="line" smooth="yes"/>
      <point x="841" y="774"/>
      <point x="839" y="833"/>
      <point x="802" y="866" type="curve" smooth="yes"/>
      <point x="766" y="899"/>
      <point x="707" y="897"/>
      <point x="674" y="860" type="curve" smooth="yes"/>
      <point x="374" y="531" type="line" smooth="yes"/>
      <point x="351" y="506"/>
      <point x="344" y="461"/>
      <point x="359" y="431" type="curve" smooth="yes"/>
      <point x="518" y="90" type="line"/>
      <point x="141" y="90" type="line" smooth="yes"/>
      <point x="92" y="90"/>
      <point x="50" y="48"/>
      <point x="50" y="-1" type="curve" smooth="yes"/>
      <point x="50" y="-50"/>
      <point x="92" y="-92"/>
    </contour>
  </outline>
</glyph>
<glyph name="J" format="1">
  <advance width="944"/>
  <unicode hex="004A"/>
  <outline>
    <contour>
      <point x="176" y="-123" type="curve" smooth="yes"/>
      <point x="341" y="-118" type="line" smooth="yes"/>
      <point x="387" y="-116"/>
      <point x="437" y="-79"/>
      <point x="452" y="-35" type="curve" smooth="yes"/>
      <point x="587" y="359" type="line" smooth="yes"/>
      <point x="594" y="380"/>
      <point x="595" y="413"/>
      <point x="589" y="434" type="curve" smooth="yes"/>
      <point x="516" y="677" type="line"/>
      <point x="772" y="677" type="line" smooth="yes"/>
      <point x="838" y="677"/>
      <point x="894" y="733"/>
      <point x="894" y="799" type="curve" smooth="yes"/>
      <point x="894" y="865"/>
      <point x="838" y="921"/>
      <point x="772" y="921" type="curve" smooth="yes"/>
      <point x="352" y="921" type="line" smooth="yes"/>
      <point x="265" y="921"/>
      <point x="210" y="847"/>
      <point x="235" y="764" type="curve" smooth="yes"/>
      <point x="344" y="401" type="line"/>
      <point x="249" y="124" type="line"/>
      <point x="168" y="121" type="line" smooth="yes"/>
      <point x="102" y="119"/>
      <point x="48" y="61"/>
      <point x="50" y="-5" type="curve" smooth="yes"/>
      <point x="52" y="-71"/>
      <point x="110" y="-125"/>
    </contour>
  </outline>
</glyph>
<glyph name="K" format="1">
  <advance width="846"/>
  <unicode hex="004B"/>
  <outline>
    <contour>
      <point x="747" y="-65" type="curve" smooth="yes"/>
      <point x="785" y="-52"/>
      <point x="805" y="-9"/>
      <point x="792" y="28" type="curve" smooth="yes"/>
      <point x="673" y="362" type="line"/>
      <point x="681" y="366"/>
      <point x="687" y="371"/>
      <point x="692" y="376" type="curve" smooth="yes"/>
      <point x="768" y="465" type="line" smooth="yes"/>
      <point x="777" y="475"/>
      <point x="785" y="494"/>
      <point x="786" y="507" type="curve" smooth="yes"/>
      <point x="795" y="618" type="line"/>
      <point x="796" y="734" type="line"/>
      <point x="796" y="804" type="line" smooth="yes"/>
      <point x="796" y="843"/>
      <point x="763" y="877"/>
      <point x="723" y="877" type="curve" smooth="yes"/>
      <point x="684" y="877"/>
      <point x="650" y="844"/>
      <point x="650" y="804" type="curve" smooth="yes"/>
      <point x="650" y="734" type="line"/>
      <point x="649" y="630" type="line"/>
      <point x="642" y="542" type="line"/>
      <point x="598" y="491" type="line"/>
      <point x="510" y="476" type="line" smooth="yes"/>
      <point x="498" y="474"/>
      <point x="488" y="469"/>
      <point x="479" y="462" type="curve"/>
      <point x="228" y="428" type="line"/>
      <point x="196" y="767" type="line"/>
      <point x="196" y="804" type="line" smooth="yes"/>
      <point x="196" y="843"/>
      <point x="162" y="877"/>
      <point x="123" y="877" type="curve" smooth="yes"/>
      <point x="84" y="877"/>
      <point x="50" y="843"/>
      <point x="50" y="804" type="curve" smooth="yes"/>
      <point x="50" y="764" type="line" smooth="yes"/>
      <point x="50" y="762"/>
      <point x="50" y="759"/>
      <point x="50" y="757" type="curve" smooth="yes"/>
      <point x="90" y="338" type="line" smooth="yes"/>
      <point x="94" y="297"/>
      <point x="131" y="267"/>
      <point x="172" y="273" type="curve" smooth="yes"/>
      <point x="533" y="322" type="line"/>
      <point x="654" y="-20" type="line" smooth="yes"/>
      <point x="667" y="-58"/>
      <point x="710" y="-78"/>
    </contour>
  </outline>
</glyph>
<glyph name="L" format="1">
  <advance width="976"/>
  <unicode hex="004C"/>
  <outline>
    <contour>
      <point x="588" y="-138" type="curve" smooth="yes"/>
      <point x="788" y="-138" type="line" smooth="yes"/>
      <point x="863" y="-138"/>
      <point x="926" y="-75"/>
      <point x="926" y="0" type="curve" smooth="yes"/>
      <point x="926" y="75"/>
      <point x="863" y="138"/>
      <point x="788" y="138" type="curve" smooth="yes"/>
      <point x="634" y="138" type="line"/>
      <point x="326" y="369" type="line"/>
      <point x="326" y="800" type="line" smooth="yes"/>
      <point x="326" y="875"/>
      <point x="263" y="938"/>
      <point x="188" y="938" type="curve" smooth="yes"/>
      <point x="113" y="938"/>
      <point x="50" y="875"/>
      <point x="50" y="800" type="curve" smooth="yes"/>
      <point x="50" y="300" type="line" smooth="yes"/>
      <point x="50" y="262"/>
      <point x="75" y="212"/>
      <point x="105" y="190" type="curve" smooth="yes"/>
      <point x="505" y="-110" type="line" smooth="yes"/>
      <point x="526" y="-126"/>
      <point x="563" y="-138"/>
    </contour>
  </outline>
</glyph>
<glyph name="M" format="1">
  <advance width="972"/>
  <unicode hex="004D"/>
  <outline>
    <contour>
      <point x="786" y="-137" type="curve" smooth="yes"/>
      <point x="859" y="-137"/>
      <point x="922" y="-74"/>
      <point x="922" y="-1" type="curve" smooth="yes"/>
      <point x="922" y="659" type="line" smooth="yes"/>
      <point x="922" y="697"/>
      <point x="897" y="747"/>
      <point x="866" y="769" type="curve" smooth="yes"/>
      <point x="683" y="902" type="line" smooth="yes"/>
      <point x="615" y="950"/>
      <point x="526" y="931"/>
      <point x="485" y="859" type="curve" smooth="yes"/>
      <point x="483" y="855" type="line"/>
      <point x="477" y="864" type="line" smooth="yes"/>
      <point x="432" y="937"/>
      <point x="340" y="953"/>
      <point x="274" y="898" type="curve" smooth="yes"/>
      <point x="99" y="754" type="line" smooth="yes"/>
      <point x="72" y="731"/>
      <point x="50" y="684"/>
      <point x="50" y="649" type="curve" smooth="yes"/>
      <point x="50" y="-1" type="line" smooth="yes"/>
      <point x="50" y="-74"/>
      <point x="113" y="-137"/>
      <point x="186" y="-137" type="curve" smooth="yes"/>
      <point x="259" y="-137"/>
      <point x="322" y="-74"/>
      <point x="322" y="-1" type="curve" smooth="yes"/>
      <point x="322" y="585" type="line"/>
      <point x="326" y="588" type="line"/>
      <point x="345" y="558" type="line"/>
      <point x="352" y="374" type="line" smooth="yes"/>
      <point x="359" y="197"/>
      <point x="620" y="199"/>
      <point x="624" y="376" type="curve" smooth="yes"/>
      <point x="628" y="561" type="line"/>
      <point x="646" y="592" type="line"/>
      <point x="650" y="589" type="line"/>
      <point x="650" y="-1" type="line" smooth="yes"/>
      <point x="650" y="-74"/>
      <point x="713" y="-137"/>
    </contour>
  </outline>
</glyph>
<glyph name="N" format="1">
  <advance width="814"/>
  <unicode hex="004E"/>
  <outline>
    <contour>
      <point x="164" y="-1" type="curve" smooth="yes"/>
      <point x="164" y="584" type="line"/>
      <point x="192" y="733" type="line"/>
      <point x="306" y="712" type="line"/>
      <point x="350" y="551" type="line"/>
      <point x="350" y="348" type="line"/>
      <point x="355" y="133" type="line" smooth="yes"/>
      <point x="356" y="118"/>
      <point x="365" y="99"/>
      <point x="376" y="90" type="curve" smooth="yes"/>
      <point x="543" y="-45" type="line" smooth="yes"/>
      <point x="568" y="-66"/>
      <point x="605" y="-61"/>
      <point x="624" y="-35" type="curve" smooth="yes"/>
      <point x="753" y="135" type="line" smooth="yes"/>
      <point x="759" y="143"/>
      <point x="764" y="158"/>
      <point x="764" y="169" type="curve" smooth="yes"/>
      <point x="764" y="799" type="line" smooth="yes"/>
      <point x="764" y="830"/>
      <point x="738" y="856"/>
      <point x="707" y="856" type="curve" smooth="yes"/>
      <point x="676" y="856"/>
      <point x="650" y="830"/>
      <point x="650" y="799" type="curve" smooth="yes"/>
      <point x="650" y="188" type="line"/>
      <point x="569" y="81" type="line"/>
      <point x="469" y="162" type="line"/>
      <point x="464" y="350" type="line"/>
      <point x="464" y="559" type="line" smooth="yes"/>
      <point x="464" y="563"/>
      <point x="463" y="570"/>
      <point x="462" y="574" type="curve" smooth="yes"/>
      <point x="406" y="777" type="line" smooth="yes"/>
      <point x="401" y="796"/>
      <point x="381" y="814"/>
      <point x="362" y="818" type="curve" smooth="yes"/>
      <point x="157" y="855" type="line" smooth="yes"/>
      <point x="127" y="861"/>
      <point x="97" y="840"/>
      <point x="91" y="810" type="curve" smooth="yes"/>
      <point x="51" y="600" type="line" smooth="yes"/>
      <point x="50" y="597"/>
      <point x="50" y="592"/>
      <point x="50" y="589" type="curve" smooth="yes"/>
      <point x="50" y="-1" type="line" smooth="yes"/>
      <point x="50" y="-32"/>
      <point x="76" y="-58"/>
      <point x="107" y="-58" type="curve" smooth="yes"/>
      <point x="138" y="-58"/>
      <point x="164" y="-32"/>
    </contour>
  </outline>
</glyph>
<glyph name="O" format="1">
  <advance width="869"/>
  <unicode hex="004F"/>
  <outline>
    <contour>
      <point x="528" y="83" type="line" smooth="yes"/>
      <point x="348" y="83" type="line"/>
      <point x="299" y="86" type="line"/>
      <point x="258" y="96" type="line"/>
      <point x="237" y="111" type="line"/>
      <point x="225" y="135" type="line"/>
      <point x="218" y="177" type="line"/>
      <point x="218" y="239" type="line"/>
      <point x="218" y="539" type="line"/>
      <point x="218" y="600" type="line"/>
      <point x="221" y="655" type="line"/>
      <point x="233" y="684" type="line"/>
      <point x="256" y="702" type="line"/>
      <point x="295" y="713" type="line"/>
      <point x="342" y="715" type="line"/>
      <point x="463" y="715" type="line"/>
      <point x="519" y="715" type="line"/>
      <point x="570" y="712" type="line"/>
      <point x="611" y="702" type="line"/>
      <point x="632" y="687" type="line"/>
      <point x="644" y="663" type="line"/>
      <point x="651" y="621" type="line"/>
      <point x="651" y="559" type="line"/>
      <point x="651" y="259" type="line"/>
      <point x="651" y="203" type="line"/>
      <point x="648" y="148" type="line"/>
      <point x="638" y="116" type="line"/>
      <point x="618" y="98" type="line"/>
      <point x="586" y="87" type="line"/>
      <point x="533" y="83" type="line"/>
    </contour>
    <contour>
      <point x="528" y="-85" type="line" smooth="yes"/>
      <point x="530" y="-85"/>
      <point x="531" y="-85"/>
      <point x="533" y="-85" type="curve"/>
      <point x="537" y="-85"/>
      <point x="541" y="-85"/>
      <point x="545" y="-85" type="curve" smooth="yes"/>
      <point x="610" y="-79" type="line" smooth="yes"/>
      <point x="615" y="-79"/>
      <point x="624" y="-77"/>
      <point x="629" y="-75" type="curve" smooth="yes"/>
      <point x="688" y="-56" type="line" smooth="yes"/>
      <point x="697" y="-53"/>
      <point x="711" y="-45"/>
      <point x="718" y="-38" type="curve" smooth="yes"/>
      <point x="767" y="7" type="line" smooth="yes"/>
      <point x="775" y="15"/>
      <point x="786" y="30"/>
      <point x="789" y="41" type="curve" smooth="yes"/>
      <point x="811" y="104" type="line" smooth="yes"/>
      <point x="813" y="111"/>
      <point x="815" y="121"/>
      <point x="816" y="128" type="curve" smooth="yes"/>
      <point x="819" y="195" type="line"/>
      <point x="819" y="259" type="line"/>
      <point x="819" y="559" type="line"/>
      <point x="819" y="627" type="line" smooth="yes"/>
      <point x="819" y="631"/>
      <point x="818" y="636"/>
      <point x="818" y="639" type="curve" smooth="yes"/>
      <point x="808" y="703" type="line" smooth="yes"/>
      <point x="807" y="711"/>
      <point x="803" y="723"/>
      <point x="799" y="731" type="curve" smooth="yes"/>
      <point x="770" y="784" type="line" smooth="yes"/>
      <point x="765" y="793"/>
      <point x="754" y="806"/>
      <point x="745" y="812" type="curve" smooth="yes"/>
      <point x="696" y="847" type="line" smooth="yes"/>
      <point x="689" y="852"/>
      <point x="677" y="858"/>
      <point x="669" y="860" type="curve" smooth="yes"/>
      <point x="605" y="877" type="line" smooth="yes"/>
      <point x="600" y="878"/>
      <point x="592" y="880"/>
      <point x="587" y="880" type="curve" smooth="yes"/>
      <point x="527" y="883" type="line"/>
      <point x="463" y="883" type="line"/>
      <point x="342" y="883" type="line"/>
      <point x="277" y="880" type="line" smooth="yes"/>
      <point x="272" y="880"/>
      <point x="265" y="878"/>
      <point x="260" y="877" type="curve" smooth="yes"/>
      <point x="196" y="860" type="line" smooth="yes"/>
      <point x="187" y="857"/>
      <point x="173" y="851"/>
      <point x="166" y="845" type="curve" smooth="yes"/>
      <point x="112" y="802" type="line" smooth="yes"/>
      <point x="103" y="795"/>
      <point x="91" y="779"/>
      <point x="86" y="768" type="curve" smooth="yes"/>
      <point x="61" y="706" type="line" smooth="yes"/>
      <point x="58" y="699"/>
      <point x="55" y="687"/>
      <point x="55" y="679" type="curve" smooth="yes"/>
      <point x="50" y="611" type="line"/>
      <point x="50" y="539" type="line"/>
      <point x="50" y="239" type="line"/>
      <point x="50" y="171" type="line" smooth="yes"/>
      <point x="50" y="167"/>
      <point x="51" y="162"/>
      <point x="51" y="159" type="curve" smooth="yes"/>
      <point x="61" y="95" type="line" smooth="yes"/>
      <point x="62" y="87"/>
      <point x="66" y="75"/>
      <point x="70" y="67" type="curve" smooth="yes"/>
      <point x="99" y="14" type="line" smooth="yes"/>
      <point x="104" y="5"/>
      <point x="115" y="-8"/>
      <point x="124" y="-14" type="curve" smooth="yes"/>
      <point x="173" y="-49" type="line" smooth="yes"/>
      <point x="180" y="-54"/>
      <point x="192" y="-60"/>
      <point x="200" y="-62" type="curve" smooth="yes"/>
      <point x="264" y="-79" type="line" smooth="yes"/>
      <point x="269" y="-80"/>
      <point x="277" y="-82"/>
      <point x="282" y="-82" type="curve" smooth="yes"/>
      <point x="342" y="-85" type="line" smooth="yes"/>
      <point x="343" y="-85"/>
      <point x="345" y="-85"/>
      <point x="346" y="-85" type="curve" smooth="yes"/>
    </contour>
  </outline>
</glyph>
<glyph name="P" format="1">
  <advance width="957"/>
  <unicode hex="0050"/>
  <outline>
    <contour>
      <point x="179" y="-126" type="curve" smooth="yes"/>
      <point x="249" y="-126"/>
      <point x="308" y="-67"/>
      <point x="308" y="3" type="curve" smooth="yes"/>
      <point x="308" y="50" type="line"/>
      <point x="421" y="178" type="line"/>
      <point x="632" y="181" type="line" smooth="yes"/>
      <point x="671" y="182"/>
      <point x="719" y="208"/>
      <point x="739" y="241" type="curve" smooth="yes"/>
      <point x="889" y="476" type="line" smooth="yes"/>
      <point x="910" y="510"/>
      <point x="913" y="567"/>
      <point x="896" y="603" type="curve" smooth="yes"/>
      <point x="772" y="852" type="line" smooth="yes"/>
      <point x="753" y="890"/>
      <point x="703" y="922"/>
      <point x="660" y="924" type="curve" smooth="yes"/>
      <point x="381" y="932" type="line" smooth="yes"/>
      <point x="351" y="933"/>
      <point x="308" y="916"/>
      <point x="287" y="895" type="curve" smooth="yes"/>
      <point x="89" y="702" type="line" smooth="yes"/>
      <point x="67" y="681"/>
      <point x="50" y="640"/>
      <point x="50" y="610" type="curve" smooth="yes"/>
      <point x="50" y="333" type="line"/>
      <point x="50" y="3" type="line" smooth="yes"/>
      <point x="50" y="-67"/>
      <point x="109" y="-126"/>
    </contour>
    <contour>
      <point x="360" y="436" type="line" smooth="yes"/>
      <point x="344" y="435"/>
      <point x="325" y="430"/>
      <point x="308" y="422" type="curve"/>
      <point x="308" y="555" type="line"/>
      <point x="428" y="672" type="line"/>
      <point x="575" y="668" type="line"/>
      <point x="632" y="553" type="line"/>
      <point x="559" y="438" type="line"/>
    </contour>
  </outline>
</glyph>
<glyph name="Q" format="1">
  <advance width="937"/>
  <unicode hex="0051"/>
  <outline>
    <contour>
      <point x="519" y="-119" type="curve" smooth="yes"/>
      <point x="559" y="-119" type="line" smooth="yes"/>
      <point x="563" y="-119"/>
      <point x="568" y="-119"/>
      <point x="572" y="-118" type="curve"/>
      <point x="607" y="-117"/>
      <point x="641" y="-102"/>
      <point x="663" y="-73" type="curve" smooth="yes"/>
      <point x="863" y="187" type="line" smooth="yes"/>
      <point x="876" y="205"/>
      <point x="887" y="237"/>
      <point x="887" y="259" type="curve" smooth="yes"/>
      <point x="887" y="589" type="line" smooth="yes"/>
      <point x="887" y="620"/>
      <point x="868" y="660"/>
      <point x="844" y="680" type="curve" smooth="yes"/>
      <point x="592" y="890" type="line" smooth="yes"/>
      <point x="568" y="910"/>
      <point x="523" y="921"/>
      <point x="492" y="914" type="curve" smooth="yes"/>
      <point x="168" y="844" type="line" smooth="yes"/>
      <point x="121" y="834"/>
      <point x="79" y="786"/>
      <point x="75" y="738" type="curve" smooth="yes"/>
      <point x="50" y="408" type="line" smooth="yes"/>
      <point x="50" y="403"/>
      <point x="50" y="394"/>
      <point x="50" y="388" type="curve" smooth="yes"/>
      <point x="81" y="55" type="line" smooth="yes"/>
      <point x="85" y="7"/>
      <point x="127" y="-40"/>
      <point x="174" y="-50" type="curve" smooth="yes"/>
      <point x="495" y="-117" type="line" smooth="yes"/>
      <point x="501" y="-118"/>
      <point x="512" y="-119"/>
    </contour>
    <contour>
      <point x="514" y="121" type="line"/>
      <point x="308" y="164" type="line"/>
      <point x="286" y="400" type="line"/>
      <point x="304" y="632" type="line"/>
      <point x="485" y="672" type="line"/>
      <point x="651" y="534" type="line"/>
      <point x="651" y="299" type="line"/>
    </contour>
  </outline>
</glyph>
<glyph name="R" format="1">
  <advance width="937"/>
  <unicode hex="0052"/>
  <outline>
    <contour>
      <point x="286" y="476" type="line"/>
      <point x="286" y="591" type="line"/>
      <point x="298" y="651" type="line"/>
      <point x="336" y="674" type="line"/>
      <point x="426" y="678" type="line"/>
      <point x="547" y="678" type="line"/>
      <point x="619" y="666" type="line"/>
      <point x="646" y="634" type="line"/>
      <point x="651" y="554" type="line"/>
      <point x="648" y="466" type="line"/>
      <point x="622" y="427" type="line"/>
      <point x="557" y="414" type="line"/>
      <point x="286" y="414" type="line"/>
    </contour>
    <contour>
      <point x="286" y="-4" type="curve" smooth="yes"/>
      <point x="286" y="178" type="line"/>
      <point x="368" y="178" type="line" smooth="yes"/>
      <point x="368" y="178" type="line"/>
      <point x="546" y="178" type="line"/>
      <point x="641" y="128" type="line"/>
      <point x="651" y="-13" type="line" smooth="yes"/>
      <point x="656" y="-76"/>
      <point x="714" y="-126"/>
      <point x="778" y="-122" type="curve" smooth="yes"/>
      <point x="841" y="-117"/>
      <point x="891" y="-59"/>
      <point x="887" y="5" type="curve" smooth="yes"/>
      <point x="871" y="210" type="line" smooth="yes"/>
      <point x="869" y="242"/>
      <point x="847" y="278"/>
      <point x="820" y="298" type="curve"/>
      <point x="864" y="363" type="line" smooth="yes"/>
      <point x="874" y="379"/>
      <point x="883" y="407"/>
      <point x="883" y="425" type="curve" smooth="yes"/>
      <point x="887" y="553" type="line" smooth="yes"/>
      <point x="887" y="556"/>
      <point x="887" y="560"/>
      <point x="887" y="563" type="curve" smooth="yes"/>
      <point x="879" y="687" type="line" smooth="yes"/>
      <point x="878" y="708"/>
      <point x="866" y="738"/>
      <point x="852" y="755" type="curve" smooth="yes"/>
      <point x="772" y="851" type="line" smooth="yes"/>
      <point x="756" y="870"/>
      <point x="724" y="889"/>
      <point x="700" y="892" type="curve" smooth="yes"/>
      <point x="576" y="912" type="line" smooth="yes"/>
      <point x="571" y="913"/>
      <point x="562" y="914"/>
      <point x="557" y="914" type="curve" smooth="yes"/>
      <point x="426" y="914" type="line"/>
      <point x="296" y="908" type="line" smooth="yes"/>
      <point x="279" y="908"/>
      <point x="254" y="900"/>
      <point x="240" y="892" type="curve" smooth="yes"/>
      <point x="132" y="827" type="line" smooth="yes"/>
      <point x="108" y="812"/>
      <point x="83" y="778"/>
      <point x="78" y="750" type="curve" smooth="yes"/>
      <point x="52" y="626" type="line" smooth="yes"/>
      <point x="51" y="620"/>
      <point x="50" y="609"/>
      <point x="50" y="603" type="curve" smooth="yes"/>
      <point x="50" y="476" type="line"/>
      <point x="50" y="-4" type="line" smooth="yes"/>
      <point x="50" y="-68"/>
      <point x="104" y="-122"/>
      <point x="168" y="-122" type="curve" smooth="yes"/>
      <point x="232" y="-122"/>
      <point x="286" y="-68"/>
    </contour>
  </outline>
</glyph>
<glyph name="S" format="1">
  <advance width="894"/>
  <unicode hex="0053"/>
  <outline>
    <contour>
      <point x="424" y="-44" type="curve" smooth="yes"/>
      <point x="652" y="356" type="line" smooth="yes"/>
      <point x="667" y="382"/>
      <point x="667" y="425"/>
      <point x="652" y="451" type="curve" smooth="yes"/>
      <point x="582" y="578" type="line"/>
      <point x="704" y="517" type="line" smooth="yes"/>
      <point x="751" y="494"/>
      <point x="811" y="514"/>
      <point x="834" y="561" type="curve" smooth="yes"/>
      <point x="857" y="608"/>
      <point x="837" y="668"/>
      <point x="790" y="691" type="curve" smooth="yes"/>
      <point x="387" y="891" type="line" smooth="yes"/>
      <point x="295" y="937"/>
      <point x="209" y="847"/>
      <point x="259" y="757" type="curve" smooth="yes"/>
      <point x="456" y="404" type="line"/>
      <point x="319" y="164" type="line"/>
      <point x="216" y="271" type="line" smooth="yes"/>
      <point x="179" y="309"/>
      <point x="116" y="310"/>
      <point x="79" y="274" type="curve" smooth="yes"/>
      <point x="41" y="237"/>
      <point x="40" y="174"/>
      <point x="76" y="137" type="curve" smooth="yes"/>
      <point x="270" y="-63" type="line" smooth="yes"/>
      <point x="317" y="-113"/>
      <point x="390" y="-104"/>
    </contour>
  </outline>
</glyph>
<glyph name="T" format="1">
  <advance width="532"/>
  <unicode hex="0054"/>
  <outline>
    <contour>
      <point x="413" y="-63" type="curve" smooth="yes"/>
      <point x="447" y="-63"/>
      <point x="476" y="-34"/>
      <point x="476" y="0" type="curve" smooth="yes"/>
      <point x="476" y="340" type="line"/>
      <point x="482" y="672" type="line" smooth="yes"/>
      <point x="482" y="696"/>
      <point x="465" y="722"/>
      <point x="443" y="732" type="curve" smooth="yes"/>
      <point x="137" y="858" type="line" smooth="yes"/>
      <point x="106" y="871"/>
      <point x="68" y="856"/>
      <point x="55" y="824" type="curve" smooth="yes"/>
      <point x="42" y="793"/>
      <point x="57" y="755"/>
      <point x="89" y="742" type="curve" smooth="yes"/>
      <point x="355" y="632" type="line"/>
      <point x="350" y="340" type="line"/>
      <point x="350" y="0" type="line" smooth="yes"/>
      <point x="350" y="-34"/>
      <point x="379" y="-63"/>
    </contour>
  </outline>
</glyph>
<glyph name="U" format="1">
  <advance width="937"/>
  <unicode hex="0055"/>
  <outline>
    <contour>
      <point x="381" y="-120" type="line"/>
      <point x="500" y="-120" type="line"/>
      <point x="566" y="-120" type="line"/>
      <point x="626" y="-117" type="line" smooth="yes"/>
      <point x="632" y="-116"/>
      <point x="642" y="-115"/>
      <point x="648" y="-114" type="curve" smooth="yes"/>
      <point x="701" y="-101" type="line" smooth="yes"/>
      <point x="710" y="-99"/>
      <point x="724" y="-93"/>
      <point x="733" y="-88" type="curve" smooth="yes"/>
      <point x="779" y="-62" type="line" smooth="yes"/>
      <point x="790" y="-55"/>
      <point x="806" y="-41"/>
      <point x="814" y="-30" type="curve" smooth="yes"/>
      <point x="846" y="12" type="line" smooth="yes"/>
      <point x="854" y="23"/>
      <point x="863" y="41"/>
      <point x="866" y="53" type="curve" smooth="yes"/>
      <point x="881" y="109" type="line" smooth="yes"/>
      <point x="883" y="117"/>
      <point x="885" y="128"/>
      <point x="885" y="135" type="curve" smooth="yes"/>
      <point x="887" y="199" type="line"/>
      <point x="887" y="799" type="line" smooth="yes"/>
      <point x="887" y="863"/>
      <point x="832" y="918"/>
      <point x="768" y="918" type="curve" smooth="yes"/>
      <point x="704" y="918"/>
      <point x="649" y="863"/>
      <point x="649" y="799" type="curve" smooth="yes"/>
      <point x="649" y="199" type="line"/>
      <point x="647" y="157" type="line"/>
      <point x="642" y="137" type="line"/>
      <point x="639" y="132" type="line"/>
      <point x="629" y="126" type="line"/>
      <point x="603" y="120" type="line"/>
      <point x="554" y="118" type="line"/>
      <point x="500" y="118" type="line"/>
      <point x="381" y="118" type="line"/>
      <point x="338" y="120" type="line"/>
      <point x="312" y="126" type="line"/>
      <point x="300" y="133" type="line"/>
      <point x="296" y="139" type="line"/>
      <point x="290" y="159" type="line"/>
      <point x="288" y="205" type="line"/>
      <point x="288" y="259" type="line"/>
      <point x="288" y="799" type="line" smooth="yes"/>
      <point x="288" y="863"/>
      <point x="233" y="918"/>
      <point x="169" y="918" type="curve" smooth="yes"/>
      <point x="105" y="918"/>
      <point x="50" y="863"/>
      <point x="50" y="799" type="curve" smooth="yes"/>
      <point x="50" y="259" type="line"/>
      <point x="50" y="193" type="line"/>
      <point x="53" y="134" type="line" smooth="yes"/>
      <point x="53" y="126"/>
      <point x="55" y="114"/>
      <point x="58" y="107" type="curve" smooth="yes"/>
      <point x="74" y="51" type="line" smooth="yes"/>
      <point x="77" y="39"/>
      <point x="86" y="21"/>
      <point x="94" y="11" type="curve" smooth="yes"/>
      <point x="127" y="-32" type="line" smooth="yes"/>
      <point x="135" y="-42"/>
      <point x="151" y="-56"/>
      <point x="162" y="-62" type="curve" smooth="yes"/>
      <point x="209" y="-89" type="line" smooth="yes"/>
      <point x="217" y="-93"/>
      <point x="231" y="-99"/>
      <point x="240" y="-101" type="curve" smooth="yes"/>
      <point x="293" y="-114" type="line" smooth="yes"/>
      <point x="299" y="-115"/>
      <point x="309" y="-116"/>
      <point x="315" y="-117" type="curve" smooth="yes"/>
    </contour>
  </outline>
</glyph>
<glyph name="V" format="1">
  <advance width="934"/>
  <unicode hex="0056"/>
  <outline>
    <contour>
      <point x="652" y="-52" type="curve" smooth="yes"/>
      <point x="872" y="388" type="line" smooth="yes"/>
      <point x="878" y="401"/>
      <point x="884" y="425"/>
      <point x="884" y="440" type="curve" smooth="yes"/>
      <point x="884" y="800" type="line" smooth="yes"/>
      <point x="884" y="863"/>
      <point x="830" y="917"/>
      <point x="767" y="917" type="curve" smooth="yes"/>
      <point x="704" y="917"/>
      <point x="650" y="863"/>
      <point x="650" y="800" type="curve" smooth="yes"/>
      <point x="650" y="468" type="line"/>
      <point x="508" y="183" type="line"/>
      <point x="284" y="366" type="line"/>
      <point x="284" y="800" type="line" smooth="yes"/>
      <point x="284" y="863"/>
      <point x="230" y="917"/>
      <point x="167" y="917" type="curve" smooth="yes"/>
      <point x="104" y="917"/>
      <point x="50" y="863"/>
      <point x="50" y="800" type="curve" smooth="yes"/>
      <point x="50" y="310" type="line"/>
      <point x="50" y="279"/>
      <point x="69" y="239"/>
      <point x="93" y="219" type="curve" smooth="yes"/>
      <point x="473" y="-91" type="line" smooth="yes"/>
      <point x="534" y="-140"/>
      <point x="616" y="-123"/>
    </contour>
  </outline>
</glyph>
<glyph name="W" format="1">
  <advance width="956"/>
  <unicode hex="0057"/>
  <outline>
    <contour>
      <point x="672" y="-96" type="curve" smooth="yes"/>
      <point x="854" y="37" type="line" smooth="yes"/>
      <point x="883" y="58"/>
      <point x="906" y="104"/>
      <point x="906" y="140" type="curve" smooth="yes"/>
      <point x="906" y="800" type="line" smooth="yes"/>
      <point x="906" y="869"/>
      <point x="847" y="928"/>
      <point x="778" y="928" type="curve" smooth="yes"/>
      <point x="709" y="928"/>
      <point x="650" y="869"/>
      <point x="650" y="800" type="curve" smooth="yes"/>
      <point x="650" y="205" type="line"/>
      <point x="635" y="194" type="line"/>
      <point x="609" y="237" type="line"/>
      <point x="604" y="423" type="line" smooth="yes"/>
      <point x="600" y="591"/>
      <point x="352" y="590"/>
      <point x="348" y="423" type="curve" smooth="yes"/>
      <point x="345" y="235" type="line"/>
      <point x="321" y="195" type="line"/>
      <point x="306" y="205" type="line"/>
      <point x="306" y="800" type="line" smooth="yes"/>
      <point x="306" y="869"/>
      <point x="247" y="928"/>
      <point x="178" y="928" type="curve" smooth="yes"/>
      <point x="109" y="928"/>
      <point x="50" y="869"/>
      <point x="50" y="800" type="curve" smooth="yes"/>
      <point x="50" y="140" type="line" smooth="yes"/>
      <point x="50" y="104"/>
      <point x="74" y="57"/>
      <point x="103" y="36" type="curve" smooth="yes"/>
      <point x="286" y="-96" type="line" smooth="yes"/>
      <point x="349" y="-142"/>
      <point x="433" y="-124"/>
      <point x="472" y="-56" type="curve" smooth="yes"/>
      <point x="478" y="-45" type="line"/>
      <point x="486" y="-58" type="line" smooth="yes"/>
      <point x="526" y="-125"/>
      <point x="609" y="-142"/>
    </contour>
  </outline>
</glyph>
<glyph name="X" format="1">
  <advance width="882"/>
  <unicode hex="0058"/>
  <outline>
    <contour>
      <point x="741" y="-91" type="curve" smooth="yes"/>
      <point x="790" y="-91"/>
      <point x="832" y="-49"/>
      <point x="832" y="0" type="curve" smooth="yes"/>
      <point x="832" y="160" type="line" smooth="yes"/>
      <point x="832" y="164"/>
      <point x="832" y="169"/>
      <point x="831" y="173" type="curve" smooth="yes"/>
      <point x="808" y="336" type="line" smooth="yes"/>
      <point x="804" y="361"/>
      <point x="783" y="391"/>
      <point x="760" y="403" type="curve" smooth="yes"/>
      <point x="616" y="479" type="line" smooth="yes"/>
      <point x="605" y="485"/>
      <point x="586" y="490"/>
      <point x="574" y="490" type="curve" smooth="yes"/>
      <point x="538" y="490" type="line"/>
      <point x="803" y="733" type="line" smooth="yes"/>
      <point x="839" y="766"/>
      <point x="841" y="825"/>
      <point x="808" y="862" type="curve" smooth="yes"/>
      <point x="775" y="898"/>
      <point x="716" y="900"/>
      <point x="679" y="867" type="curve" smooth="yes"/>
      <point x="289" y="508" type="line"/>
      <point x="234" y="574" type="line"/>
      <point x="232" y="702" type="line"/>
      <point x="232" y="800" type="line" smooth="yes"/>
      <point x="232" y="849"/>
      <point x="190" y="891"/>
      <point x="141" y="891" type="curve" smooth="yes"/>
      <point x="92" y="891"/>
      <point x="50" y="849"/>
      <point x="50" y="800" type="curve" smooth="yes"/>
      <point x="50" y="698" type="line"/>
      <point x="53" y="539" type="line" smooth="yes"/>
      <point x="53" y="521"/>
      <point x="63" y="496"/>
      <point x="74" y="482" type="curve" smooth="yes"/>
      <point x="182" y="353" type="line" smooth="yes"/>
      <point x="183" y="352"/>
      <point x="184" y="350"/>
      <point x="186" y="349" type="curve"/>
      <point x="57" y="35" type="line" smooth="yes"/>
      <point x="38" y="-11"/>
      <point x="61" y="-66"/>
      <point x="106" y="-84" type="curve" smooth="yes"/>
      <point x="152" y="-103"/>
      <point x="207" y="-80"/>
      <point x="225" y="-35" type="curve" smooth="yes"/>
      <point x="367" y="312" type="line"/>
      <point x="411" y="309" type="line"/>
      <point x="551" y="308" type="line"/>
      <point x="634" y="264" type="line"/>
      <point x="650" y="154" type="line"/>
      <point x="650" y="0" type="line" smooth="yes"/>
      <point x="650" y="-49"/>
      <point x="692" y="-91"/>
    </contour>
  </outline>
</glyph>
<glyph name="Y" format="1">
  <advance width="812"/>
  <unicode hex="0059"/>
  <outline>
    <contour>
      <point x="340" y="-56" type="curve" smooth="yes"/>
      <point x="633" y="-33" type="line" smooth="yes"/>
      <point x="655" y="-31"/>
      <point x="677" y="-13"/>
      <point x="683" y="8" type="curve" smooth="yes"/>
      <point x="760" y="296" type="line" smooth="yes"/>
      <point x="761" y="300"/>
      <point x="762" y="307"/>
      <point x="762" y="312" type="curve" smooth="yes"/>
      <point x="755" y="609" type="line" smooth="yes"/>
      <point x="753" y="677"/>
      <point x="662" y="688"/>
      <point x="645" y="622" type="curve" smooth="yes"/>
      <point x="579" y="372" type="line"/>
      <point x="348" y="356" type="line"/>
      <point x="162" y="523" type="line"/>
      <point x="162" y="798" type="line" smooth="yes"/>
      <point x="162" y="828"/>
      <point x="136" y="854"/>
      <point x="106" y="854" type="curve" smooth="yes"/>
      <point x="76" y="854"/>
      <point x="50" y="828"/>
      <point x="50" y="798" type="curve" smooth="yes"/>
      <point x="50" y="498" type="line"/>
      <point x="50" y="484"/>
      <point x="58" y="466"/>
      <point x="69" y="456" type="curve" smooth="yes"/>
      <point x="291" y="256" type="line" smooth="yes"/>
      <point x="300" y="248"/>
      <point x="319" y="241"/>
      <point x="332" y="242" type="curve" smooth="yes"/>
      <point x="626" y="263" type="line" smooth="yes"/>
      <point x="630" y="264"/>
      <point x="633" y="264"/>
      <point x="636" y="265" type="curve"/>
      <point x="585" y="76" type="line"/>
      <point x="333" y="56" type="line"/>
      <point x="106" y="57" type="line" smooth="yes"/>
      <point x="76" y="57"/>
      <point x="50" y="31"/>
      <point x="50" y="1" type="curve" smooth="yes"/>
      <point x="50" y="-29"/>
      <point x="76" y="-55"/>
      <point x="106" y="-55" type="curve" smooth="yes"/>
      <point x="335" y="-56" type="line" smooth="yes"/>
      <point x="336" y="-56"/>
      <point x="338" y="-56"/>
    </contour>
  </outline>
</glyph>
<glyph name="Z" format="1">
  <advance width="910"/>
  <unicode hex="005A"/>
  <outline>
    <contour>
      <point x="395" y="-105" type="curve" smooth="yes"/>
      <point x="755" y="-105" type="line" smooth="yes"/>
      <point x="812" y="-105"/>
      <point x="860" y="-57"/>
      <point x="860" y="0" type="curve" smooth="yes"/>
      <point x="860" y="57"/>
      <point x="812" y="105"/>
      <point x="755" y="105" type="curve" smooth="yes"/>
      <point x="395" y="105" type="line"/>
      <point x="343" y="105" type="line"/>
      <point x="311" y="109" type="line"/>
      <point x="288" y="116" type="line"/>
      <point x="274" y="126" type="line"/>
      <point x="265" y="142" type="line"/>
      <point x="264" y="147" type="line"/>
      <point x="738" y="463" type="line"/>
      <point x="788" y="496" type="line" smooth="yes"/>
      <point x="802" y="505"/>
      <point x="818" y="524"/>
      <point x="825" y="539" type="curve" smooth="yes"/>
      <point x="850" y="591" type="line" smooth="yes"/>
      <point x="857" y="607"/>
      <point x="861" y="634"/>
      <point x="858" y="651" type="curve" smooth="yes"/>
      <point x="850" y="707" type="line" smooth="yes"/>
      <point x="848" y="717"/>
      <point x="843" y="732"/>
      <point x="839" y="741" type="curve" smooth="yes"/>
      <point x="810" y="794" type="line" smooth="yes"/>
      <point x="804" y="806"/>
      <point x="790" y="822"/>
      <point x="779" y="830" type="curve" smooth="yes"/>
      <point x="730" y="865" type="line" smooth="yes"/>
      <point x="722" y="871"/>
      <point x="708" y="878"/>
      <point x="699" y="880" type="curve" smooth="yes"/>
      <point x="650" y="895" type="line" smooth="yes"/>
      <point x="645" y="897"/>
      <point x="636" y="898"/>
      <point x="631" y="899" type="curve" smooth="yes"/>
      <point x="584" y="904" type="line" smooth="yes"/>
      <point x="581" y="904"/>
      <point x="576" y="905"/>
      <point x="573" y="905" type="curve" smooth="yes"/>
      <point x="516" y="905" type="line" smooth="yes"/>
      <point x="515" y="905"/>
      <point x="515" y="905"/>
      <point x="515" y="905" type="curve" smooth="yes"/>
      <point x="155" y="905" type="line" smooth="yes"/>
      <point x="98" y="905"/>
      <point x="50" y="857"/>
      <point x="50" y="800" type="curve" smooth="yes"/>
      <point x="50" y="743"/>
      <point x="98" y="695"/>
      <point x="155" y="695" type="curve" smooth="yes"/>
      <point x="515" y="695" type="line"/>
      <point x="567" y="695" type="line"/>
      <point x="599" y="691" type="line"/>
      <point x="622" y="684" type="line"/>
      <point x="636" y="674" type="line"/>
      <point x="645" y="658" type="line"/>
      <point x="646" y="653" type="line"/>
      <point x="172" y="337" type="line"/>
      <point x="122" y="304" type="line" smooth="yes"/>
      <point x="108" y="295"/>
      <point x="92" y="276"/>
      <point x="85" y="261" type="curve" smooth="yes"/>
      <point x="60" y="209" type="line" smooth="yes"/>
      <point x="53" y="193"/>
      <point x="49" y="166"/>
      <point x="52" y="149" type="curve" smooth="yes"/>
      <point x="60" y="93" type="line" smooth="yes"/>
      <point x="62" y="83"/>
      <point x="67" y="68"/>
      <point x="71" y="59" type="curve" smooth="yes"/>
      <point x="100" y="6" type="line" smooth="yes"/>
      <point x="106" y="-6"/>
      <point x="120" y="-22"/>
      <point x="131" y="-30" type="curve" smooth="yes"/>
      <point x="180" y="-65" type="line" smooth="yes"/>
      <point x="188" y="-71"/>
      <point x="202" y="-78"/>
      <point x="211" y="-80" type="curve" smooth="yes"/>
      <point x="260" y="-95" type="line" smooth="yes"/>
      <point x="265" y="-97"/>
      <point x="274" y="-98"/>
      <point x="279" y="-99" type="curve" smooth="yes"/>
      <point x="326" y="-104" type="line" smooth="yes"/>
      <point x="329" y="-104"/>
      <point x="334" y="-105"/>
      <point x="337" y="-105" type="curve" smooth="yes"/>
      <point x="394" y="-105" type="line" smooth="yes"/>
      <point x="395" y="-105"/>
      <point x="395" y="-105"/>
    </contour>
  </outline>
</glyph>
<glyph name="bracketleft" format="1">
  <advance width="556"/>
  <unicode hex="005B"/>
  <outline>
    <contour>
      <point x="503" y="-22" type="curve" smooth="yes"/>
      <point x="515" y="18"/>
      <point x="491" y="63"/>
      <point x="450" y="75" type="curve" smooth="yes"/>
      <point x="206" y="148" type="line"/>
      <point x="206" y="652" type="line"/>
      <point x="450" y="725" type="line" smooth="yes"/>
      <point x="491" y="737"/>
      <point x="515" y="782"/>
      <point x="503" y="822" type="curve" smooth="yes"/>
      <point x="491" y="863"/>
      <point x="446" y="887"/>
      <point x="406" y="875" type="curve" smooth="yes"/>
      <point x="106" y="785" type="line" smooth="yes"/>
      <point x="75" y="776"/>
      <point x="50" y="742"/>
      <point x="50" y="710" type="curve"/>
      <point x="50" y="90" type="line"/>
      <point x="50" y="58"/>
      <point x="75" y="24"/>
      <point x="106" y="15" type="curve" smooth="yes"/>
      <point x="406" y="-75" type="line" smooth="yes"/>
      <point x="446" y="-87"/>
      <point x="491" y="-63"/>
    </contour>
  </outline>
</glyph>
<glyph name="backslash" format="1">
  <advance width="966"/>
  <unicode hex="005C"/>
  <outline>
    <contour>
      <point x="863" y="-108" type="curve" smooth="yes"/>
      <point x="921" y="-65"/>
      <point x="934" y="22"/>
      <point x="890" y="79" type="curve" smooth="yes"/>
      <point x="290" y="879" type="line" smooth="yes"/>
      <point x="247" y="937"/>
      <point x="160" y="950"/>
      <point x="103" y="906" type="curve" smooth="yes"/>
      <point x="45" y="863"/>
      <point x="32" y="776"/>
      <point x="76" y="719" type="curve" smooth="yes"/>
      <point x="676" y="-81" type="line" smooth="yes"/>
      <point x="719" y="-139"/>
      <point x="806" y="-152"/>
    </contour>
  </outline>
</glyph>
<glyph name="bracketright" format="1">
  <advance width="606"/>
  <unicode hex="005D"/>
  <outline>
    <contour>
      <point x="163" y="-103" type="curve" smooth="yes"/>
      <point x="463" y="-73" type="line" smooth="yes"/>
      <point x="514" y="-68"/>
      <point x="556" y="-22"/>
      <point x="556" y="29" type="curve" smooth="yes"/>
      <point x="556" y="469" type="line" smooth="yes"/>
      <point x="556" y="491"/>
      <point x="544" y="522"/>
      <point x="529" y="538" type="curve" smooth="yes"/>
      <point x="229" y="868" type="line" smooth="yes"/>
      <point x="192" y="909"/>
      <point x="125" y="913"/>
      <point x="84" y="875" type="curve" smooth="yes"/>
      <point x="43" y="838"/>
      <point x="39" y="771"/>
      <point x="77" y="730" type="curve" smooth="yes"/>
      <point x="350" y="429" type="line"/>
      <point x="350" y="122" type="line"/>
      <point x="143" y="101" type="line" smooth="yes"/>
      <point x="87" y="96"/>
      <point x="45" y="44"/>
      <point x="51" y="-11" type="curve" smooth="yes"/>
      <point x="56" y="-67"/>
      <point x="108" y="-109"/>
    </contour>
  </outline>
</glyph>
<glyph name="asciicircum" format="1">
  <advance width="806"/>
  <unicode hex="005E"/>
  <outline>
    <contour>
      <point x="124" y="453" type="curve" smooth="yes"/>
      <point x="464" y="598" type="line"/>
      <point x="674" y="458" type="line" smooth="yes"/>
      <point x="697" y="442"/>
      <point x="731" y="449"/>
      <point x="747" y="473" type="curve" smooth="yes"/>
      <point x="763" y="496"/>
      <point x="756" y="530"/>
      <point x="732" y="546" type="curve" smooth="yes"/>
      <point x="499" y="702" type="line" smooth="yes"/>
      <point x="486" y="710"/>
      <point x="464" y="713"/>
      <point x="449" y="706" type="curve" smooth="yes"/>
      <point x="82" y="551" type="line" smooth="yes"/>
      <point x="56" y="540"/>
      <point x="43" y="508"/>
      <point x="54" y="481" type="curve" smooth="yes"/>
      <point x="65" y="455"/>
      <point x="97" y="442"/>
    </contour>
  </outline>
</glyph>
<glyph name="underscore" format="1">
  <advance width="992"/>
  <unicode hex="005F"/>
  <outline>
    <contour>
      <point x="208" y="-343" type="curve" smooth="yes"/>
      <point x="784" y="-343" type="line" smooth="yes"/>
      <point x="869" y="-343"/>
      <point x="942" y="-270"/>
      <point x="942" y="-185" type="curve" smooth="yes"/>
      <point x="942" y="-100"/>
      <point x="869" y="-27"/>
      <point x="784" y="-27" type="curve" smooth="yes"/>
      <point x="208" y="-27" type="line" smooth="yes"/>
      <point x="123" y="-27"/>
      <point x="50" y="-100"/>
      <point x="50" y="-185" type="curve" smooth="yes"/>
      <point x="50" y="-270"/>
      <point x="123" y="-343"/>
    </contour>
  </outline>
</glyph>
<glyph name="grave" format="1">
  <advance width="714"/>
  <unicode hex="0060"/>
  <outline>
    <contour>
      <point x="638" y="840" type="curve" smooth="yes"/>
      <point x="686" y="911"/>
      <point x="666" y="1012"/>
      <point x="595" y="1059" type="curve" smooth="yes"/>
      <point x="295" y="1259" type="line" smooth="yes"/>
      <point x="224" y="1307"/>
      <point x="123" y="1287"/>
      <point x="76" y="1216" type="curve" smooth="yes"/>
      <point x="28" y="1145"/>
      <point x="48" y="1044"/>
      <point x="119" y="997" type="curve" smooth="yes"/>
      <point x="419" y="797" type="line" smooth="yes"/>
      <point x="490" y="749"/>
      <point x="591" y="769"/>
    </contour>
  </outline>
</glyph>
<glyph name="a" format="1">
  <advance width="822"/>
  <unicode hex="0061"/>
  <outline>
    <contour>
      <point x="711" y="-65" type="curve" smooth="yes"/>
      <point x="744" y="-65"/>
      <point x="772" y="-37"/>
      <point x="772" y="-4" type="curve" smooth="yes"/>
      <point x="772" y="476" type="line" smooth="yes"/>
      <point x="772" y="484"/>
      <point x="769" y="495"/>
      <point x="766" y="502" type="curve" smooth="yes"/>
      <point x="617" y="819" type="line" smooth="yes"/>
      <point x="608" y="839"/>
      <point x="582" y="855"/>
      <point x="560" y="854" type="curve" smooth="yes"/>
      <point x="204" y="842" type="line" smooth="yes"/>
      <point x="179" y="841"/>
      <point x="154" y="821"/>
      <point x="147" y="797" type="curve" smooth="yes"/>
      <point x="52" y="455" type="line" smooth="yes"/>
      <point x="51" y="451"/>
      <point x="50" y="443"/>
      <point x="50" y="438" type="curve" smooth="yes"/>
      <point x="54" y="88" type="line" smooth="yes"/>
      <point x="55" y="28"/>
      <point x="118" y="3"/>
      <point x="159" y="46" type="curve" smooth="yes"/>
      <point x="387" y="285" type="line"/>
      <point x="650" y="285" type="line"/>
      <point x="650" y="-4" type="line" smooth="yes"/>
      <point x="650" y="-37"/>
      <point x="678" y="-65"/>
    </contour>
    <contour>
      <point x="317" y="388" type="curve" smooth="yes"/>
      <point x="174" y="239" type="line"/>
      <point x="172" y="431" type="line"/>
      <point x="253" y="721" type="line"/>
      <point x="524" y="731" type="line"/>
      <point x="650" y="462" type="line"/>
      <point x="650" y="407" type="line"/>
      <point x="361" y="407" type="line" smooth="yes"/>
      <point x="347" y="407"/>
      <point x="327" y="399"/>
    </contour>
  </outline>
</glyph>
<glyph name="b" format="1">
  <advance width="814"/>
  <unicode hex="0062"/>
  <outline>
    <contour>
      <point x="314" y="-54" type="curve" smooth="yes"/>
      <point x="548" y="-53" type="line" smooth="yes"/>
      <point x="561" y="-53"/>
      <point x="580" y="-45"/>
      <point x="589" y="-35" type="curve" smooth="yes"/>
      <point x="748" y="129" type="line" smooth="yes"/>
      <point x="763" y="144"/>
      <point x="768" y="172"/>
      <point x="761" y="191" type="curve" smooth="yes"/>
      <point x="676" y="405" type="line" smooth="yes"/>
      <point x="672" y="415"/>
      <point x="665" y="423"/>
      <point x="656" y="430" type="curve"/>
      <point x="731" y="479" type="line" smooth="yes"/>
      <point x="749" y="490"/>
      <point x="760" y="516"/>
      <point x="757" y="537" type="curve" smooth="yes"/>
      <point x="720" y="765" type="line" smooth="yes"/>
      <point x="717" y="787"/>
      <point x="697" y="808"/>
      <point x="675" y="813" type="curve" smooth="yes"/>
      <point x="448" y="861" type="line" smooth="yes"/>
      <point x="444" y="862"/>
      <point x="437" y="862"/>
      <point x="432" y="862" type="curve" smooth="yes"/>
      <point x="199" y="847" type="line" smooth="yes"/>
      <point x="180" y="845"/>
      <point x="158" y="830"/>
      <point x="150" y="813" type="curve" smooth="yes"/>
      <point x="55" y="602" type="line" smooth="yes"/>
      <point x="52" y="596"/>
      <point x="50" y="585"/>
      <point x="50" y="578" type="curve" smooth="yes"/>
      <point x="50" y="351" type="line"/>
      <point x="58" y="121" type="line" smooth="yes"/>
      <point x="59" y="104"/>
      <point x="71" y="83"/>
      <point x="86" y="74" type="curve" smooth="yes"/>
      <point x="284" y="-46" type="line" smooth="yes"/>
      <point x="292" y="-50"/>
      <point x="305" y="-54"/>
    </contour>
    <contour>
      <point x="393" y="462" type="line" smooth="yes"/>
      <point x="392" y="462"/>
      <point x="389" y="462"/>
      <point x="388" y="462" type="curve" smooth="yes"/>
      <point x="166" y="462" type="line"/>
      <point x="166" y="566" type="line"/>
      <point x="241" y="733" type="line"/>
      <point x="432" y="746" type="line"/>
      <point x="612" y="708" type="line"/>
      <point x="636" y="556" type="line"/>
      <point x="479" y="454" type="line"/>
    </contour>
    <contour>
      <point x="523" y="63" type="line"/>
      <point x="330" y="62" type="line"/>
      <point x="173" y="157" type="line"/>
      <point x="166" y="346" type="line"/>
      <point x="386" y="346" type="line"/>
      <point x="581" y="329" type="line"/>
      <point x="639" y="183" type="line"/>
    </contour>
  </outline>
</glyph>
<glyph name="c" format="1">
  <advance width="942"/>
  <unicode hex="0063"/>
  <outline>
    <contour>
      <point x="571" y="-123" type="line"/>
      <point x="635" y="-120" type="line" smooth="yes"/>
      <point x="643" y="-120"/>
      <point x="655" y="-118"/>
      <point x="663" y="-116" type="curve" smooth="yes"/>
      <point x="719" y="-100" type="line" smooth="yes"/>
      <point x="731" y="-97"/>
      <point x="749" y="-88"/>
      <point x="760" y="-80" type="curve" smooth="yes"/>
      <point x="802" y="-47" type="line" smooth="yes"/>
      <point x="813" y="-39"/>
      <point x="827" y="-23"/>
      <point x="834" y="-11" type="curve" smooth="yes"/>
      <point x="860" y="35" type="line" smooth="yes"/>
      <point x="865" y="43"/>
      <point x="871" y="58"/>
      <point x="873" y="67" type="curve" smooth="yes"/>
      <point x="886" y="120" type="line" smooth="yes"/>
      <point x="887" y="125"/>
      <point x="888" y="135"/>
      <point x="889" y="140" type="curve" smooth="yes"/>
      <point x="892" y="191" type="line" smooth="yes"/>
      <point x="896" y="256"/>
      <point x="844" y="315"/>
      <point x="778" y="319" type="curve" smooth="yes"/>
      <point x="713" y="323"/>
      <point x="654" y="271"/>
      <point x="650" y="205" type="curve" smooth="yes"/>
      <point x="648" y="166" type="line"/>
      <point x="642" y="140" type="line"/>
      <point x="636" y="130" type="line"/>
      <point x="631" y="126" type="line"/>
      <point x="611" y="121" type="line"/>
      <point x="571" y="119" type="line"/>
      <point x="391" y="119" type="line"/>
      <point x="345" y="119" type="line"/>
      <point x="317" y="123" type="line"/>
      <point x="307" y="128" type="line"/>
      <point x="301" y="137" type="line"/>
      <point x="295" y="155" type="line"/>
      <point x="292" y="185" type="line"/>
      <point x="292" y="236" type="line"/>
      <point x="292" y="533" type="line"/>
      <point x="292" y="589" type="line"/>
      <point x="293" y="638" type="line"/>
      <point x="297" y="657" type="line"/>
      <point x="303" y="665" type="line"/>
      <point x="310" y="669" type="line"/>
      <point x="336" y="675" type="line"/>
      <point x="379" y="677" type="line"/>
      <point x="499" y="677" type="line"/>
      <point x="553" y="677" type="line"/>
      <point x="602" y="675" type="line"/>
      <point x="627" y="669" type="line"/>
      <point x="638" y="663" type="line"/>
      <point x="642" y="657" type="line"/>
      <point x="648" y="637" type="line"/>
      <point x="650" y="592" type="line" smooth="yes"/>
      <point x="653" y="527"/>
      <point x="712" y="474"/>
      <point x="777" y="477" type="curve" smooth="yes"/>
      <point x="842" y="480"/>
      <point x="895" y="539"/>
      <point x="892" y="604" type="curve" smooth="yes"/>
      <point x="889" y="663" type="line" smooth="yes"/>
      <point x="889" y="671"/>
      <point x="887" y="683"/>
      <point x="884" y="691" type="curve" smooth="yes"/>
      <point x="868" y="747" type="line" smooth="yes"/>
      <point x="865" y="759"/>
      <point x="855" y="777"/>
      <point x="848" y="787" type="curve" smooth="yes"/>
      <point x="815" y="830" type="line" smooth="yes"/>
      <point x="806" y="841"/>
      <point x="790" y="854"/>
      <point x="779" y="861" type="curve" smooth="yes"/>
      <point x="732" y="888" type="line" smooth="yes"/>
      <point x="724" y="892"/>
      <point x="709" y="898"/>
      <point x="700" y="900" type="curve" smooth="yes"/>
      <point x="647" y="913" type="line" smooth="yes"/>
      <point x="641" y="914"/>
      <point x="631" y="915"/>
      <point x="625" y="916" type="curve" smooth="yes"/>
      <point x="565" y="919" type="line"/>
      <point x="499" y="919" type="line"/>
      <point x="379" y="919" type="line"/>
      <point x="313" y="916" type="line" smooth="yes"/>
      <point x="307" y="916"/>
      <point x="297" y="914"/>
      <point x="291" y="913" type="curve" smooth="yes"/>
      <point x="238" y="901" type="line" smooth="yes"/>
      <point x="229" y="898"/>
      <point x="215" y="893"/>
      <point x="206" y="888" type="curve" smooth="yes"/>
      <point x="160" y="862" type="line" smooth="yes"/>
      <point x="147" y="855"/>
      <point x="130" y="839"/>
      <point x="121" y="827" type="curve" smooth="yes"/>
      <point x="86" y="778" type="line" smooth="yes"/>
      <point x="78" y="767"/>
      <point x="69" y="747"/>
      <point x="66" y="734" type="curve" smooth="yes"/>
      <point x="54" y="679" type="line" smooth="yes"/>
      <point x="53" y="672"/>
      <point x="52" y="662"/>
      <point x="51" y="655" type="curve" smooth="yes"/>
      <point x="50" y="595" type="line"/>
      <point x="50" y="533" type="line"/>
      <point x="50" y="236" type="line"/>
      <point x="50" y="177" type="line" smooth="yes"/>
      <point x="50" y="174"/>
      <point x="51" y="169"/>
      <point x="51" y="165" type="curve" smooth="yes"/>
      <point x="56" y="118" type="line" smooth="yes"/>
      <point x="57" y="112"/>
      <point x="59" y="102"/>
      <point x="61" y="96" type="curve" smooth="yes"/>
      <point x="75" y="47" type="line" smooth="yes"/>
      <point x="79" y="36"/>
      <point x="87" y="20"/>
      <point x="94" y="10" type="curve" smooth="yes"/>
      <point x="129" y="-38" type="line" smooth="yes"/>
      <point x="138" y="-51"/>
      <point x="157" y="-67"/>
      <point x="171" y="-74" type="curve" smooth="yes"/>
      <point x="225" y="-101" type="line" smooth="yes"/>
      <point x="235" y="-107"/>
      <point x="252" y="-112"/>
      <point x="263" y="-114" type="curve" smooth="yes"/>
      <point x="319" y="-121" type="line" smooth="yes"/>
      <point x="323" y="-122"/>
      <point x="330" y="-123"/>
      <point x="335" y="-123" type="curve" smooth="yes"/>
      <point x="390" y="-123" type="line" smooth="yes"/>
      <point x="390" y="-123"/>
      <point x="391" y="-123"/>
      <point x="391" y="-123" type="curve" smooth="yes"/>
    </contour>
  </outline>
</glyph>
<glyph name="d" format="1">
  <advance width="800"/>
  <unicode hex="0064"/>
  <outline>
    <contour>
      <point x="180" y="-51" type="curve" smooth="yes"/>
      <point x="430" y="-51" type="line"/>
      <point x="560" y="-48" type="line" smooth="yes"/>
      <point x="567" y="-48"/>
      <point x="578" y="-45"/>
      <point x="584" y="-42" type="curve" smooth="yes"/>
      <point x="695" y="23" type="line" smooth="yes"/>
      <point x="705" y="28"/>
      <point x="715" y="42"/>
      <point x="718" y="53" type="curve" smooth="yes"/>
      <point x="748" y="169" type="line" smooth="yes"/>
      <point x="749" y="172"/>
      <point x="750" y="178"/>
      <point x="750" y="181" type="curve" smooth="yes"/>
      <point x="750" y="309" type="line"/>
      <point x="750" y="439" type="line"/>
      <point x="750" y="589" type="line" smooth="yes"/>
      <point x="750" y="591"/>
      <point x="750" y="593"/>
      <point x="750" y="594" type="curve"/>
      <point x="750" y="599"/>
      <point x="750" y="603"/>
      <point x="749" y="608" type="curve" smooth="yes"/>
      <point x="726" y="731" type="line" smooth="yes"/>
      <point x="724" y="742"/>
      <point x="715" y="757"/>
      <point x="705" y="763" type="curve" smooth="yes"/>
      <point x="605" y="832" type="line" smooth="yes"/>
      <point x="599" y="836"/>
      <point x="587" y="840"/>
      <point x="580" y="841" type="curve" smooth="yes"/>
      <point x="456" y="849" type="line"/>
      <point x="329" y="849" type="line"/>
      <point x="209" y="849" type="line" smooth="yes"/>
      <point x="200" y="849"/>
      <point x="188" y="845"/>
      <point x="181" y="841" type="curve" smooth="yes"/>
      <point x="73" y="771" type="line" smooth="yes"/>
      <point x="60" y="763"/>
      <point x="50" y="744"/>
      <point x="50" y="729" type="curve"/>
      <point x="50" y="99" type="line" smooth="yes"/>
      <point x="50" y="89"/>
      <point x="55" y="75"/>
      <point x="61" y="68" type="curve" smooth="yes"/>
      <point x="141" y="-32" type="line" smooth="yes"/>
      <point x="149" y="-43"/>
      <point x="167" y="-51"/>
    </contour>
    <contour>
      <point x="449" y="749" type="line"/>
      <point x="560" y="742" type="line"/>
      <point x="632" y="692" type="line"/>
      <point x="650" y="593" type="line"/>
      <point x="650" y="589" type="line" smooth="yes"/>
      <point x="650" y="439" type="line"/>
      <point x="650" y="309" type="line"/>
      <point x="650" y="188" type="line"/>
      <point x="627" y="99" type="line"/>
      <point x="545" y="51" type="line"/>
      <point x="430" y="49" type="line"/>
      <point x="204" y="49" type="line"/>
      <point x="150" y="117" type="line"/>
      <point x="150" y="702" type="line"/>
      <point x="223" y="749" type="line"/>
    </contour>
  </outline>
</glyph>
<glyph name="e" format="1">
  <advance width="905"/>
  <unicode hex="0065"/>
  <outline>
    <contour>
      <point x="523" y="-133" type="line" smooth="yes"/>
      <point x="524" y="-133"/>
      <point x="524" y="-133"/>
      <point x="525" y="-133" type="curve"/>
      <point x="528" y="-133" type="line" smooth="yes"/>
      <point x="545" y="-133" type="line" smooth="yes"/>
      <point x="577" y="-132"/>
      <point x="619" y="-113"/>
      <point x="641" y="-90" type="curve" smooth="yes"/>
      <point x="821" y="106" type="line" smooth="yes"/>
      <point x="869" y="159"/>
      <point x="866" y="245"/>
      <point x="813" y="294" type="curve" smooth="yes"/>
      <point x="760" y="342"/>
      <point x="674" y="339"/>
      <point x="625" y="286" type="curve" smooth="yes"/>
      <point x="504" y="155" type="line"/>
      <point x="329" y="388" type="line"/>
      <point x="401" y="612" type="line"/>
      <point x="663" y="483" type="line" smooth="yes"/>
      <point x="728" y="451"/>
      <point x="809" y="479"/>
      <point x="841" y="543" type="curve" smooth="yes"/>
      <point x="873" y="608"/>
      <point x="845" y="689"/>
      <point x="781" y="721" type="curve" smooth="yes"/>
      <point x="380" y="919" type="line" smooth="yes"/>
      <point x="304" y="957"/>
      <point x="220" y="921"/>
      <point x="194" y="840" type="curve" smooth="yes"/>
      <point x="55" y="403" type="line" smooth="yes"/>
      <point x="43" y="367"/>
      <point x="53" y="313"/>
      <point x="75" y="283" type="curve" smooth="yes"/>
      <point x="348" y="-80" type="line" smooth="yes"/>
      <point x="370" y="-109"/>
      <point x="417" y="-133"/>
      <point x="454" y="-133" type="curve" smooth="yes"/>
    </contour>
  </outline>
</glyph>
<glyph name="f" format="1">
  <advance width="831"/>
  <unicode hex="0066"/>
  <outline>
    <contour>
      <point x="182" y="2" type="curve" smooth="yes"/>
      <point x="188" y="261" type="line"/>
      <point x="263" y="699" type="line"/>
      <point x="693" y="544" type="line" smooth="yes"/>
      <point x="726" y="532"/>
      <point x="765" y="550"/>
      <point x="777" y="584" type="curve" smooth="yes"/>
      <point x="789" y="617"/>
      <point x="771" y="656"/>
      <point x="737" y="668" type="curve" smooth="yes"/>
      <point x="233" y="850" type="line" smooth="yes"/>
      <point x="193" y="865"/>
      <point x="153" y="841"/>
      <point x="146" y="799" type="curve" smooth="yes"/>
      <point x="57" y="278" type="line" smooth="yes"/>
      <point x="57" y="275"/>
      <point x="56" y="271"/>
      <point x="56" y="268" type="curve" smooth="yes"/>
      <point x="50" y="6" type="line" smooth="yes"/>
      <point x="49" y="-30"/>
      <point x="79" y="-61"/>
      <point x="114" y="-62" type="curve" smooth="yes"/>
      <point x="150" y="-63"/>
      <point x="181" y="-33"/>
    </contour>
    <contour>
      <point x="250" y="404" type="curve" smooth="yes"/>
      <point x="250" y="368"/>
      <point x="280" y="338"/>
      <point x="316" y="338" type="curve" smooth="yes"/>
      <point x="516" y="338" type="line" smooth="yes"/>
      <point x="552" y="338"/>
      <point x="582" y="368"/>
      <point x="582" y="404" type="curve" smooth="yes"/>
      <point x="582" y="440"/>
      <point x="552" y="470"/>
      <point x="516" y="470" type="curve" smooth="yes"/>
      <point x="316" y="470" type="line" smooth="yes"/>
      <point x="280" y="470"/>
      <point x="250" y="440"/>
    </contour>
  </outline>
</glyph>
<glyph name="g" format="1">
  <advance width="943"/>
  <unicode hex="0067"/>
  <outline>
    <contour>
      <point x="493" y="623" type="line" smooth="yes"/>
      <point x="489" y="645"/>
      <point x="480" y="664"/>
      <point x="466" y="680" type="curve"/>
      <point x="535" y="681" type="line"/>
      <point x="681" y="523" type="line"/>
      <point x="499" y="582" type="line"/>
    </contour>
    <contour>
      <point x="599" y="-99" type="curve" smooth="yes"/>
      <point x="836" y="49" type="line" smooth="yes"/>
      <point x="886" y="81"/>
      <point x="906" y="151"/>
      <point x="881" y="205" type="curve" smooth="yes"/>
      <point x="762" y="456" type="line" smooth="yes"/>
      <point x="757" y="467"/>
      <point x="749" y="477"/>
      <point x="740" y="487" type="curve"/>
      <point x="779" y="477"/>
      <point x="823" y="485"/>
      <point x="855" y="514" type="curve" smooth="yes"/>
      <point x="903" y="559"/>
      <point x="906" y="638"/>
      <point x="862" y="687" type="curve" smooth="yes"/>
      <point x="677" y="886" type="line" smooth="yes"/>
      <point x="657" y="908"/>
      <point x="616" y="926"/>
      <point x="587" y="926" type="curve" smooth="yes"/>
      <point x="318" y="923" type="line" smooth="yes"/>
      <point x="281" y="923"/>
      <point x="236" y="897"/>
      <point x="216" y="865" type="curve" smooth="yes"/>
      <point x="68" y="629" type="line" smooth="yes"/>
      <point x="58" y="612"/>
      <point x="50" y="583"/>
      <point x="50" y="564" type="curve" smooth="yes"/>
      <point x="50" y="284" type="line" smooth="yes"/>
      <point x="50" y="273"/>
      <point x="53" y="255"/>
      <point x="56" y="245" type="curve" smooth="yes"/>
      <point x="144" y="-15" type="line" smooth="yes"/>
      <point x="159" y="-57"/>
      <point x="206" y="-94"/>
      <point x="251" y="-98" type="curve" smooth="yes"/>
      <point x="525" y="-118" type="line" smooth="yes"/>
      <point x="547" y="-119"/>
      <point x="580" y="-111"/>
    </contour>
    <contour>
      <point x="353" y="373" type="curve" smooth="yes"/>
      <point x="564" y="304" type="line"/>
      <point x="614" y="198" type="line"/>
      <point x="503" y="129" type="line"/>
      <point x="349" y="140" type="line"/>
      <point x="294" y="304" type="line"/>
      <point x="294" y="417" type="line"/>
      <point x="310" y="396"/>
      <point x="331" y="380"/>
    </contour>
  </outline>
</glyph>
<glyph name="h" format="1">
  <advance width="854"/>
  <unicode hex="0068"/>
  <outline>
    <contour>
      <point x="727" y="-81" type="curve" smooth="yes"/>
      <point x="769" y="-81"/>
      <point x="804" y="-46"/>
      <point x="804" y="-4" type="curve" smooth="yes"/>
      <point x="804" y="446" type="line" smooth="yes"/>
      <point x="804" y="493"/>
      <point x="765" y="528"/>
      <point x="718" y="522" type="curve" smooth="yes"/>
      <point x="328" y="476" type="line"/>
      <point x="199" y="823" type="line" smooth="yes"/>
      <point x="185" y="862"/>
      <point x="139" y="883"/>
      <point x="100" y="868" type="curve" smooth="yes"/>
      <point x="61" y="854"/>
      <point x="40" y="808"/>
      <point x="55" y="769" type="curve" smooth="yes"/>
      <point x="205" y="366" type="line" smooth="yes"/>
      <point x="216" y="335"/>
      <point x="253" y="313"/>
      <point x="286" y="316" type="curve" smooth="yes"/>
      <point x="650" y="359" type="line"/>
      <point x="650" y="-4" type="line" smooth="yes"/>
      <point x="650" y="-46"/>
      <point x="685" y="-81"/>
    </contour>
  </outline>
</glyph>
<glyph name="i" format="1">
  <advance width="882"/>
  <unicode hex="0069"/>
  <outline>
    <contour>
      <point x="141" y="-92" type="curve" smooth="yes"/>
      <point x="551" y="-92" type="line" smooth="yes"/>
      <point x="615" y="-92"/>
      <point x="656" y="-38"/>
      <point x="639" y="23" type="curve" smooth="yes"/>
      <point x="529" y="423" type="line"/>
      <point x="430" y="701" type="line"/>
      <point x="713" y="708" type="line"/>
      <point x="741" y="708" type="line" smooth="yes"/>
      <point x="790" y="708"/>
      <point x="832" y="750"/>
      <point x="832" y="799" type="curve" smooth="yes"/>
      <point x="832" y="848"/>
      <point x="790" y="890"/>
      <point x="741" y="890" type="curve" smooth="yes"/>
      <point x="709" y="890" type="line"/>
      <point x="299" y="879" type="line" smooth="yes"/>
      <point x="233" y="878"/>
      <point x="194" y="820"/>
      <point x="216" y="758" type="curve" smooth="yes"/>
      <point x="353" y="375" type="line"/>
      <point x="432" y="90" type="line"/>
      <point x="141" y="90" type="line" smooth="yes"/>
      <point x="92" y="90"/>
      <point x="50" y="48"/>
      <point x="50" y="-1" type="curve" smooth="yes"/>
      <point x="50" y="-50"/>
      <point x="92" y="-92"/>
    </contour>
  </outline>
</glyph>
<glyph name="j" format="1">
  <advance width="786"/>
  <unicode hex="006A"/>
  <outline>
    <contour>
      <point x="94" y="-44" type="curve" smooth="yes"/>
      <point x="259" y="-39" type="line" smooth="yes"/>
      <point x="270" y="-38"/>
      <point x="285" y="-31"/>
      <point x="292" y="-22" type="curve" smooth="yes"/>
      <point x="427" y="151" type="line" smooth="yes"/>
      <point x="432" y="157"/>
      <point x="436" y="169"/>
      <point x="436" y="177" type="curve" smooth="yes"/>
      <point x="436" y="399" type="line"/>
      <point x="436" y="618" type="line" smooth="yes"/>
      <point x="436" y="627"/>
      <point x="432" y="638"/>
      <point x="427" y="645" type="curve" smooth="yes"/>
      <point x="341" y="756" type="line"/>
      <point x="693" y="756" type="line" smooth="yes"/>
      <point x="716" y="756"/>
      <point x="736" y="776"/>
      <point x="736" y="799" type="curve" smooth="yes"/>
      <point x="736" y="822"/>
      <point x="716" y="842"/>
      <point x="693" y="842" type="curve" smooth="yes"/>
      <point x="253" y="842" type="line" smooth="yes"/>
      <point x="214" y="842"/>
      <point x="195" y="804"/>
      <point x="219" y="773" type="curve" smooth="yes"/>
      <point x="350" y="604" type="line"/>
      <point x="350" y="399" type="line"/>
      <point x="350" y="192" type="line"/>
      <point x="236" y="47" type="line"/>
      <point x="92" y="42" type="line" smooth="yes"/>
      <point x="68" y="41"/>
      <point x="49" y="21"/>
      <point x="50" y="-2" type="curve" smooth="yes"/>
      <point x="51" y="-26"/>
      <point x="71" y="-45"/>
    </contour>
  </outline>
</glyph>
<glyph name="k" format="1">
  <advance width="922"/>
  <unicode hex="006B"/>
  <outline>
    <contour>
      <point x="761" y="-107" type="curve" smooth="yes"/>
      <point x="821" y="-107"/>
      <point x="872" y="-56"/>
      <point x="872" y="4" type="curve" smooth="yes"/>
      <point x="872" y="186" type="line" smooth="yes"/>
      <point x="872" y="194"/>
      <point x="870" y="207"/>
      <point x="868" y="215" type="curve" smooth="yes"/>
      <point x="819" y="392" type="line" smooth="yes"/>
      <point x="809" y="426"/>
      <point x="773" y="461"/>
      <point x="738" y="470" type="curve" smooth="yes"/>
      <point x="720" y="474" type="line"/>
      <point x="860" y="754" type="line" smooth="yes"/>
      <point x="887" y="808"/>
      <point x="864" y="876"/>
      <point x="811" y="903" type="curve" smooth="yes"/>
      <point x="757" y="930"/>
      <point x="689" y="907"/>
      <point x="662" y="854" type="curve" smooth="yes"/>
      <point x="492" y="515" type="line"/>
      <point x="361" y="515" type="line" smooth="yes"/>
      <point x="349" y="515"/>
      <point x="331" y="511"/>
      <point x="320" y="507" type="curve" smooth="yes"/>
      <point x="272" y="488" type="line"/>
      <point x="272" y="524" type="line"/>
      <point x="272" y="804" type="line" smooth="yes"/>
      <point x="272" y="864"/>
      <point x="221" y="915"/>
      <point x="161" y="915" type="curve" smooth="yes"/>
      <point x="101" y="915"/>
      <point x="50" y="864"/>
      <point x="50" y="804" type="curve" smooth="yes"/>
      <point x="50" y="524" type="line"/>
      <point x="50" y="340" type="line"/>
      <point x="57" y="160" type="line" smooth="yes"/>
      <point x="63" y="21"/>
      <point x="257" y="10"/>
      <point x="278" y="147" type="curve" smooth="yes"/>
      <point x="295" y="258" type="line"/>
      <point x="382" y="293" type="line"/>
      <point x="528" y="293" type="line"/>
      <point x="623" y="270" type="line"/>
      <point x="650" y="171" type="line"/>
      <point x="650" y="4" type="line" smooth="yes"/>
      <point x="650" y="-56"/>
      <point x="701" y="-107"/>
    </contour>
  </outline>
</glyph>
<glyph name="l" format="1">
  <advance width="998"/>
  <unicode hex="006C"/>
  <outline>
    <contour>
      <point x="459" y="-149" type="curve" smooth="yes"/>
      <point x="799" y="-149" type="line" smooth="yes"/>
      <point x="879" y="-149"/>
      <point x="948" y="-80"/>
      <point x="948" y="0" type="curve" smooth="yes"/>
      <point x="948" y="80"/>
      <point x="879" y="149"/>
      <point x="799" y="149" type="curve" smooth="yes"/>
      <point x="506" y="149" type="line"/>
      <point x="348" y="260" type="line"/>
      <point x="348" y="490" type="line"/>
      <point x="348" y="800" type="line" smooth="yes"/>
      <point x="348" y="880"/>
      <point x="279" y="949"/>
      <point x="199" y="949" type="curve" smooth="yes"/>
      <point x="119" y="949"/>
      <point x="50" y="880"/>
      <point x="50" y="800" type="curve" smooth="yes"/>
      <point x="50" y="490" type="line"/>
      <point x="50" y="182" type="line" smooth="yes"/>
      <point x="50" y="139"/>
      <point x="79" y="85"/>
      <point x="114" y="60" type="curve" smooth="yes"/>
      <point x="373" y="-122" type="line" smooth="yes"/>
      <point x="395" y="-137"/>
      <point x="433" y="-149"/>
    </contour>
  </outline>
</glyph>
<glyph name="m" format="1">
  <advance width="994"/>
  <unicode hex="006D"/>
  <outline>
    <contour>
      <point x="797" y="-148" type="curve" smooth="yes"/>
      <point x="876" y="-148"/>
      <point x="944" y="-80"/>
      <point x="944" y="-1" type="curve" smooth="yes"/>
      <point x="944" y="759" type="line" smooth="yes"/>
      <point x="944" y="828"/>
      <point x="888" y="893"/>
      <point x="820" y="904" type="curve" smooth="yes"/>
      <point x="629" y="934" type="line" smooth="yes"/>
      <point x="581" y="942"/>
      <point x="522" y="918"/>
      <point x="491" y="880" type="curve"/>
      <point x="490" y="880" type="line" smooth="yes"/>
      <point x="449" y="937"/>
      <point x="364" y="956"/>
      <point x="302" y="923" type="curve" smooth="yes"/>
      <point x="127" y="828" type="line" smooth="yes"/>
      <point x="85" y="805"/>
      <point x="50" y="747"/>
      <point x="50" y="699" type="curve"/>
      <point x="50" y="-1" type="line" smooth="yes"/>
      <point x="50" y="-80"/>
      <point x="118" y="-148"/>
      <point x="197" y="-148" type="curve" smooth="yes"/>
      <point x="276" y="-148"/>
      <point x="344" y="-80"/>
      <point x="344" y="-1" type="curve" smooth="yes"/>
      <point x="344" y="579" type="line"/>
      <point x="354" y="430" type="line" smooth="yes"/>
      <point x="366" y="241"/>
      <point x="641" y="245"/>
      <point x="647" y="435" type="curve" smooth="yes"/>
      <point x="650" y="527" type="line"/>
      <point x="650" y="-1" type="line" smooth="yes"/>
      <point x="650" y="-80"/>
      <point x="718" y="-148"/>
    </contour>
  </outline>
</glyph>
<glyph name="n" format="1">
  <advance width="868"/>
  <unicode hex="006E"/>
  <outline>
    <contour>
      <point x="218" y="-1" type="curve" smooth="yes"/>
      <point x="218" y="464" type="line"/>
      <point x="240" y="643" type="line"/>
      <point x="350" y="558" type="line"/>
      <point x="350" y="279" type="line" smooth="yes"/>
      <point x="350" y="249"/>
      <point x="372" y="215"/>
      <point x="398" y="203" type="curve" smooth="yes"/>
      <point x="698" y="63" type="line" smooth="yes"/>
      <point x="759" y="35"/>
      <point x="818" y="73"/>
      <point x="818" y="139" type="curve" smooth="yes"/>
      <point x="818" y="799" type="line" smooth="yes"/>
      <point x="818" y="844"/>
      <point x="779" y="883"/>
      <point x="734" y="883" type="curve" smooth="yes"/>
      <point x="689" y="883"/>
      <point x="650" y="844"/>
      <point x="650" y="799" type="curve" smooth="yes"/>
      <point x="650" y="271" type="line"/>
      <point x="518" y="332" type="line"/>
      <point x="518" y="599" type="line" smooth="yes"/>
      <point x="518" y="622"/>
      <point x="503" y="652"/>
      <point x="485" y="666" type="curve" smooth="yes"/>
      <point x="225" y="866" type="line" smooth="yes"/>
      <point x="169" y="909"/>
      <point x="99" y="879"/>
      <point x="91" y="809" type="curve" smooth="yes"/>
      <point x="51" y="479" type="line" smooth="yes"/>
      <point x="50" y="476"/>
      <point x="50" y="472"/>
      <point x="50" y="469" type="curve" smooth="yes"/>
      <point x="50" y="-1" type="line" smooth="yes"/>
      <point x="50" y="-46"/>
      <point x="89" y="-85"/>
      <point x="134" y="-85" type="curve" smooth="yes"/>
      <point x="179" y="-85"/>
      <point x="218" y="-46"/>
    </contour>
  </outline>
</glyph>
<glyph name="o" format="1">
  <advance width="780"/>
  <unicode hex="006F"/>
  <outline>
    <contour>
      <point x="470" y="47" type="line"/>
      <point x="138" y="349" type="line"/>
      <point x="321" y="734" type="line"/>
      <point x="642" y="458" type="line"/>
    </contour>
    <contour>
      <point x="483" y="-41" type="line" smooth="yes"/>
      <point x="485" y="-41"/>
      <point x="486" y="-41"/>
      <point x="488" y="-41" type="curve"/>
      <point x="505" y="-43"/>
      <point x="523" y="-33"/>
      <point x="530" y="-16" type="curve" smooth="yes"/>
      <point x="727" y="454" type="line" smooth="yes"/>
      <point x="733" y="468"/>
      <point x="728" y="489"/>
      <point x="716" y="499" type="curve" smooth="yes"/>
      <point x="333" y="829" type="line" smooth="yes"/>
      <point x="312" y="848"/>
      <point x="283" y="841"/>
      <point x="271" y="816" type="curve" smooth="yes"/>
      <point x="53" y="356" type="line" smooth="yes"/>
      <point x="46" y="341"/>
      <point x="50" y="320"/>
      <point x="62" y="309" type="curve" smooth="yes"/>
      <point x="436" y="-31" type="line" smooth="yes"/>
      <point x="442" y="-36"/>
      <point x="454" y="-41"/>
      <point x="463" y="-41" type="curve" smooth="yes"/>
    </contour>
  </outline>
</glyph>
<glyph name="p" format="1">
  <advance width="955"/>
  <unicode hex="0070"/>
  <outline>
    <contour>
      <point x="182" y="-129" type="curve" smooth="yes"/>
      <point x="253" y="-129"/>
      <point x="314" y="-68"/>
      <point x="314" y="3" type="curve" smooth="yes"/>
      <point x="314" y="13" type="line"/>
      <point x="314" y="37" type="line"/>
      <point x="491" y="184" type="line"/>
      <point x="777" y="240" type="line" smooth="yes"/>
      <point x="832" y="251"/>
      <point x="880" y="305"/>
      <point x="883" y="361" type="curve" smooth="yes"/>
      <point x="905" y="686" type="line" smooth="yes"/>
      <point x="909" y="741"/>
      <point x="870" y="800"/>
      <point x="818" y="819" type="curve" smooth="yes"/>
      <point x="515" y="927" type="line" smooth="yes"/>
      <point x="485" y="938"/>
      <point x="438" y="935"/>
      <point x="410" y="920" type="curve" smooth="yes"/>
      <point x="122" y="771" type="line" smooth="yes"/>
      <point x="83" y="751"/>
      <point x="52" y="698"/>
      <point x="51" y="654" type="curve" smooth="yes"/>
      <point x="50" y="334" type="line"/>
      <point x="50" y="13" type="line"/>
      <point x="50" y="3" type="line" smooth="yes"/>
      <point x="50" y="-68"/>
      <point x="111" y="-129"/>
    </contour>
    <contour>
      <point x="407" y="437" type="line" smooth="yes"/>
      <point x="389" y="433"/>
      <point x="362" y="420"/>
      <point x="348" y="409" type="curve" smooth="yes"/>
      <point x="314" y="381" type="line"/>
      <point x="315" y="573" type="line"/>
      <point x="480" y="659" type="line"/>
      <point x="635" y="604" type="line"/>
      <point x="627" y="479" type="line"/>
    </contour>
  </outline>
</glyph>
<glyph name="q" format="1">
  <advance width="1019"/>
  <unicode hex="0071"/>
  <outline>
    <contour>
      <point x="517" y="229" type="curve" smooth="yes"/>
      <point x="481" y="158" type="line"/>
      <point x="479" y="158" type="line"/>
      <point x="406" y="158" type="line"/>
      <point x="375" y="162" type="line"/>
      <point x="370" y="177" type="line"/>
      <point x="368" y="229" type="line"/>
      <point x="368" y="499" type="line"/>
      <point x="368" y="580" type="line"/>
      <point x="371" y="633" type="line"/>
      <point x="371" y="633" type="line"/>
      <point x="374" y="635" type="line"/>
      <point x="424" y="640" type="line"/>
      <point x="591" y="640" type="line"/>
      <point x="644" y="635" type="line"/>
      <point x="646" y="634" type="line"/>
      <point x="647" y="632" type="line"/>
      <point x="651" y="592" type="line"/>
      <point x="651" y="330" type="line"/>
      <point x="587" y="297" type="line" smooth="yes"/>
      <point x="562" y="284"/>
      <point x="531" y="254"/>
    </contour>
    <contour>
      <point x="600" y="-160" type="line" smooth="yes"/>
      <point x="602" y="-160"/>
      <point x="604" y="-160"/>
      <point x="605" y="-160" type="curve"/>
      <point x="686" y="-162"/>
      <point x="760" y="-99"/>
      <point x="768" y="-18" type="curve" smooth="yes"/>
      <point x="773" y="31" type="line"/>
      <point x="776" y="37" type="line"/>
      <point x="806" y="52" type="line"/>
      <point x="892" y="103" type="line" smooth="yes"/>
      <point x="934" y="128"/>
      <point x="969" y="189"/>
      <point x="969" y="239" type="curve" smooth="yes"/>
      <point x="969" y="599" type="line" smooth="yes"/>
      <point x="969" y="603"/>
      <point x="969" y="609"/>
      <point x="968" y="613" type="curve" smooth="yes"/>
      <point x="961" y="697" type="line" smooth="yes"/>
      <point x="959" y="717"/>
      <point x="949" y="747"/>
      <point x="939" y="764" type="curve" smooth="yes"/>
      <point x="894" y="839" type="line" smooth="yes"/>
      <point x="881" y="861"/>
      <point x="850" y="889"/>
      <point x="826" y="900" type="curve" smooth="yes"/>
      <point x="755" y="934" type="line" smooth="yes"/>
      <point x="741" y="941"/>
      <point x="717" y="948"/>
      <point x="701" y="949" type="curve" smooth="yes"/>
      <point x="613" y="957" type="line" smooth="yes"/>
      <point x="609" y="958"/>
      <point x="602" y="958"/>
      <point x="598" y="958" type="curve" smooth="yes"/>
      <point x="417" y="958" type="line" smooth="yes"/>
      <point x="413" y="958"/>
      <point x="406" y="958"/>
      <point x="402" y="957" type="curve" smooth="yes"/>
      <point x="314" y="949" type="line" smooth="yes"/>
      <point x="296" y="947"/>
      <point x="270" y="940"/>
      <point x="254" y="932" type="curve" smooth="yes"/>
      <point x="177" y="891" type="line" smooth="yes"/>
      <point x="152" y="878"/>
      <point x="121" y="846"/>
      <point x="108" y="820" type="curve" smooth="yes"/>
      <point x="71" y="744" type="line" smooth="yes"/>
      <point x="63" y="728"/>
      <point x="56" y="700"/>
      <point x="55" y="682" type="curve" smooth="yes"/>
      <point x="50" y="598" type="line"/>
      <point x="50" y="499" type="line"/>
      <point x="50" y="229" type="line"/>
      <point x="53" y="143" type="line" smooth="yes"/>
      <point x="54" y="130"/>
      <point x="57" y="111"/>
      <point x="61" y="99" type="curve" smooth="yes"/>
      <point x="88" y="16" type="line" smooth="yes"/>
      <point x="97" y="-9"/>
      <point x="120" y="-43"/>
      <point x="141" y="-59" type="curve" smooth="yes"/>
      <point x="211" y="-114" type="line" smooth="yes"/>
      <point x="230" y="-129"/>
      <point x="265" y="-144"/>
      <point x="288" y="-147" type="curve" smooth="yes"/>
      <point x="374" y="-159" type="line" smooth="yes"/>
      <point x="380" y="-159"/>
      <point x="390" y="-160"/>
      <point x="395" y="-160" type="curve" smooth="yes"/>
      <point x="479" y="-160" type="line" smooth="yes"/>
      <point x="479" y="-160" type="line" smooth="yes"/>
    </contour>
  </outline>
</glyph>
<glyph name="r" format="1">
  <advance width="877"/>
  <unicode hex="0072"/>
  <outline>
    <contour>
      <point x="739" y="-92" type="curve" smooth="yes"/>
      <point x="787" y="-92"/>
      <point x="827" y="-52"/>
      <point x="827" y="-4" type="curve" smooth="yes"/>
      <point x="827" y="78" type="line"/>
      <point x="821" y="169" type="line" smooth="yes"/>
      <point x="821" y="176"/>
      <point x="818" y="189"/>
      <point x="815" y="196" type="curve" smooth="yes"/>
      <point x="785" y="272" type="line" smooth="yes"/>
      <point x="779" y="286"/>
      <point x="764" y="304"/>
      <point x="752" y="313" type="curve" smooth="yes"/>
      <point x="679" y="361" type="line" smooth="yes"/>
      <point x="676" y="363"/>
      <point x="671" y="366"/>
      <point x="666" y="368" type="curve"/>
      <point x="801" y="676" type="line" smooth="yes"/>
      <point x="824" y="730"/>
      <point x="795" y="787"/>
      <point x="736" y="798" type="curve" smooth="yes"/>
      <point x="302" y="879" type="line" smooth="yes"/>
      <point x="261" y="887"/>
      <point x="216" y="861"/>
      <point x="202" y="822" type="curve" smooth="yes"/>
      <point x="55" y="395" type="line" smooth="yes"/>
      <point x="52" y="387"/>
      <point x="50" y="374"/>
      <point x="50" y="366" type="curve" smooth="yes"/>
      <point x="50" y="-4" type="line" smooth="yes"/>
      <point x="50" y="-52"/>
      <point x="90" y="-92"/>
      <point x="138" y="-92" type="curve" smooth="yes"/>
      <point x="186" y="-92"/>
      <point x="226" y="-52"/>
      <point x="226" y="-4" type="curve" smooth="yes"/>
      <point x="226" y="208" type="line"/>
      <point x="338" y="208" type="line" smooth="yes"/>
      <point x="338" y="208" type="line"/>
      <point x="541" y="208" type="line"/>
      <point x="600" y="202" type="line"/>
      <point x="631" y="181" type="line"/>
      <point x="647" y="143" type="line"/>
      <point x="651" y="78" type="line"/>
      <point x="651" y="-4" type="line" smooth="yes"/>
      <point x="651" y="-52"/>
      <point x="691" y="-92"/>
    </contour>
    <contour>
      <point x="237" y="384" type="line"/>
      <point x="344" y="692" type="line"/>
      <point x="595" y="645" type="line"/>
      <point x="481" y="384" type="line"/>
    </contour>
  </outline>
</glyph>
<glyph name="s" format="1">
  <advance width="838"/>
  <unicode hex="0073"/>
  <outline>
    <contour>
      <point x="340" y="-65" type="curve" smooth="yes"/>
      <point x="571" y="-62" type="line" smooth="yes"/>
      <point x="589" y="-62"/>
      <point x="612" y="-51"/>
      <point x="623" y="-37" type="curve" smooth="yes"/>
      <point x="773" y="141" type="line" smooth="yes"/>
      <point x="789" y="161"/>
      <point x="793" y="195"/>
      <point x="781" y="217" type="curve" smooth="yes"/>
      <point x="673" y="427" type="line" smooth="yes"/>
      <point x="663" y="447"/>
      <point x="636" y="464"/>
      <point x="614" y="465" type="curve" smooth="yes"/>
      <point x="390" y="473" type="line"/>
      <point x="214" y="524" type="line"/>
      <point x="203" y="661" type="line"/>
      <point x="362" y="735" type="line"/>
      <point x="547" y="730" type="line"/>
      <point x="664" y="564" type="line" smooth="yes"/>
      <point x="685" y="534"/>
      <point x="729" y="526"/>
      <point x="760" y="548" type="curve" smooth="yes"/>
      <point x="790" y="569"/>
      <point x="798" y="613"/>
      <point x="776" y="644" type="curve" smooth="yes"/>
      <point x="639" y="838" type="line" smooth="yes"/>
      <point x="628" y="854"/>
      <point x="604" y="867"/>
      <point x="584" y="868" type="curve" smooth="yes"/>
      <point x="349" y="873" type="line" smooth="yes"/>
      <point x="340" y="873"/>
      <point x="326" y="870"/>
      <point x="318" y="867" type="curve" smooth="yes"/>
      <point x="101" y="766" type="line" smooth="yes"/>
      <point x="76" y="754"/>
      <point x="59" y="724"/>
      <point x="61" y="697" type="curve" smooth="yes"/>
      <point x="81" y="465" type="line" smooth="yes"/>
      <point x="83" y="439"/>
      <point x="105" y="412"/>
      <point x="130" y="405" type="curve" smooth="yes"/>
      <point x="360" y="338" type="line" smooth="yes"/>
      <point x="365" y="336"/>
      <point x="372" y="335"/>
      <point x="377" y="335" type="curve" smooth="yes"/>
      <point x="569" y="328" type="line"/>
      <point x="638" y="195" type="line"/>
      <point x="538" y="76" type="line"/>
      <point x="356" y="73" type="line"/>
      <point x="195" y="157" type="line"/>
      <point x="187" y="213" type="line" smooth="yes"/>
      <point x="183" y="250"/>
      <point x="147" y="277"/>
      <point x="110" y="272" type="curve" smooth="yes"/>
      <point x="73" y="268"/>
      <point x="46" y="232"/>
      <point x="51" y="195" type="curve" smooth="yes"/>
      <point x="62" y="104" type="line" smooth="yes"/>
      <point x="65" y="84"/>
      <point x="81" y="61"/>
      <point x="99" y="52" type="curve" smooth="yes"/>
      <point x="307" y="-57" type="line" smooth="yes"/>
      <point x="316" y="-62"/>
      <point x="330" y="-65"/>
    </contour>
  </outline>
</glyph>
<glyph name="t" format="1">
  <advance width="804"/>
  <unicode hex="0074"/>
  <outline>
    <contour>
      <point x="496" y="-146" type="curve" smooth="yes"/>
      <point x="575" y="-146"/>
      <point x="642" y="-79"/>
      <point x="642" y="0" type="curve" smooth="yes"/>
      <point x="642" y="379" type="line"/>
      <point x="747" y="741" type="line" smooth="yes"/>
      <point x="775" y="837"/>
      <point x="713" y="923"/>
      <point x="613" y="928" type="curve" smooth="yes"/>
      <point x="223" y="946" type="line"/>
      <point x="196" y="946" type="line" smooth="yes"/>
      <point x="117" y="946"/>
      <point x="50" y="879"/>
      <point x="50" y="800" type="curve" smooth="yes"/>
      <point x="50" y="721"/>
      <point x="117" y="654"/>
      <point x="196" y="654" type="curve" smooth="yes"/>
      <point x="209" y="654" type="line"/>
      <point x="415" y="645" type="line"/>
      <point x="356" y="441" type="line" smooth="yes"/>
      <point x="353" y="430"/>
      <point x="350" y="411"/>
      <point x="350" y="400" type="curve" smooth="yes"/>
      <point x="350" y="0" type="line" smooth="yes"/>
      <point x="350" y="-79"/>
      <point x="417" y="-146"/>
    </contour>
  </outline>
</glyph>
<glyph name="u" format="1">
  <advance width="947"/>
  <unicode hex="0075"/>
  <outline>
    <contour>
      <point x="386" y="-125" type="curve" smooth="yes"/>
      <point x="545" y="-125" type="line" smooth="yes"/>
      <point x="551" y="-125"/>
      <point x="560" y="-124"/>
      <point x="565" y="-123" type="curve" smooth="yes"/>
      <point x="719" y="-98" type="line" smooth="yes"/>
      <point x="753" y="-93"/>
      <point x="793" y="-64"/>
      <point x="809" y="-34" type="curve" smooth="yes"/>
      <point x="882" y="105" type="line" smooth="yes"/>
      <point x="890" y="120"/>
      <point x="897" y="146"/>
      <point x="897" y="163" type="curve" smooth="yes"/>
      <point x="897" y="319" type="line"/>
      <point x="897" y="799" type="line" smooth="yes"/>
      <point x="897" y="866"/>
      <point x="840" y="923"/>
      <point x="773" y="923" type="curve" smooth="yes"/>
      <point x="706" y="923"/>
      <point x="649" y="866"/>
      <point x="649" y="799" type="curve" smooth="yes"/>
      <point x="649" y="319" type="line"/>
      <point x="649" y="194" type="line"/>
      <point x="618" y="136" type="line"/>
      <point x="535" y="123" type="line"/>
      <point x="400" y="123" type="line"/>
      <point x="325" y="141" type="line"/>
      <point x="298" y="209" type="line"/>
      <point x="298" y="339" type="line"/>
      <point x="298" y="659" type="line"/>
      <point x="298" y="799" type="line" smooth="yes"/>
      <point x="298" y="866"/>
      <point x="241" y="923"/>
      <point x="174" y="923" type="curve" smooth="yes"/>
      <point x="107" y="923"/>
      <point x="50" y="866"/>
      <point x="50" y="799" type="curve" smooth="yes"/>
      <point x="50" y="339" type="line"/>
      <point x="50" y="185" type="line" smooth="yes"/>
      <point x="50" y="172"/>
      <point x="54" y="152"/>
      <point x="59" y="140" type="curve" smooth="yes"/>
      <point x="119" y="-11" type="line" smooth="yes"/>
      <point x="132" y="-44"/>
      <point x="171" y="-77"/>
      <point x="205" y="-86" type="curve" smooth="yes"/>
      <point x="357" y="-122" type="line" smooth="yes"/>
      <point x="365" y="-124"/>
      <point x="378" y="-125"/>
    </contour>
  </outline>
</glyph>
<glyph name="v" format="1">
  <advance width="798"/>
  <unicode hex="0076"/>
  <outline>
    <contour>
      <point x="378" y="-39" type="curve" smooth="yes"/>
      <point x="728" y="221" type="line" smooth="yes"/>
      <point x="739" y="229"/>
      <point x="748" y="246"/>
      <point x="748" y="260" type="curve" smooth="yes"/>
      <point x="748" y="800" type="line" smooth="yes"/>
      <point x="748" y="826"/>
      <point x="725" y="849"/>
      <point x="699" y="849" type="curve" smooth="yes"/>
      <point x="673" y="849"/>
      <point x="650" y="826"/>
      <point x="650" y="800" type="curve" smooth="yes"/>
      <point x="650" y="285" type="line"/>
      <point x="360" y="70" type="line"/>
      <point x="148" y="375" type="line"/>
      <point x="148" y="800" type="line" smooth="yes"/>
      <point x="148" y="826"/>
      <point x="125" y="849"/>
      <point x="99" y="849" type="curve" smooth="yes"/>
      <point x="73" y="849"/>
      <point x="50" y="826"/>
      <point x="50" y="800" type="curve" smooth="yes"/>
      <point x="50" y="360" type="line" smooth="yes"/>
      <point x="50" y="352"/>
      <point x="54" y="339"/>
      <point x="59" y="332" type="curve" smooth="yes"/>
      <point x="309" y="-28" type="line" smooth="yes"/>
      <point x="325" y="-51"/>
      <point x="356" y="-56"/>
    </contour>
  </outline>
</glyph>
<glyph name="w" format="1">
  <advance width="910"/>
  <unicode hex="0077"/>
  <outline>
    <contour>
      <point x="230" y="-102" type="curve" smooth="yes"/>
      <point x="429" y="-54" type="line" smooth="yes"/>
      <point x="437" y="-52"/>
      <point x="445" y="-49"/>
      <point x="453" y="-44" type="curve"/>
      <point x="463" y="-51"/>
      <point x="474" y="-56"/>
      <point x="485" y="-59" type="curve" smooth="yes"/>
      <point x="682" y="-103" type="line" smooth="yes"/>
      <point x="737" y="-115"/>
      <point x="793" y="-80"/>
      <point x="807" y="-25" type="curve" smooth="yes"/>
      <point x="857" y="175" type="line" smooth="yes"/>
      <point x="859" y="181"/>
      <point x="860" y="193"/>
      <point x="860" y="200" type="curve" smooth="yes"/>
      <point x="860" y="800" type="line" smooth="yes"/>
      <point x="860" y="857"/>
      <point x="812" y="905"/>
      <point x="755" y="905" type="curve" smooth="yes"/>
      <point x="698" y="905"/>
      <point x="650" y="857"/>
      <point x="650" y="800" type="curve" smooth="yes"/>
      <point x="650" y="213" type="line"/>
      <point x="628" y="125" type="line"/>
      <point x="594" y="132" type="line"/>
      <point x="563" y="254" type="line"/>
      <point x="559" y="442" type="line" smooth="yes"/>
      <point x="556" y="580"/>
      <point x="352" y="579"/>
      <point x="349" y="442" type="curve" smooth="yes"/>
      <point x="345" y="253" type="line"/>
      <point x="317" y="135" type="line"/>
      <point x="282" y="126" type="line"/>
      <point x="260" y="213" type="line"/>
      <point x="260" y="800" type="line" smooth="yes"/>
      <point x="260" y="857"/>
      <point x="212" y="905"/>
      <point x="155" y="905" type="curve" smooth="yes"/>
      <point x="98" y="905"/>
      <point x="50" y="857"/>
      <point x="50" y="800" type="curve" smooth="yes"/>
      <point x="50" y="200" type="line" smooth="yes"/>
      <point x="50" y="193"/>
      <point x="51" y="181"/>
      <point x="53" y="175" type="curve" smooth="yes"/>
      <point x="103" y="-25" type="line" smooth="yes"/>
      <point x="117" y="-81"/>
      <point x="174" y="-116"/>
    </contour>
  </outline>
</glyph>
<glyph name="x" format="1">
  <advance width="822"/>
  <unicode hex="0078"/>
  <outline>
    <contour>
      <point x="711" y="-61" type="curve" smooth="yes"/>
      <point x="744" y="-61"/>
      <point x="772" y="-33"/>
      <point x="772" y="0" type="curve" smooth="yes"/>
      <point x="772" y="200" type="line" smooth="yes"/>
      <point x="772" y="208"/>
      <point x="769" y="220"/>
      <point x="766" y="227" type="curve" smooth="yes"/>
      <point x="688" y="386" type="line"/>
      <point x="690" y="387"/>
      <point x="691" y="389"/>
      <point x="692" y="390" type="curve" smooth="yes"/>
      <point x="740" y="444" type="line" smooth="yes"/>
      <point x="746" y="451"/>
      <point x="752" y="464"/>
      <point x="754" y="472" type="curve" smooth="yes"/>
      <point x="770" y="552" type="line" smooth="yes"/>
      <point x="771" y="555"/>
      <point x="772" y="561"/>
      <point x="772" y="564" type="curve" smooth="yes"/>
      <point x="772" y="640" type="line"/>
      <point x="772" y="800" type="line" smooth="yes"/>
      <point x="772" y="833"/>
      <point x="744" y="861"/>
      <point x="711" y="861" type="curve" smooth="yes"/>
      <point x="678" y="861"/>
      <point x="650" y="833"/>
      <point x="650" y="800" type="curve" smooth="yes"/>
      <point x="650" y="640" type="line"/>
      <point x="650" y="571" type="line"/>
      <point x="638" y="513" type="line"/>
      <point x="611" y="482" type="line"/>
      <point x="565" y="466" type="line"/>
      <point x="498" y="461" type="line"/>
      <point x="430" y="461" type="line"/>
      <point x="265" y="468" type="line"/>
      <point x="173" y="586" type="line"/>
      <point x="172" y="760" type="line"/>
      <point x="172" y="800" type="line" smooth="yes"/>
      <point x="172" y="833"/>
      <point x="144" y="861"/>
      <point x="111" y="861" type="curve" smooth="yes"/>
      <point x="78" y="861"/>
      <point x="50" y="833"/>
      <point x="50" y="800" type="curve" smooth="yes"/>
      <point x="50" y="760" type="line"/>
      <point x="51" y="564" type="line" smooth="yes"/>
      <point x="51" y="553"/>
      <point x="57" y="536"/>
      <point x="64" y="527" type="curve" smooth="yes"/>
      <point x="146" y="422" type="line"/>
      <point x="145" y="421"/>
      <point x="143" y="419"/>
      <point x="142" y="418" type="curve" smooth="yes"/>
      <point x="89" y="366" type="line" smooth="yes"/>
      <point x="82" y="359"/>
      <point x="75" y="347"/>
      <point x="73" y="337" type="curve" smooth="yes"/>
      <point x="53" y="258" type="line" smooth="yes"/>
      <point x="52" y="254"/>
      <point x="51" y="248"/>
      <point x="51" y="244" type="curve" smooth="yes"/>
      <point x="50" y="171" type="line"/>
      <point x="50" y="90" type="line"/>
      <point x="50" y="0" type="line" smooth="yes"/>
      <point x="50" y="-33"/>
      <point x="78" y="-61"/>
      <point x="111" y="-61" type="curve" smooth="yes"/>
      <point x="144" y="-61"/>
      <point x="172" y="-33"/>
      <point x="172" y="0" type="curve" smooth="yes"/>
      <point x="172" y="90" type="line"/>
      <point x="172" y="169" type="line"/>
      <point x="173" y="235" type="line"/>
      <point x="187" y="291" type="line"/>
      <point x="217" y="321" type="line"/>
      <point x="269" y="336" type="line"/>
      <point x="340" y="339" type="line"/>
      <point x="421" y="339" type="line"/>
      <point x="427" y="339" type="line"/>
      <point x="583" y="323" type="line"/>
      <point x="650" y="186" type="line"/>
      <point x="650" y="0" type="line" smooth="yes"/>
      <point x="650" y="-33"/>
      <point x="678" y="-61"/>
    </contour>
  </outline>
</glyph>
<glyph name="y" format="1">
  <advance width="882"/>
  <unicode hex="0079"/>
  <outline>
    <contour>
      <point x="376" y="-91" type="line"/>
      <point x="662" y="-72" type="line" smooth="yes"/>
      <point x="697" y="-70"/>
      <point x="733" y="-41"/>
      <point x="743" y="-7" type="curve" smooth="yes"/>
      <point x="828" y="274" type="line" smooth="yes"/>
      <point x="830" y="282"/>
      <point x="832" y="295"/>
      <point x="832" y="303" type="curve" smooth="yes"/>
      <point x="824" y="590" type="line" smooth="yes"/>
      <point x="821" y="697"/>
      <point x="683" y="719"/>
      <point x="647" y="618" type="curve" smooth="yes"/>
      <point x="570" y="399" type="line"/>
      <point x="380" y="391" type="line"/>
      <point x="232" y="545" type="line"/>
      <point x="232" y="798" type="line" smooth="yes"/>
      <point x="232" y="847"/>
      <point x="190" y="889"/>
      <point x="141" y="889" type="curve" smooth="yes"/>
      <point x="92" y="889"/>
      <point x="50" y="847"/>
      <point x="50" y="798" type="curve" smooth="yes"/>
      <point x="50" y="508" type="line" smooth="yes"/>
      <point x="50" y="488"/>
      <point x="61" y="460"/>
      <point x="75" y="445" type="curve" smooth="yes"/>
      <point x="277" y="235" type="line" smooth="yes"/>
      <point x="293" y="219"/>
      <point x="324" y="206"/>
      <point x="347" y="207" type="curve" smooth="yes"/>
      <point x="621" y="219" type="line"/>
      <point x="587" y="106" type="line"/>
      <point x="364" y="91" type="line"/>
      <point x="141" y="92" type="line" smooth="yes"/>
      <point x="92" y="92"/>
      <point x="50" y="51"/>
      <point x="50" y="1" type="curve" smooth="yes"/>
      <point x="50" y="-48"/>
      <point x="91" y="-90"/>
      <point x="141" y="-90" type="curve" smooth="yes"/>
    </contour>
  </outline>
</glyph>
<glyph name="z" format="1">
  <advance width="840"/>
  <unicode hex="007A"/>
  <outline>
    <contour>
      <point x="500" y="-70" type="curve" smooth="yes"/>
      <point x="720" y="-70" type="line" smooth="yes"/>
      <point x="758" y="-70"/>
      <point x="790" y="-38"/>
      <point x="790" y="0" type="curve" smooth="yes"/>
      <point x="790" y="38"/>
      <point x="758" y="70"/>
      <point x="720" y="70" type="curve" smooth="yes"/>
      <point x="513" y="70" type="line"/>
      <point x="258" y="165" type="line"/>
      <point x="474" y="353" type="line" smooth="yes"/>
      <point x="484" y="361"/>
      <point x="494" y="377"/>
      <point x="497" y="390" type="curve" smooth="yes"/>
      <point x="588" y="784" type="line" smooth="yes"/>
      <point x="599" y="830"/>
      <point x="567" y="870"/>
      <point x="520" y="870" type="curve" smooth="yes"/>
      <point x="120" y="870" type="line" smooth="yes"/>
      <point x="82" y="870"/>
      <point x="50" y="838"/>
      <point x="50" y="800" type="curve" smooth="yes"/>
      <point x="50" y="762"/>
      <point x="82" y="730"/>
      <point x="120" y="730" type="curve" smooth="yes"/>
      <point x="432" y="730" type="line"/>
      <point x="365" y="444" type="line"/>
      <point x="77" y="194" type="line" smooth="yes"/>
      <point x="33" y="156"/>
      <point x="44" y="95"/>
      <point x="98" y="75" type="curve" smooth="yes"/>
      <point x="476" y="-66" type="line" smooth="yes"/>
      <point x="482" y="-68"/>
      <point x="493" y="-70"/>
    </contour>
  </outline>
</glyph>
<glyph name="braceleft" format="1">
  <advance width="621"/>
  <unicode hex="007B"/>
  <outline>
    <contour>
      <point x="554" y="-60" type="curve" smooth="yes"/>
      <point x="586" y="-10"/>
      <point x="570" y="60"/>
      <point x="519" y="91" type="curve" smooth="yes"/>
      <point x="271" y="246" type="line"/>
      <point x="271" y="509" type="line"/>
      <point x="529" y="711" type="line" smooth="yes"/>
      <point x="576" y="748"/>
      <point x="584" y="819"/>
      <point x="548" y="866" type="curve" smooth="yes"/>
      <point x="511" y="913"/>
      <point x="440" y="921"/>
      <point x="393" y="885" type="curve" smooth="yes"/>
      <point x="93" y="649" type="line" smooth="yes"/>
      <point x="69" y="631"/>
      <point x="50" y="592"/>
      <point x="50" y="562" type="curve" smooth="yes"/>
      <point x="51" y="184" type="line" smooth="yes"/>
      <point x="51" y="151"/>
      <point x="74" y="109"/>
      <point x="103" y="91" type="curve" smooth="yes"/>
      <point x="403" y="-95" type="line" smooth="yes"/>
      <point x="453" y="-127"/>
      <point x="523" y="-111"/>
    </contour>
  </outline>
</glyph>
<glyph name="bar" format="1">
  <advance width="352"/>
  <unicode hex="007C"/>
  <outline>
    <contour>
      <point x="176" y="-125" type="curve" smooth="yes"/>
      <point x="244" y="-125"/>
      <point x="302" y="-67"/>
      <point x="302" y="1" type="curve" smooth="yes"/>
      <point x="302" y="801" type="line" smooth="yes"/>
      <point x="302" y="869"/>
      <point x="244" y="927"/>
      <point x="176" y="927" type="curve" smooth="yes"/>
      <point x="108" y="927"/>
      <point x="50" y="869"/>
      <point x="50" y="801" type="curve" smooth="yes"/>
      <point x="50" y="1" type="line" smooth="yes"/>
      <point x="50" y="-67"/>
      <point x="108" y="-125"/>
    </contour>
  </outline>
</glyph>
<glyph name="braceright" format="1">
  <advance width="699"/>
  <unicode hex="007D"/>
  <outline>
    <contour>
      <point x="115" y="-66" type="curve" smooth="yes"/>
      <point x="189" y="-66" type="line"/>
      <point x="283" y="-61" type="line" smooth="yes"/>
      <point x="290" y="-60"/>
      <point x="300" y="-58"/>
      <point x="306" y="-55" type="curve" smooth="yes"/>
      <point x="390" y="-18" type="line" smooth="yes"/>
      <point x="402" y="-14"/>
      <point x="415" y="-1"/>
      <point x="421" y="10" type="curve" smooth="yes"/>
      <point x="467" y="92" type="line" smooth="yes"/>
      <point x="471" y="99"/>
      <point x="474" y="112"/>
      <point x="475" y="120" type="curve" smooth="yes"/>
      <point x="480" y="206" type="line"/>
      <point x="491" y="277" type="line"/>
      <point x="527" y="317" type="line"/>
      <point x="599" y="338" type="line" smooth="yes"/>
      <point x="668" y="358"/>
      <point x="665" y="447"/>
      <point x="595" y="464" type="curve" smooth="yes"/>
      <point x="533" y="478" type="line"/>
      <point x="493" y="517" type="line"/>
      <point x="480" y="579" type="line"/>
      <point x="476" y="669" type="line" smooth="yes"/>
      <point x="476" y="676"/>
      <point x="473" y="688"/>
      <point x="470" y="694" type="curve" smooth="yes"/>
      <point x="430" y="778" type="line" smooth="yes"/>
      <point x="425" y="789"/>
      <point x="412" y="803"/>
      <point x="401" y="808" type="curve" smooth="yes"/>
      <point x="323" y="848" type="line" smooth="yes"/>
      <point x="317" y="852"/>
      <point x="306" y="855"/>
      <point x="300" y="855" type="curve" smooth="yes"/>
      <point x="211" y="864" type="line" smooth="yes"/>
      <point x="209" y="864"/>
      <point x="207" y="864"/>
      <point x="205" y="864" type="curve" smooth="yes"/>
      <point x="115" y="864" type="line" smooth="yes"/>
      <point x="80" y="864"/>
      <point x="50" y="834"/>
      <point x="50" y="799" type="curve" smooth="yes"/>
      <point x="50" y="764"/>
      <point x="80" y="734"/>
      <point x="115" y="734" type="curve" smooth="yes"/>
      <point x="202" y="734" type="line"/>
      <point x="275" y="727" type="line"/>
      <point x="322" y="703" type="line"/>
      <point x="347" y="650" type="line"/>
      <point x="350" y="568" type="line" smooth="yes"/>
      <point x="350" y="565"/>
      <point x="351" y="561"/>
      <point x="352" y="558" type="curve" smooth="yes"/>
      <point x="369" y="471" type="line" smooth="yes"/>
      <point x="372" y="460"/>
      <point x="380" y="444"/>
      <point x="388" y="437" type="curve" smooth="yes"/>
      <point x="427" y="400" type="line"/>
      <point x="382" y="350" type="line" smooth="yes"/>
      <point x="374" y="342"/>
      <point x="367" y="327"/>
      <point x="365" y="316" type="curve" smooth="yes"/>
      <point x="351" y="223" type="line" smooth="yes"/>
      <point x="351" y="221"/>
      <point x="350" y="218"/>
      <point x="350" y="216" type="curve" smooth="yes"/>
      <point x="346" y="142" type="line"/>
      <point x="318" y="92" type="line"/>
      <point x="265" y="69" type="line"/>
      <point x="181" y="64" type="line"/>
      <point x="115" y="64" type="line" smooth="yes"/>
      <point x="80" y="64"/>
      <point x="50" y="34"/>
      <point x="50" y="-1" type="curve" smooth="yes"/>
      <point x="50" y="-36"/>
      <point x="80" y="-66"/>
    </contour>
  </outline>
</glyph>
<glyph name="asciitilde" format="1">
  <advance width="872"/>
  <unicode hex="007E"/>
  <outline>
    <contour>
      <point x="218" y="77" type="curve" smooth="yes"/>
      <point x="254" y="190" type="line"/>
      <point x="308" y="204" type="line"/>
      <point x="364" y="116" type="line" smooth="yes"/>
      <point x="372" y="103"/>
      <point x="391" y="88"/>
      <point x="406" y="83" type="curve" smooth="yes"/>
      <point x="556" y="26" type="line" smooth="yes"/>
      <point x="579" y="17"/>
      <point x="615" y="21"/>
      <point x="636" y="36" type="curve" smooth="yes"/>
      <point x="774" y="133" type="line" smooth="yes"/>
      <point x="791" y="145"/>
      <point x="807" y="172"/>
      <point x="810" y="193" type="curve" smooth="yes"/>
      <point x="821" y="293" type="line" smooth="yes"/>
      <point x="827" y="339"/>
      <point x="792" y="383"/>
      <point x="746" y="388" type="curve" smooth="yes"/>
      <point x="700" y="394"/>
      <point x="656" y="359"/>
      <point x="651" y="313" type="curve" smooth="yes"/>
      <point x="643" y="251" type="line"/>
      <point x="574" y="203" type="line"/>
      <point x="493" y="233" type="line"/>
      <point x="418" y="350" type="line" smooth="yes"/>
      <point x="400" y="379"/>
      <point x="357" y="395"/>
      <point x="324" y="386" type="curve" smooth="yes"/>
      <point x="165" y="344" type="line" smooth="yes"/>
      <point x="140" y="337"/>
      <point x="113" y="312"/>
      <point x="105" y="287" type="curve" smooth="yes"/>
      <point x="54" y="129" type="line" smooth="yes"/>
      <point x="40" y="85"/>
      <point x="65" y="35"/>
      <point x="110" y="21" type="curve" smooth="yes"/>
      <point x="154" y="7"/>
      <point x="204" y="32"/>
    </contour>
  </outline>
</glyph>
<glyph name="cent" format="1">
  <advance width="700"/>
  <unicode hex="00A2"/>
  <outline>
    <contour>
      <point x="448" y="-202" type="curve" smooth="yes"/>
      <point x="502" y="-202"/>
      <point x="548" y="-157"/>
      <point x="550" y="-102" type="curve"/>
      <point x="604" y="-101"/>
      <point x="650" y="-54"/>
      <point x="650" y="0" type="curve" smooth="yes"/>
      <point x="650" y="55"/>
      <point x="603" y="102"/>
      <point x="548" y="102" type="curve" smooth="yes"/>
      <point x="445" y="102" type="line"/>
      <point x="294" y="122" type="line"/>
      <point x="267" y="217" type="line"/>
      <point x="359" y="298" type="line"/>
      <point x="548" y="298" type="line" smooth="yes"/>
      <point x="603" y="298"/>
      <point x="650" y="345"/>
      <point x="650" y="400" type="curve" smooth="yes"/>
      <point x="650" y="455"/>
      <point x="604" y="501"/>
      <point x="550" y="502" type="curve"/>
      <point x="548" y="557"/>
      <point x="502" y="602"/>
      <point x="448" y="602" type="curve" smooth="yes"/>
      <point x="394" y="602"/>
      <point x="348" y="557"/>
      <point x="346" y="502" type="curve"/>
      <point x="320" y="502" type="line" smooth="yes"/>
      <point x="299" y="502"/>
      <point x="268" y="490"/>
      <point x="252" y="476" type="curve" smooth="yes"/>
      <point x="83" y="327" type="line" smooth="yes"/>
      <point x="57" y="303"/>
      <point x="43" y="256"/>
      <point x="53" y="222" type="curve" smooth="yes"/>
      <point x="117" y="2" type="line" smooth="yes"/>
      <point x="127" y="-33"/>
      <point x="165" y="-66"/>
      <point x="201" y="-71" type="curve" smooth="yes"/>
      <point x="346" y="-90" type="line"/>
      <point x="346" y="-100" type="line" smooth="yes"/>
      <point x="346" y="-155"/>
      <point x="393" y="-202"/>
    </contour>
  </outline>
</glyph>
<glyph name="sterling" format="1">
  <advance width="568"/>
  <unicode hex="00A3"/>
  <outline>
    <contour>
      <point x="160" y="-58" type="curve" smooth="yes"/>
      <point x="459" y="-58" type="line" smooth="yes"/>
      <point x="491" y="-58"/>
      <point x="518" y="-31"/>
      <point x="518" y="1" type="curve" smooth="yes"/>
      <point x="518" y="33"/>
      <point x="491" y="60"/>
      <point x="459" y="60" type="curve" smooth="yes"/>
      <point x="280" y="60" type="line"/>
      <point x="298" y="84" type="line" smooth="yes"/>
      <point x="304" y="92"/>
      <point x="309" y="106"/>
      <point x="310" y="116" type="curve" smooth="yes"/>
      <point x="318" y="272" type="line"/>
      <point x="318" y="342" type="line"/>
      <point x="409" y="342" type="line" smooth="yes"/>
      <point x="441" y="342"/>
      <point x="468" y="369"/>
      <point x="468" y="401" type="curve" smooth="yes"/>
      <point x="468" y="433"/>
      <point x="441" y="460"/>
      <point x="409" y="460" type="curve" smooth="yes"/>
      <point x="318" y="460" type="line"/>
      <point x="318" y="567" type="line"/>
      <point x="338" y="688" type="line"/>
      <point x="432" y="741" type="line"/>
      <point x="460" y="742" type="line" smooth="yes"/>
      <point x="492" y="743"/>
      <point x="519" y="771"/>
      <point x="518" y="802" type="curve" smooth="yes"/>
      <point x="517" y="834"/>
      <point x="489" y="861"/>
      <point x="458" y="860" type="curve" smooth="yes"/>
      <point x="414" y="859" type="line" smooth="yes"/>
      <point x="406" y="859"/>
      <point x="394" y="855"/>
      <point x="386" y="851" type="curve" smooth="yes"/>
      <point x="255" y="776" type="line" smooth="yes"/>
      <point x="241" y="768"/>
      <point x="228" y="750"/>
      <point x="226" y="734" type="curve" smooth="yes"/>
      <point x="201" y="581" type="line" smooth="yes"/>
      <point x="200" y="578"/>
      <point x="200" y="574"/>
      <point x="200" y="571" type="curve" smooth="yes"/>
      <point x="200" y="460" type="line"/>
      <point x="109" y="460" type="line" smooth="yes"/>
      <point x="77" y="460"/>
      <point x="50" y="433"/>
      <point x="50" y="401" type="curve" smooth="yes"/>
      <point x="50" y="369"/>
      <point x="77" y="342"/>
      <point x="109" y="342" type="curve" smooth="yes"/>
      <point x="200" y="342" type="line"/>
      <point x="200" y="278" type="line"/>
      <point x="193" y="141" type="line"/>
      <point x="113" y="37" type="line" smooth="yes"/>
      <point x="81" y="-5"/>
      <point x="107" y="-58"/>
    </contour>
  </outline>
</glyph>
<glyph name="section" format="1">
  <advance width="848"/>
  <unicode hex="00A7"/>
  <outline>
    <contour>
      <point x="543" y="341" type="line"/>
      <point x="376" y="397" type="line"/>
      <point x="348" y="450" type="line"/>
      <point x="530" y="390" type="line"/>
    </contour>
    <contour>
      <point x="520" y="-31" type="curve" smooth="yes"/>
      <point x="618" y="161" type="line"/>
      <point x="634" y="153"/>
      <point x="653" y="151"/>
      <point x="671" y="156" type="curve" smooth="yes"/>
      <point x="709" y="166"/>
      <point x="733" y="208"/>
      <point x="722" y="247" type="curve" smooth="yes"/>
      <point x="662" y="467" type="line" smooth="yes"/>
      <point x="656" y="488"/>
      <point x="635" y="511"/>
      <point x="614" y="518" type="curve" smooth="yes"/>
      <point x="270" y="632" type="line"/>
      <point x="307" y="726" type="line"/>
      <point x="473" y="729" type="line"/>
      <point x="634" y="676" type="line"/>
      <point x="651" y="588" type="line" smooth="yes"/>
      <point x="659" y="549"/>
      <point x="700" y="523"/>
      <point x="739" y="530" type="curve" smooth="yes"/>
      <point x="778" y="538"/>
      <point x="804" y="579"/>
      <point x="797" y="618" type="curve" smooth="yes"/>
      <point x="770" y="748" type="line" smooth="yes"/>
      <point x="765" y="771"/>
      <point x="743" y="796"/>
      <point x="720" y="804" type="curve" smooth="yes"/>
      <point x="507" y="873" type="line" smooth="yes"/>
      <point x="500" y="875"/>
      <point x="490" y="877"/>
      <point x="483" y="877" type="curve" smooth="yes"/>
      <point x="256" y="873" type="line" smooth="yes"/>
      <point x="228" y="873"/>
      <point x="198" y="852"/>
      <point x="188" y="827" type="curve" smooth="yes"/>
      <point x="103" y="615" type="line" smooth="yes"/>
      <point x="87" y="575"/>
      <point x="106" y="533"/>
      <point x="145" y="518" type="curve"/>
      <point x="258" y="302" type="line" smooth="yes"/>
      <point x="266" y="287"/>
      <point x="285" y="271"/>
      <point x="301" y="266" type="curve" smooth="yes"/>
      <point x="476" y="208" type="line"/>
      <point x="412" y="83" type="line"/>
      <point x="237" y="106" type="line"/>
      <point x="194" y="228" type="line" smooth="yes"/>
      <point x="180" y="265"/>
      <point x="137" y="286"/>
      <point x="99" y="273" type="curve" smooth="yes"/>
      <point x="62" y="259"/>
      <point x="41" y="216"/>
      <point x="54" y="178" type="curve" smooth="yes"/>
      <point x="113" y="14" type="line" smooth="yes"/>
      <point x="121" y="-9"/>
      <point x="148" y="-31"/>
      <point x="173" y="-34" type="curve" smooth="yes"/>
      <point x="444" y="-70" type="line" smooth="yes"/>
      <point x="473" y="-74"/>
      <point x="507" y="-56"/>
    </contour>
  </outline>
</glyph>
<glyph name="guillemotleft" format="1">
  <advance width="400"/>
  <unicode hex="00AB"/>
  <outline>
    <contour>
      <point x="300" y="447" type="curve" smooth="yes"/>
      <point x="273" y="447"/>
      <point x="250" y="424"/>
      <point x="250" y="397" type="curve" smooth="yes"/>
      <point x="250" y="-3" type="line" smooth="yes"/>
      <point x="250" y="-30"/>
      <point x="273" y="-53"/>
      <point x="300" y="-53" type="curve" smooth="yes"/>
      <point x="327" y="-53"/>
      <point x="350" y="-30"/>
      <point x="350" y="-3" type="curve" smooth="yes"/>
      <point x="350" y="397" type="line" smooth="yes"/>
      <point x="350" y="424"/>
      <point x="327" y="447"/>
    </contour>
    <contour>
      <point x="100" y="447" type="curve" smooth="yes"/>
      <point x="73" y="447"/>
      <point x="50" y="424"/>
      <point x="50" y="397" type="curve" smooth="yes"/>
      <point x="50" y="-3" type="line" smooth="yes"/>
      <point x="50" y="-30"/>
      <point x="73" y="-53"/>
      <point x="100" y="-53" type="curve" smooth="yes"/>
      <point x="127" y="-53"/>
      <point x="150" y="-30"/>
      <point x="150" y="-3" type="curve" smooth="yes"/>
      <point x="150" y="397" type="line" smooth="yes"/>
      <point x="150" y="424"/>
      <point x="127" y="447"/>
    </contour>
  </outline>
</glyph>
<glyph name="degree" format="1">
  <advance width="258"/>
  <unicode hex="00B0"/>
  <outline>
    <contour>
      <point x="129" y="434" type="curve" smooth="yes"/>
      <point x="172" y="434"/>
      <point x="208" y="470"/>
      <point x="208" y="513" type="curve" smooth="yes"/>
      <point x="208" y="523" type="line" smooth="yes"/>
      <point x="208" y="566"/>
      <point x="172" y="602"/>
      <point x="129" y="602" type="curve" smooth="yes"/>
      <point x="86" y="602"/>
      <point x="50" y="566"/>
      <point x="50" y="523" type="curve" smooth="yes"/>
      <point x="50" y="513" type="line" smooth="yes"/>
      <point x="50" y="470"/>
      <point x="86" y="434"/>
    </contour>
  </outline>
</glyph>
<glyph name="plusminus" format="1">
  <advance width="602"/>
  <unicode hex="00B1"/>
  <outline>
    <contour>
      <point x="301" y="146" type="curve" smooth="yes"/>
      <point x="329" y="146"/>
      <point x="352" y="169"/>
      <point x="352" y="197" type="curve" smooth="yes"/>
      <point x="352" y="346" type="line"/>
      <point x="501" y="346" type="line" smooth="yes"/>
      <point x="529" y="346"/>
      <point x="552" y="369"/>
      <point x="552" y="397" type="curve" smooth="yes"/>
      <point x="552" y="425"/>
      <point x="529" y="448"/>
      <point x="501" y="448" type="curve" smooth="yes"/>
      <point x="352" y="448" type="line"/>
      <point x="352" y="597" type="line" smooth="yes"/>
      <point x="352" y="625"/>
      <point x="329" y="648"/>
      <point x="301" y="648" type="curve" smooth="yes"/>
      <point x="273" y="648"/>
      <point x="250" y="625"/>
      <point x="250" y="597" type="curve" smooth="yes"/>
      <point x="250" y="448" type="line"/>
      <point x="101" y="448" type="line" smooth="yes"/>
      <point x="73" y="448"/>
      <point x="50" y="425"/>
      <point x="50" y="397" type="curve" smooth="yes"/>
      <point x="50" y="369"/>
      <point x="73" y="346"/>
      <point x="101" y="346" type="curve" smooth="yes"/>
      <point x="250" y="346" type="line"/>
      <point x="250" y="197" type="line" smooth="yes"/>
      <point x="250" y="169"/>
      <point x="273" y="146"/>
    </contour>
    <contour>
      <point x="50" y="-3" type="curve" smooth="yes"/>
      <point x="50" y="-31"/>
      <point x="73" y="-54"/>
      <point x="101" y="-54" type="curve" smooth="yes"/>
      <point x="501" y="-54" type="line" smooth="yes"/>
      <point x="529" y="-54"/>
      <point x="552" y="-31"/>
      <point x="552" y="-3" type="curve" smooth="yes"/>
      <point x="552" y="25"/>
      <point x="529" y="48"/>
      <point x="501" y="48" type="curve" smooth="yes"/>
      <point x="101" y="48" type="line" smooth="yes"/>
      <point x="73" y="48"/>
      <point x="50" y="25"/>
    </contour>
  </outline>
</glyph>
<glyph name="acute" format="1">
  <advance width="525"/>
  <unicode hex="00B4"/>
  <outline>
    <contour>
      <point x="60" y="893" type="curve" smooth="yes"/>
      <point x="78" y="865"/>
      <point x="119" y="857"/>
      <point x="147" y="876" type="curve" smooth="yes"/>
      <point x="314" y="987" type="line"/>
      <point x="447" y="1076" type="line" smooth="yes"/>
      <point x="475" y="1094"/>
      <point x="483" y="1135"/>
      <point x="464" y="1163" type="curve" smooth="yes"/>
      <point x="446" y="1191"/>
      <point x="405" y="1199"/>
      <point x="377" y="1180" type="curve" smooth="yes"/>
      <point x="244" y="1092" type="line"/>
      <point x="77" y="980" type="line" smooth="yes"/>
      <point x="49" y="962"/>
      <point x="41" y="921"/>
    </contour>
  </outline>
</glyph>
<glyph name="paragraph" format="1">
  <advance width="889"/>
  <unicode hex="00B6"/>
  <outline>
    <contour>
      <point x="690" y="-149" type="curve" smooth="yes"/>
      <point x="770" y="-149"/>
      <point x="839" y="-80"/>
      <point x="839" y="0" type="curve" smooth="yes"/>
      <point x="839" y="300" type="line"/>
      <point x="839" y="562" type="line"/>
      <point x="819" y="812" type="line" smooth="yes"/>
      <point x="812" y="888"/>
      <point x="746" y="949"/>
      <point x="670" y="949" type="curve" smooth="yes"/>
      <point x="420" y="949" type="line" smooth="yes"/>
      <point x="399" y="949"/>
      <point x="367" y="941"/>
      <point x="348" y="931" type="curve" smooth="yes"/>
      <point x="127" y="809" type="line" smooth="yes"/>
      <point x="74" y="780"/>
      <point x="40" y="709"/>
      <point x="52" y="650" type="curve" smooth="yes"/>
      <point x="99" y="409" type="line" smooth="yes"/>
      <point x="116" y="323"/>
      <point x="198" y="271"/>
      <point x="282" y="293" type="curve" smooth="yes"/>
      <point x="341" y="308" type="line"/>
      <point x="341" y="0" type="line" smooth="yes"/>
      <point x="341" y="-80"/>
      <point x="410" y="-149"/>
      <point x="490" y="-149" type="curve" smooth="yes"/>
      <point x="528" y="-149"/>
      <point x="563" y="-134"/>
      <point x="590" y="-109" type="curve"/>
      <point x="617" y="-134"/>
      <point x="652" y="-149"/>
    </contour>
  </outline>
</glyph>
<glyph name="guillemotright" format="1">
  <advance width="591"/>
  <unicode hex="00BB"/>
  <outline>
    <contour>
      <point x="486" y="-97" type="curve" smooth="yes"/>
      <point x="501" y="-83" type="line" smooth="yes"/>
      <point x="524" y="-59"/>
      <point x="542" y="-13"/>
      <point x="541" y="20" type="curve" smooth="yes"/>
      <point x="527" y="406" type="line" smooth="yes"/>
      <point x="524" y="481"/>
      <point x="458" y="543"/>
      <point x="383" y="540" type="curve" smooth="yes"/>
      <point x="346" y="539"/>
      <point x="313" y="522"/>
      <point x="289" y="497" type="curve"/>
      <point x="286" y="499" type="line" smooth="yes"/>
      <point x="233" y="552"/>
      <point x="143" y="552"/>
      <point x="90" y="499" type="curve" smooth="yes"/>
      <point x="37" y="446"/>
      <point x="37" y="356"/>
      <point x="90" y="303" type="curve" smooth="yes"/>
      <point x="178" y="214" type="line"/>
      <point x="117" y="127" type="line"/>
      <point x="90" y="99" type="line" smooth="yes"/>
      <point x="37" y="46"/>
      <point x="37" y="-44"/>
      <point x="90" y="-97" type="curve" smooth="yes"/>
      <point x="143" y="-150"/>
      <point x="233" y="-150"/>
      <point x="286" y="-97" type="curve" smooth="yes"/>
      <point x="288" y="-96" type="line"/>
      <point x="290" y="-97" type="line" smooth="yes"/>
      <point x="343" y="-150"/>
      <point x="433" y="-150"/>
    </contour>
  </outline>
</glyph>
<glyph name="Agrave" format="1">
  <advance width="1012"/>
  <unicode hex="00C0"/>
  <outline>
    <contour>
      <point x="806" y="-160" type="curve" smooth="yes"/>
      <point x="890" y="-160"/>
      <point x="962" y="-88"/>
      <point x="962" y="-4" type="curve" smooth="yes"/>
      <point x="962" y="571" type="line" smooth="yes"/>
      <point x="962" y="578"/>
      <point x="961" y="587"/>
      <point x="960" y="594" type="curve" smooth="yes"/>
      <point x="939" y="741" type="line" smooth="yes"/>
      <point x="933" y="782"/>
      <point x="899" y="832"/>
      <point x="863" y="853" type="curve" smooth="yes"/>
      <point x="736" y="928" type="line" smooth="yes"/>
      <point x="716" y="939"/>
      <point x="683" y="948"/>
      <point x="660" y="949" type="curve" smooth="yes"/>
      <point x="660" y="949" type="line"/>
      <point x="654" y="992"/>
      <point x="630" y="1033"/>
      <point x="593" y="1058" type="curve" smooth="yes"/>
      <point x="293" y="1258" type="line" smooth="yes"/>
      <point x="222" y="1305"/>
      <point x="123" y="1285"/>
      <point x="76" y="1215" type="curve" smooth="yes"/>
      <point x="29" y="1144"/>
      <point x="49" y="1045"/>
      <point x="119" y="998" type="curve" smooth="yes"/>
      <point x="248" y="912" type="line"/>
      <point x="149" y="856" type="line" smooth="yes"/>
      <point x="112" y="834"/>
      <point x="77" y="783"/>
      <point x="72" y="741" type="curve" smooth="yes"/>
      <point x="51" y="591" type="line" smooth="yes"/>
      <point x="51" y="585"/>
      <point x="50" y="576"/>
      <point x="50" y="570" type="curve" smooth="yes"/>
      <point x="50" y="419" type="line"/>
      <point x="50" y="262" type="line"/>
      <point x="56" y="113" type="line" smooth="yes"/>
      <point x="63" y="-83"/>
      <point x="341" y="-96"/>
      <point x="366" y="99" type="curve" smooth="yes"/>
      <point x="376" y="173" type="line"/>
      <point x="401" y="188" type="line"/>
      <point x="506" y="190" type="line"/>
      <point x="650" y="190" type="line"/>
      <point x="650" y="-4" type="line" smooth="yes"/>
      <point x="650" y="-88"/>
      <point x="722" y="-160"/>
    </contour>
    <contour>
      <point x="506" y="502" type="line"/>
      <point x="362" y="499" type="line"/>
      <point x="362" y="559" type="line"/>
      <point x="371" y="623" type="line"/>
      <point x="397" y="638" type="line"/>
      <point x="505" y="640" type="line"/>
      <point x="614" y="638" type="line"/>
      <point x="641" y="622" type="line"/>
      <point x="650" y="560" type="line"/>
      <point x="650" y="502" type="line"/>
    </contour>
  </outline>
</glyph>
<glyph name="Aacute" format="1">
  <advance width="920"/>
  <unicode hex="00C1"/>
  <outline>
    <contour>
      <point x="760" y="-114" type="curve" smooth="yes"/>
      <point x="819" y="-114"/>
      <point x="870" y="-63"/>
      <point x="870" y="-4" type="curve" smooth="yes"/>
      <point x="870" y="387" type="line"/>
      <point x="870" y="499" type="line"/>
      <point x="870" y="609" type="line" smooth="yes"/>
      <point x="870" y="616"/>
      <point x="869" y="627"/>
      <point x="868" y="633" type="curve" smooth="yes"/>
      <point x="842" y="750" type="line" smooth="yes"/>
      <point x="836" y="774"/>
      <point x="815" y="805"/>
      <point x="794" y="818" type="curve" smooth="yes"/>
      <point x="699" y="880" type="line" smooth="yes"/>
      <point x="686" y="888"/>
      <point x="663" y="896"/>
      <point x="647" y="897" type="curve" smooth="yes"/>
      <point x="616" y="900" type="line"/>
      <point x="771" y="1003" type="line"/>
      <point x="821" y="1036" type="line" smooth="yes"/>
      <point x="870" y="1069"/>
      <point x="884" y="1140"/>
      <point x="852" y="1189" type="curve" smooth="yes"/>
      <point x="819" y="1238"/>
      <point x="748" y="1252"/>
      <point x="699" y="1220" type="curve" smooth="yes"/>
      <point x="449" y="1053" type="line"/>
      <point x="399" y="1020" type="line" smooth="yes"/>
      <point x="361" y="994"/>
      <point x="344" y="947"/>
      <point x="353" y="904" type="curve"/>
      <point x="288" y="901" type="line" smooth="yes"/>
      <point x="275" y="900"/>
      <point x="255" y="895"/>
      <point x="243" y="889" type="curve" smooth="yes"/>
      <point x="146" y="840" type="line" smooth="yes"/>
      <point x="123" y="828"/>
      <point x="98" y="799"/>
      <point x="90" y="774" type="curve" smooth="yes"/>
      <point x="55" y="660" type="line" smooth="yes"/>
      <point x="52" y="651"/>
      <point x="50" y="636"/>
      <point x="50" y="627" type="curve" smooth="yes"/>
      <point x="50" y="509" type="line"/>
      <point x="50" y="288" type="line"/>
      <point x="50" y="175" type="line"/>
      <point x="53" y="55" type="line" smooth="yes"/>
      <point x="56" y="-88"/>
      <point x="267" y="-90"/>
      <point x="273" y="53" type="curve" smooth="yes"/>
      <point x="277" y="156" type="line"/>
      <point x="290" y="210" type="line"/>
      <point x="327" y="232" type="line"/>
      <point x="400" y="236" type="line"/>
      <point x="650" y="236" type="line"/>
      <point x="650" y="-4" type="line" smooth="yes"/>
      <point x="650" y="-63"/>
      <point x="701" y="-114"/>
    </contour>
    <contour>
      <point x="270" y="509" type="line"/>
      <point x="270" y="611" type="line"/>
      <point x="287" y="664" type="line"/>
      <point x="321" y="682" type="line"/>
      <point x="414" y="686" type="line"/>
      <point x="517" y="686" type="line"/>
      <point x="603" y="680" type="line"/>
      <point x="637" y="658" type="line"/>
      <point x="650" y="597" type="line"/>
      <point x="650" y="500" type="line"/>
      <point x="650" y="456" type="line"/>
      <point x="400" y="456" type="line"/>
      <point x="288" y="450" type="line" smooth="yes"/>
      <point x="283" y="450"/>
      <point x="276" y="449"/>
      <point x="270" y="447" type="curve"/>
    </contour>
  </outline>
</glyph>
